<svg width="295" height="332" viewBox="0 0 295 332" fill="none" xmlns="http://www.w3.org/2000/svg">
<g clip-path="url(#clip0_39_313)">
<g clip-path="url(#clip1_39_313)">
<path d="M27.328 10.536V33H21.856V18.952L16.992 33H12.256L7.36 18.92V33H1.888V10.536H8.576L14.688 26.184L20.672 10.536H27.328ZM48.8668 15.144V33H43.3628V29.768C42.8508 30.8133 42.0828 31.6453 41.0588 32.264C40.0561 32.8827 38.8828 33.192 37.5388 33.192C35.4908 33.192 33.8588 32.5093 32.6428 31.144C31.4481 29.7787 30.8508 27.9013 30.8508 25.512V15.144H36.2908V24.84C36.2908 26.056 36.6001 27.0053 37.2188 27.688C37.8588 28.3493 38.7121 28.68 39.7788 28.68C40.8881 28.68 41.7628 28.328 42.4028 27.624C43.0428 26.92 43.3628 25.9173 43.3628 24.616V15.144H48.8668ZM58.11 9.32V33H52.638V9.32H58.11ZM72 28.296V33H69.536C67.4453 33 65.8133 32.488 64.64 31.464C63.488 30.4187 62.912 28.7013 62.912 26.312V19.752H60.512V15.144H62.912V10.76H68.384V15.144H71.968V19.752H68.384V26.408C68.384 27.112 68.5227 27.6027 68.8 27.88C69.0987 28.1573 69.5893 28.296 70.272 28.296H72ZM74.5635 10.12C74.5635 9.288 74.8622 8.60533 75.4595 8.072C76.0568 7.51733 76.8462 7.24 77.8275 7.24C78.8088 7.24 79.5982 7.51733 80.1955 8.072C80.7928 8.60533 81.0915 9.288 81.0915 10.12C81.0915 10.9307 80.7928 11.6133 80.1955 12.168C79.5982 12.7013 78.8088 12.968 77.8275 12.968C76.8462 12.968 76.0568 12.7013 75.4595 12.168C74.8622 11.6133 74.5635 10.9307 74.5635 10.12ZM80.5475 15.144V33H75.0755V15.144H80.5475ZM96.7415 19.496V24.04H82.6295V19.496H96.7415ZM107.173 25.064V33H101.701V10.376H110.565C113.253 10.376 115.301 11.048 116.708 12.392C118.117 13.7147 118.821 15.5067 118.821 17.768C118.821 19.176 118.501 20.4347 117.861 21.544C117.242 22.632 116.314 23.496 115.077 24.136C113.839 24.7547 112.335 25.064 110.565 25.064H107.173ZM109.957 20.68C112.154 20.68 113.253 19.7093 113.253 17.768C113.253 15.784 112.154 14.792 109.957 14.792H107.173V20.68H109.957ZM129.865 14.92C131.636 14.92 133.214 15.2933 134.601 16.04C136.009 16.7653 137.108 17.8213 137.897 19.208C138.708 20.5947 139.113 22.216 139.113 24.072C139.113 25.928 138.708 27.5493 137.897 28.936C137.108 30.3227 136.009 31.3893 134.601 32.136C133.214 32.8613 131.636 33.224 129.865 33.224C128.094 33.224 126.505 32.8613 125.097 32.136C123.689 31.3893 122.58 30.3227 121.769 28.936C120.98 27.5493 120.585 25.928 120.585 24.072C120.585 22.216 120.98 20.5947 121.769 19.208C122.58 17.8213 123.689 16.7653 125.097 16.04C126.505 15.2933 128.094 14.92 129.865 14.92ZM129.865 19.656C128.82 19.656 127.934 20.04 127.209 20.808C126.505 21.5547 126.153 22.6427 126.153 24.072C126.153 25.5013 126.505 26.5893 127.209 27.336C127.934 28.0827 128.82 28.456 129.865 28.456C130.91 28.456 131.785 28.0827 132.489 27.336C133.193 26.5893 133.545 25.5013 133.545 24.072C133.545 22.6427 133.193 21.5547 132.489 20.808C131.785 20.04 130.91 19.656 129.865 19.656ZM148.447 14.92C150.708 14.92 152.511 15.4853 153.855 16.616C155.22 17.7467 156.073 19.24 156.415 21.096H151.295C151.145 20.3707 150.804 19.8053 150.271 19.4C149.759 18.9733 149.108 18.76 148.319 18.76C147.7 18.76 147.231 18.8987 146.911 19.176C146.591 19.432 146.431 19.8053 146.431 20.296C146.431 20.8507 146.719 21.2667 147.295 21.544C147.892 21.8213 148.82 22.0987 150.079 22.376C151.444 22.696 152.564 23.0267 153.439 23.368C154.313 23.688 155.071 24.2213 155.711 24.968C156.351 25.7147 156.671 26.7173 156.671 27.976C156.671 29 156.393 29.9067 155.839 30.696C155.284 31.4853 154.484 32.104 153.439 32.552C152.393 33 151.156 33.224 149.727 33.224C147.316 33.224 145.385 32.6907 143.935 31.624C142.484 30.5573 141.599 29.032 141.279 27.048H146.559C146.644 27.816 146.964 28.4027 147.519 28.808C148.095 29.2133 148.831 29.416 149.727 29.416C150.345 29.416 150.815 29.2773 151.135 29C151.455 28.7013 151.615 28.3173 151.615 27.848C151.615 27.2293 151.316 26.792 150.719 26.536C150.143 26.2587 149.193 25.9707 147.871 25.672C146.548 25.3947 145.46 25.096 144.607 24.776C143.753 24.456 143.017 23.944 142.399 23.24C141.78 22.5147 141.471 21.5333 141.471 20.296C141.471 18.696 142.079 17.4053 143.295 16.424C144.511 15.4213 146.228 14.92 148.447 14.92ZM169.813 28.296V33H167.349C165.258 33 163.626 32.488 162.453 31.464C161.301 30.4187 160.725 28.7013 160.725 26.312V19.752H158.325V15.144H160.725V10.76H166.197V15.144H169.781V19.752H166.197V26.408C166.197 27.112 166.335 27.6027 166.613 27.88C166.911 28.1573 167.402 28.296 168.085 28.296H169.813ZM18.144 70.632C18.144 71.8267 17.8347 72.9253 17.216 73.928C16.6187 74.9307 15.7227 75.7307 14.528 76.328C13.3547 76.9253 11.9253 77.224 10.24 77.224C7.70133 77.224 5.61067 76.6053 3.968 75.368C2.32533 74.1307 1.42933 72.4027 1.28 70.184H7.104C7.18933 71.0373 7.488 71.7093 8 72.2C8.53333 72.6907 9.20533 72.936 10.016 72.936C10.72 72.936 11.2747 72.744 11.68 72.36C12.0853 71.976 12.288 71.464 12.288 70.824C12.288 70.248 12.096 69.768 11.712 69.384C11.3493 69 10.8907 68.6907 10.336 68.456C9.78133 68.2 9.01333 67.9013 8.032 67.56C6.60267 67.0693 5.42933 66.6 4.512 66.152C3.616 65.6827 2.83733 65 2.176 64.104C1.536 63.1867 1.216 62.0027 1.216 60.552C1.216 59.208 1.55733 58.0453 2.24 57.064C2.92267 56.0827 3.86133 55.336 5.056 54.824C6.272 54.2907 7.65867 54.024 9.216 54.024C11.7333 54.024 13.728 54.6213 15.2 55.816C16.6933 57.0107 17.536 58.6533 17.728 60.744H11.808C11.7013 59.9973 11.424 59.4107 10.976 58.984C10.5493 58.536 9.96267 58.312 9.216 58.312C8.576 58.312 8.05333 58.4827 7.648 58.824C7.264 59.1653 7.072 59.6667 7.072 60.328C7.072 60.8613 7.24267 61.32 7.584 61.704C7.94667 62.0667 8.39467 62.3653 8.928 62.6C9.46133 62.8347 10.2293 63.1333 11.232 63.496C12.6827 63.9867 13.8667 64.4773 14.784 64.968C15.7013 65.4373 16.4907 66.1307 17.152 67.048C17.8133 67.9653 18.144 69.16 18.144 70.632ZM31.2813 72.296V77H28.8173C26.7266 77 25.0946 76.488 23.9213 75.464C22.7693 74.4187 22.1933 72.7013 22.1933 70.312V63.752H19.7933V59.144H22.1933V54.76H27.6653V59.144H31.2493V63.752H27.6653V70.408C27.6653 71.112 27.8039 71.6027 28.0813 71.88C28.3799 72.1573 28.8706 72.296 29.5533 72.296H31.2813ZM42.7088 58.92C44.4794 58.92 46.0581 59.2933 47.4448 60.04C48.8528 60.7653 49.9514 61.8213 50.7408 63.208C51.5514 64.5947 51.9568 66.216 51.9568 68.072C51.9568 69.928 51.5514 71.5493 50.7408 72.936C49.9514 74.3227 48.8528 75.3893 47.4448 76.136C46.0581 76.8613 44.4794 77.224 42.7088 77.224C40.9381 77.224 39.3488 76.8613 37.9408 76.136C36.5328 75.3893 35.4234 74.3227 34.6128 72.936C33.8234 71.5493 33.4288 69.928 33.4288 68.072C33.4288 66.216 33.8234 64.5947 34.6128 63.208C35.4234 61.8213 36.5328 60.7653 37.9408 60.04C39.3488 59.2933 40.9381 58.92 42.7088 58.92ZM42.7088 63.656C41.6634 63.656 40.7781 64.04 40.0528 64.808C39.3488 65.5547 38.9968 66.6427 38.9968 68.072C38.9968 69.5013 39.3488 70.5893 40.0528 71.336C40.7781 72.0827 41.6634 72.456 42.7088 72.456C43.7541 72.456 44.6288 72.0827 45.3328 71.336C46.0368 70.5893 46.3888 69.5013 46.3888 68.072C46.3888 66.6427 46.0368 65.5547 45.3328 64.808C44.6288 64.04 43.7541 63.656 42.7088 63.656ZM60.2663 62.504C60.9489 61.416 61.8236 60.552 62.8903 59.912C63.9783 59.272 65.1516 58.952 66.4103 58.952V64.808H64.8423C63.3916 64.808 62.2609 65.1173 61.4503 65.736C60.6609 66.3547 60.2663 67.4 60.2663 68.872V77H54.7943V59.144H60.2663V62.504ZM68.1885 54.12C68.1885 53.288 68.4872 52.6053 69.0845 52.072C69.6818 51.5173 70.4712 51.24 71.4525 51.24C72.4338 51.24 73.2232 51.5173 73.8205 52.072C74.4178 52.6053 74.7165 53.288 74.7165 54.12C74.7165 54.9307 74.4178 55.6133 73.8205 56.168C73.2232 56.7013 72.4338 56.968 71.4525 56.968C70.4712 56.968 69.6818 56.7013 69.0845 56.168C68.4872 55.6133 68.1885 54.9307 68.1885 54.12ZM74.1725 59.144V77H68.7005V59.144H74.1725ZM94.9105 67.592C94.9105 68.04 94.8572 68.5307 94.7505 69.064H82.3665C82.4305 70.408 82.7718 71.3787 83.3905 71.976C84.0092 72.552 84.7985 72.84 85.7585 72.84C86.5692 72.84 87.2412 72.6373 87.7745 72.232C88.3078 71.8267 88.6598 71.304 88.8305 70.664H94.6225C94.3878 71.9227 93.8758 73.0533 93.0865 74.056C92.2972 75.0373 91.2945 75.816 90.0785 76.392C88.8625 76.9467 87.5078 77.224 86.0145 77.224C84.2652 77.224 82.7078 76.8613 81.3425 76.136C79.9985 75.3893 78.9425 74.3227 78.1745 72.936C77.4065 71.5493 77.0225 69.928 77.0225 68.072C77.0225 66.1947 77.3958 64.5733 78.1425 63.208C78.9105 61.8213 79.9772 60.7653 81.3425 60.04C82.7078 59.2933 84.2652 58.92 86.0145 58.92C87.7852 58.92 89.3425 59.2827 90.6865 60.008C92.0305 60.7333 93.0652 61.7573 93.7905 63.08C94.5372 64.3813 94.9105 65.8853 94.9105 67.592ZM89.3745 66.76C89.3958 65.5867 89.0758 64.712 88.4145 64.136C87.7745 63.5387 86.9745 63.24 86.0145 63.24C85.0118 63.24 84.1798 63.5387 83.5185 64.136C82.8572 64.7333 82.4838 65.608 82.3985 66.76H89.3745ZM104.259 58.92C106.52 58.92 108.323 59.4853 109.667 60.616C111.032 61.7467 111.886 63.24 112.227 65.096H107.107C106.958 64.3707 106.616 63.8053 106.083 63.4C105.571 62.9733 104.92 62.76 104.131 62.76C103.512 62.76 103.043 62.8987 102.723 63.176C102.403 63.432 102.243 63.8053 102.243 64.296C102.243 64.8507 102.531 65.2667 103.107 65.544C103.704 65.8213 104.632 66.0987 105.891 66.376C107.256 66.696 108.376 67.0267 109.251 67.368C110.126 67.688 110.883 68.2213 111.523 68.968C112.163 69.7147 112.483 70.7173 112.483 71.976C112.483 73 112.206 73.9067 111.651 74.696C111.096 75.4853 110.296 76.104 109.251 76.552C108.206 77 106.968 77.224 105.539 77.224C103.128 77.224 101.198 76.6907 99.747 75.624C98.2963 74.5573 97.411 73.032 97.091 71.048H102.371C102.456 71.816 102.776 72.4027 103.331 72.808C103.907 73.2133 104.643 73.416 105.539 73.416C106.158 73.416 106.627 73.2773 106.947 73C107.267 72.7013 107.427 72.3173 107.427 71.848C107.427 71.2293 107.128 70.792 106.531 70.536C105.955 70.2587 105.006 69.9707 103.683 69.672C102.36 69.3947 101.272 69.096 100.419 68.776C99.5657 68.456 98.8297 67.944 98.211 67.24C97.5923 66.5147 97.283 65.5333 97.283 64.296C97.283 62.696 97.891 61.4053 99.107 60.424C100.323 59.4213 102.04 58.92 104.259 58.92Z" fill="#172B4D"/>
<g clip-path="url(#clip2_39_313)">
<path d="M4.979 103.731C6.123 103.731 7.072 104.026 7.826 104.615C8.58 105.204 9.07833 106.006 9.321 107.02H7.397C7.19767 106.526 6.88567 106.136 6.461 105.85C6.045 105.564 5.54233 105.421 4.953 105.421C4.46767 105.421 4.03 105.542 3.64 105.785C3.25 106.028 2.94667 106.374 2.73 106.825C2.51333 107.276 2.405 107.804 2.405 108.411C2.405 109.009 2.51333 109.533 2.73 109.984C2.94667 110.435 3.25 110.781 3.64 111.024C4.03 111.267 4.46767 111.388 4.953 111.388C5.54233 111.388 6.045 111.245 6.461 110.959C6.88567 110.673 7.19767 110.283 7.397 109.789H9.321C9.07833 110.803 8.58 111.605 7.826 112.194C7.072 112.783 6.123 113.078 4.979 113.078C4.10367 113.078 3.328 112.883 2.652 112.493C1.98467 112.094 1.46467 111.54 1.092 110.829C0.728 110.118 0.546 109.312 0.546 108.411C0.546 107.501 0.728 106.691 1.092 105.98C1.46467 105.269 1.98467 104.719 2.652 104.329C3.31933 103.93 4.095 103.731 4.979 103.731ZM16.2863 111.154H12.6073L11.9573 113H10.0203L13.4003 103.926H15.4933L18.8603 113H16.9233L16.2863 111.154ZM15.7923 109.763L14.4403 105.889L13.0883 109.763H15.7923ZM27.6236 113H25.7906L21.6826 106.76V113H19.8496V103.822H21.6826L25.7906 110.114V103.822H27.6236V113ZM33.5852 103.692C34.4432 103.692 35.2189 103.891 35.9122 104.29C36.6142 104.689 37.1645 105.248 37.5632 105.967C37.9705 106.678 38.1742 107.484 38.1742 108.385C38.1742 109.286 37.9705 110.097 37.5632 110.816C37.1645 111.535 36.6142 112.094 35.9122 112.493C35.2189 112.892 34.4432 113.091 33.5852 113.091C32.7272 113.091 31.9472 112.892 31.2452 112.493C30.5519 112.094 30.0015 111.535 29.5942 110.816C29.1955 110.097 28.9962 109.286 28.9962 108.385C28.9962 107.484 29.1955 106.678 29.5942 105.967C30.0015 105.248 30.5519 104.689 31.2452 104.29C31.9472 103.891 32.7272 103.692 33.5852 103.692ZM33.5852 105.382C33.0479 105.382 32.5755 105.503 32.1682 105.746C31.7609 105.989 31.4402 106.34 31.2062 106.799C30.9809 107.25 30.8682 107.778 30.8682 108.385C30.8682 108.992 30.9809 109.525 31.2062 109.984C31.4402 110.435 31.7609 110.781 32.1682 111.024C32.5755 111.267 33.0479 111.388 33.5852 111.388C34.1225 111.388 34.5949 111.267 35.0022 111.024C35.4095 110.781 35.7259 110.435 35.9512 109.984C36.1852 109.525 36.3022 108.992 36.3022 108.385C36.3022 107.778 36.1852 107.25 35.9512 106.799C35.7259 106.34 35.4095 105.989 35.0022 105.746C34.5949 105.503 34.1225 105.382 33.5852 105.382ZM41.3857 109.594V113H39.5527V103.822H42.8937C43.977 103.822 44.7917 104.082 45.3377 104.602C45.8924 105.122 46.1697 105.828 46.1697 106.721C46.1697 107.596 45.8837 108.294 45.3117 108.814C44.7484 109.334 43.9424 109.594 42.8937 109.594H41.3857ZM42.6987 108.125C43.7734 108.125 44.3107 107.657 44.3107 106.721C44.3107 106.262 44.185 105.911 43.9337 105.668C43.6824 105.425 43.2707 105.304 42.6987 105.304H41.3857V108.125H42.6987ZM54.7573 103.822L51.6503 109.789V113H49.8043V109.789L46.6843 103.822H48.7903L50.7403 107.839L52.6903 103.822H54.7573Z" fill="#344563"/>
<circle cx="71" cy="108" r="4" fill="#C1C7D0"/>
<path d="M92.954 108.268C93.5087 108.381 93.9507 108.645 94.28 109.061C94.618 109.468 94.787 109.949 94.787 110.504C94.787 111.275 94.527 111.886 94.007 112.337C93.4957 112.779 92.7503 113 91.771 113H87.832V103.822H91.693C92.6203 103.822 93.331 104.026 93.825 104.433C94.3277 104.84 94.579 105.412 94.579 106.149C94.579 106.721 94.4273 107.189 94.124 107.553C93.8293 107.917 93.4393 108.155 92.954 108.268ZM89.665 107.67H91.316C91.7753 107.67 92.122 107.57 92.356 107.371C92.5987 107.163 92.72 106.868 92.72 106.487C92.72 106.106 92.603 105.811 92.369 105.603C92.135 105.395 91.7753 105.291 91.29 105.291H89.665V107.67ZM91.407 111.505C91.8923 111.505 92.265 111.401 92.525 111.193C92.785 110.976 92.915 110.664 92.915 110.257C92.915 109.85 92.7807 109.538 92.512 109.321C92.252 109.096 91.8793 108.983 91.394 108.983H89.665V111.505H91.407ZM98.8923 105.707C99.4989 105.707 100.019 105.85 100.452 106.136C100.886 106.422 101.193 106.808 101.375 107.293V105.798H103.195V113H101.375V111.492C101.193 111.977 100.886 112.367 100.452 112.662C100.019 112.948 99.4989 113.091 98.8923 113.091C98.2856 113.091 97.7396 112.944 97.2543 112.649C96.7689 112.354 96.3876 111.93 96.1103 111.375C95.8416 110.812 95.7073 110.153 95.7073 109.399C95.7073 108.645 95.8416 107.991 96.1103 107.436C96.3876 106.873 96.7689 106.444 97.2543 106.149C97.7396 105.854 98.2856 105.707 98.8923 105.707ZM99.4643 107.306C98.8923 107.306 98.4329 107.492 98.0863 107.865C97.7396 108.238 97.5663 108.749 97.5663 109.399C97.5663 110.049 97.7396 110.56 98.0863 110.933C98.4329 111.297 98.8923 111.479 99.4643 111.479C100.019 111.479 100.474 111.293 100.829 110.92C101.193 110.539 101.375 110.032 101.375 109.399C101.375 108.758 101.193 108.251 100.829 107.878C100.474 107.497 100.019 107.306 99.4643 107.306ZM108.093 105.707C109.021 105.707 109.792 105.958 110.407 106.461C111.031 106.964 111.421 107.648 111.577 108.515H109.64C109.562 108.134 109.385 107.835 109.107 107.618C108.83 107.393 108.479 107.28 108.054 107.28C107.569 107.28 107.162 107.462 106.832 107.826C106.512 108.181 106.351 108.706 106.351 109.399C106.351 110.092 106.512 110.621 106.832 110.985C107.162 111.34 107.569 111.518 108.054 111.518C108.479 111.518 108.83 111.41 109.107 111.193C109.385 110.968 109.562 110.664 109.64 110.283H111.577C111.421 111.15 111.031 111.834 110.407 112.337C109.792 112.84 109.021 113.091 108.093 113.091C107.391 113.091 106.767 112.944 106.221 112.649C105.675 112.346 105.251 111.917 104.947 111.362C104.644 110.807 104.492 110.153 104.492 109.399C104.492 108.645 104.644 107.991 104.947 107.436C105.251 106.873 105.675 106.444 106.221 106.149C106.767 105.854 107.391 105.707 108.093 105.707ZM117.092 113L114.713 109.854V113H112.88V103.38H114.713V108.788L117.079 105.798H119.25L116.221 109.386L119.328 113H117.092ZM124.882 105.278V107.657H128.132V109.061H124.882V111.531H128.522V113H123.049V103.822H128.522V105.278H124.882ZM134.169 105.694C135.001 105.694 135.664 105.967 136.158 106.513C136.652 107.059 136.899 107.826 136.899 108.814V113H135.079V109.022C135.079 108.45 134.932 108.008 134.637 107.696C134.342 107.375 133.939 107.215 133.428 107.215C132.908 107.215 132.492 107.384 132.18 107.722C131.868 108.06 131.712 108.545 131.712 109.178V113H129.879V105.798H131.712V107.241C131.903 106.756 132.215 106.379 132.648 106.11C133.09 105.833 133.597 105.694 134.169 105.694ZM141.333 105.707C141.939 105.707 142.455 105.85 142.88 106.136C143.313 106.422 143.625 106.808 143.816 107.293V103.38H145.636V113H143.816V111.492C143.625 111.977 143.313 112.367 142.88 112.662C142.455 112.948 141.939 113.091 141.333 113.091C140.726 113.091 140.18 112.944 139.695 112.649C139.209 112.354 138.828 111.93 138.551 111.375C138.282 110.812 138.148 110.153 138.148 109.399C138.148 108.645 138.282 107.991 138.551 107.436C138.828 106.873 139.209 106.444 139.695 106.149C140.18 105.854 140.726 105.707 141.333 105.707ZM141.905 107.306C141.333 107.306 140.873 107.492 140.527 107.865C140.18 108.238 140.007 108.749 140.007 109.399C140.007 110.049 140.18 110.56 140.527 110.933C140.873 111.297 141.333 111.479 141.905 111.479C142.459 111.479 142.914 111.293 143.27 110.92C143.634 110.539 143.816 110.032 143.816 109.399C143.816 108.758 143.634 108.251 143.27 107.878C142.914 107.497 142.459 107.306 141.905 107.306ZM158.201 108.398C158.201 109.308 158.01 110.11 157.629 110.803C157.248 111.496 156.693 112.038 155.965 112.428C155.246 112.809 154.388 113 153.391 113H150.128V103.822H153.391C154.388 103.822 155.246 104.013 155.965 104.394C156.693 104.767 157.248 105.3 157.629 105.993C158.01 106.678 158.201 107.479 158.201 108.398ZM153.235 111.362C154.223 111.362 154.986 111.102 155.523 110.582C156.069 110.062 156.342 109.334 156.342 108.398C156.342 107.453 156.069 106.721 155.523 106.201C154.986 105.681 154.223 105.421 153.235 105.421H151.961V111.362H153.235ZM166.346 109.126C166.346 109.308 166.325 109.516 166.281 109.75H161.003C161.029 110.391 161.203 110.864 161.523 111.167C161.844 111.47 162.243 111.622 162.719 111.622C163.144 111.622 163.495 111.518 163.772 111.31C164.058 111.102 164.24 110.82 164.318 110.465H166.255C166.16 110.968 165.956 111.418 165.644 111.817C165.332 112.216 164.929 112.528 164.435 112.753C163.95 112.978 163.408 113.091 162.81 113.091C162.108 113.091 161.484 112.944 160.938 112.649C160.392 112.346 159.968 111.917 159.664 111.362C159.361 110.807 159.209 110.153 159.209 109.399C159.209 108.645 159.361 107.991 159.664 107.436C159.968 106.873 160.392 106.444 160.938 106.149C161.484 105.854 162.108 105.707 162.81 105.707C163.521 105.707 164.141 105.854 164.669 106.149C165.207 106.444 165.618 106.851 165.904 107.371C166.199 107.882 166.346 108.467 166.346 109.126ZM164.5 108.944C164.526 108.355 164.37 107.908 164.032 107.605C163.703 107.302 163.296 107.15 162.81 107.15C162.316 107.15 161.9 107.302 161.562 107.605C161.224 107.908 161.038 108.355 161.003 108.944H164.5ZM170.78 111.167L172.6 105.798H174.55L171.885 113H169.649L166.984 105.798H168.947L170.78 111.167Z" fill="#7A869A"/>
<circle cx="191" cy="108" r="4" fill="#C1C7D0"/>
<path d="M207.481 111.557C210.419 109.52 211.888 107.83 211.888 106.487C211.888 106.08 211.788 105.759 211.589 105.525C211.398 105.291 211.095 105.174 210.679 105.174C209.821 105.174 209.366 105.759 209.314 106.929H207.533C207.585 105.846 207.914 105.027 208.521 104.472C209.128 103.909 209.895 103.627 210.822 103.627C211.767 103.627 212.49 103.874 212.993 104.368C213.504 104.853 213.76 105.503 213.76 106.318C213.76 106.959 213.569 107.605 213.188 108.255C212.815 108.896 212.339 109.49 211.758 110.036C211.177 110.573 210.566 111.037 209.925 111.427H213.942V112.922H207.481V111.557ZM214.974 108.333C214.974 111.444 216.144 113 218.484 113C219.724 113 220.616 112.584 221.162 111.752C221.708 110.92 221.981 109.78 221.981 108.333C221.981 106.894 221.708 105.759 221.162 104.927C220.616 104.095 219.724 103.679 218.484 103.679C216.144 103.679 214.974 105.23 214.974 108.333ZM220.174 108.333C220.174 109.278 220.057 110.006 219.823 110.517C219.598 111.02 219.152 111.271 218.484 111.271C217.808 111.271 217.353 111.02 217.119 110.517C216.894 110.006 216.781 109.278 216.781 108.333C216.781 107.397 216.894 106.678 217.119 106.175C217.353 105.664 217.808 105.408 218.484 105.408C219.152 105.408 219.598 105.664 219.823 106.175C220.057 106.678 220.174 107.397 220.174 108.333ZM222.733 105.538V103.822H226.035V113H224.111V105.538H222.733ZM234.044 105.252H229.689V107.566C229.888 107.332 230.161 107.146 230.508 107.007C230.863 106.86 231.253 106.786 231.678 106.786C232.311 106.786 232.835 106.925 233.251 107.202C233.676 107.471 233.988 107.835 234.187 108.294C234.395 108.745 234.499 109.247 234.499 109.802C234.499 110.781 234.222 111.566 233.667 112.155C233.121 112.744 232.337 113.039 231.314 113.039C230.647 113.039 230.066 112.922 229.572 112.688C229.078 112.445 228.692 112.112 228.415 111.687C228.138 111.254 227.986 110.751 227.96 110.179H229.741C229.81 110.569 229.971 110.881 230.222 111.115C230.473 111.34 230.807 111.453 231.223 111.453C231.726 111.453 232.098 111.301 232.341 110.998C232.592 110.686 232.718 110.274 232.718 109.763C232.718 109.278 232.588 108.901 232.328 108.632C232.068 108.363 231.7 108.229 231.223 108.229C230.876 108.229 230.582 108.307 230.339 108.463C230.096 108.61 229.919 108.81 229.806 109.061H228.025V103.64H234.044V105.252Z" fill="#7A869A"/>
</g>
</g>
<path d="M7.29 150.555H2.64L1.755 153H0.285L4.2 142.62H5.745L9.645 153H8.175L7.29 150.555ZM6.9 149.49L4.965 144.15L3.03 149.49H6.9ZM18.1077 144.66C18.9077 144.66 19.5827 144.86 20.1327 145.26C20.6927 145.66 21.0827 146.195 21.3027 146.865V141.9H22.6677V153H21.3027V150.9C21.0827 151.57 20.6927 152.105 20.1327 152.505C19.5827 152.905 18.9077 153.105 18.1077 153.105C17.3777 153.105 16.7277 152.935 16.1577 152.595C15.5877 152.255 15.1377 151.77 14.8077 151.14C14.4877 150.5 14.3277 149.75 14.3277 148.89C14.3277 148.03 14.4877 147.28 14.8077 146.64C15.1377 146 15.5877 145.51 16.1577 145.17C16.7277 144.83 17.3777 144.66 18.1077 144.66ZM18.4977 145.875C17.6577 145.875 16.9827 146.145 16.4727 146.685C15.9727 147.215 15.7227 147.95 15.7227 148.89C15.7227 149.83 15.9727 150.57 16.4727 151.11C16.9827 151.64 17.6577 151.905 18.4977 151.905C19.0377 151.905 19.5177 151.78 19.9377 151.53C20.3677 151.28 20.7027 150.93 20.9427 150.48C21.1827 150.02 21.3027 149.49 21.3027 148.89C21.3027 148.29 21.1827 147.76 20.9427 147.3C20.7027 146.84 20.3677 146.49 19.9377 146.25C19.5177 146 19.0377 145.875 18.4977 145.875ZM28.2151 144.66C29.0151 144.66 29.6901 144.86 30.2401 145.26C30.8001 145.66 31.1901 146.195 31.4101 146.865V144.765H32.7751V153H31.4101V150.9C31.1901 151.57 30.8001 152.105 30.2401 152.505C29.6901 152.905 29.0151 153.105 28.2151 153.105C27.4851 153.105 26.8351 152.935 26.2651 152.595C25.6951 152.255 25.2451 151.77 24.9151 151.14C24.5951 150.5 24.4351 149.75 24.4351 148.89C24.4351 148.03 24.5951 147.28 24.9151 146.64C25.2451 146 25.6951 145.51 26.2651 145.17C26.8351 144.83 27.4851 144.66 28.2151 144.66ZM28.6051 145.875C27.7651 145.875 27.0901 146.145 26.5801 146.685C26.0801 147.215 25.8301 147.95 25.8301 148.89C25.8301 149.83 26.0801 150.57 26.5801 151.11C27.0901 151.64 27.7651 151.905 28.6051 151.905C29.1451 151.905 29.6251 151.78 30.0451 151.53C30.4751 151.28 30.8101 150.93 31.0501 150.48C31.2901 150.02 31.4101 149.49 31.4101 148.89C31.4101 148.29 31.2901 147.76 31.0501 147.3C30.8101 146.84 30.4751 146.49 30.0451 146.25C29.6251 146 29.1451 145.875 28.6051 145.875ZM34.7075 142.35C34.7075 142.1 34.7925 141.9 34.9625 141.75C35.1325 141.59 35.3575 141.51 35.6375 141.51C35.9175 141.51 36.1425 141.59 36.3125 141.75C36.4825 141.9 36.5675 142.1 36.5675 142.35C36.5675 142.6 36.4825 142.805 36.3125 142.965C36.1425 143.115 35.9175 143.19 35.6375 143.19C35.3575 143.19 35.1325 143.115 34.9625 142.965C34.7925 142.805 34.7075 142.6 34.7075 142.35ZM36.3125 144.765V153H34.9475V144.765H36.3125ZM39.8721 141.9V153H38.5071V141.9H39.8721ZM42.6367 144.765L45.3067 151.245L47.7817 144.765H49.2967L44.4067 156.9H42.8617L44.5717 152.865L41.1067 144.765H42.6367ZM56.8342 144.66C57.7642 144.66 58.5092 144.905 59.0692 145.395C59.6392 145.875 59.9842 146.525 60.1042 147.345H58.7992C58.7392 146.855 58.5342 146.455 58.1842 146.145C57.8442 145.825 57.3842 145.665 56.8042 145.665C56.3142 145.665 55.9292 145.785 55.6492 146.025C55.3792 146.255 55.2442 146.57 55.2442 146.97C55.2442 147.27 55.3342 147.515 55.5142 147.705C55.7042 147.885 55.9342 148.025 56.2042 148.125C56.4842 148.215 56.8642 148.315 57.3442 148.425C57.9542 148.565 58.4442 148.71 58.8142 148.86C59.1942 149 59.5142 149.23 59.7742 149.55C60.0442 149.87 60.1792 150.3 60.1792 150.84C60.1792 151.51 59.9242 152.055 59.4142 152.475C58.9142 152.895 58.2442 153.105 57.4042 153.105C56.4242 153.105 55.6242 152.87 55.0042 152.4C54.3842 151.93 54.0192 151.275 53.9092 150.435H55.2292C55.2792 150.935 55.4942 151.34 55.8742 151.65C56.2642 151.96 56.7742 152.115 57.4042 152.115C57.8742 152.115 58.2392 151.995 58.4992 151.755C58.7692 151.515 58.9042 151.2 58.9042 150.81C58.9042 150.49 58.8092 150.235 58.6192 150.045C58.4292 149.855 58.1942 149.71 57.9142 149.61C57.6342 149.51 57.2492 149.405 56.7592 149.295C56.1492 149.155 55.6592 149.015 55.2892 148.875C54.9292 148.735 54.6192 148.515 54.3592 148.215C54.1092 147.905 53.9842 147.49 53.9842 146.97C53.9842 146.28 54.2392 145.725 54.7492 145.305C55.2592 144.875 55.9542 144.66 56.8342 144.66ZM69.5782 148.425C69.5782 148.715 69.5582 148.965 69.5182 149.175H62.9332C62.9632 150.115 63.2282 150.82 63.7282 151.29C64.2382 151.76 64.8582 151.995 65.5882 151.995C66.2482 151.995 66.7982 151.83 67.2382 151.5C67.6882 151.16 67.9632 150.71 68.0632 150.15H69.5182C69.4182 150.72 69.1932 151.23 68.8432 151.68C68.5032 152.13 68.0582 152.48 67.5082 152.73C66.9582 152.98 66.3382 153.105 65.6482 153.105C64.8582 153.105 64.1582 152.935 63.5482 152.595C62.9382 152.255 62.4582 151.77 62.1082 151.14C61.7682 150.5 61.5982 149.75 61.5982 148.89C61.5982 148.03 61.7682 147.28 62.1082 146.64C62.4582 146 62.9382 145.51 63.5482 145.17C64.1582 144.83 64.8582 144.66 65.6482 144.66C66.4482 144.66 67.1432 144.83 67.7332 145.17C68.3332 145.51 68.7882 145.965 69.0982 146.535C69.4182 147.105 69.5782 147.735 69.5782 148.425ZM68.1982 148.515C68.2282 147.905 68.1282 147.395 67.8982 146.985C67.6682 146.575 67.3532 146.27 66.9532 146.07C66.5532 145.87 66.1182 145.77 65.6482 145.77C64.8982 145.77 64.2682 146.005 63.7582 146.475C63.2482 146.935 62.9732 147.615 62.9332 148.515H68.1982ZM72.7286 141.9V153H71.3636V141.9H72.7286ZM82.4981 148.425C82.4981 148.715 82.4781 148.965 82.4381 149.175H75.8531C75.8831 150.115 76.1481 150.82 76.6481 151.29C77.1581 151.76 77.7781 151.995 78.5081 151.995C79.1681 151.995 79.7181 151.83 80.1581 151.5C80.6081 151.16 80.8831 150.71 80.9831 150.15H82.4381C82.3381 150.72 82.1131 151.23 81.7631 151.68C81.4231 152.13 80.9781 152.48 80.4281 152.73C79.8781 152.98 79.2581 153.105 78.5681 153.105C77.7781 153.105 77.0781 152.935 76.4681 152.595C75.8581 152.255 75.3781 151.77 75.0281 151.14C74.6881 150.5 74.5181 149.75 74.5181 148.89C74.5181 148.03 74.6881 147.28 75.0281 146.64C75.3781 146 75.8581 145.51 76.4681 145.17C77.0781 144.83 77.7781 144.66 78.5681 144.66C79.3681 144.66 80.0631 144.83 80.6531 145.17C81.2531 145.51 81.7081 145.965 82.0181 146.535C82.3381 147.105 82.4981 147.735 82.4981 148.425ZM81.1181 148.515C81.1481 147.905 81.0481 147.395 80.8181 146.985C80.5881 146.575 80.2731 146.27 79.8731 146.07C79.4731 145.87 79.0381 145.77 78.5681 145.77C77.8181 145.77 77.1881 146.005 76.6781 146.475C76.1681 146.935 75.8931 147.615 75.8531 148.515H81.1181ZM87.9285 144.66C88.9785 144.66 89.8485 144.94 90.5385 145.5C91.2285 146.06 91.6535 146.81 91.8135 147.75H90.3735C90.2735 147.16 89.9985 146.7 89.5485 146.37C89.1085 146.03 88.5585 145.86 87.8985 145.86C87.4185 145.86 86.9785 145.97 86.5785 146.19C86.1885 146.41 85.8735 146.75 85.6335 147.21C85.3935 147.66 85.2735 148.22 85.2735 148.89C85.2735 149.56 85.3935 150.125 85.6335 150.585C85.8735 151.035 86.1885 151.37 86.5785 151.59C86.9785 151.81 87.4185 151.92 87.8985 151.92C88.5585 151.92 89.1085 151.75 89.5485 151.41C89.9985 151.07 90.2735 150.605 90.3735 150.015H91.8135C91.6535 150.965 91.2285 151.72 90.5385 152.28C89.8485 152.83 88.9785 153.105 87.9285 153.105C87.1385 153.105 86.4385 152.935 85.8285 152.595C85.2185 152.255 84.7385 151.77 84.3885 151.14C84.0485 150.5 83.8785 149.75 83.8785 148.89C83.8785 148.03 84.0485 147.28 84.3885 146.64C84.7385 146 85.2185 145.51 85.8285 145.17C86.4385 144.83 87.1385 144.66 87.9285 144.66ZM97.5299 151.8V153H96.5099C95.6699 153 95.0399 152.8 94.6199 152.4C94.2099 152 94.0049 151.33 94.0049 150.39V145.95H92.7749V144.765H94.0049V142.71H95.3849V144.765H97.5149V145.95H95.3849V150.42C95.3849 150.95 95.4799 151.315 95.6699 151.515C95.8699 151.705 96.2099 151.8 96.6899 151.8H97.5299ZM98.9556 142.35C98.9556 142.1 99.0406 141.9 99.2106 141.75C99.3806 141.59 99.6056 141.51 99.8856 141.51C100.166 141.51 100.391 141.59 100.561 141.75C100.731 141.9 100.816 142.1 100.816 142.35C100.816 142.6 100.731 142.805 100.561 142.965C100.391 143.115 100.166 143.19 99.8856 143.19C99.6056 143.19 99.3806 143.115 99.2106 142.965C99.0406 142.805 98.9556 142.6 98.9556 142.35ZM100.561 144.765V153H99.1956V144.765H100.561ZM106.49 144.66C107.28 144.66 107.985 144.83 108.605 145.17C109.235 145.51 109.725 146 110.075 146.64C110.435 147.28 110.615 148.03 110.615 148.89C110.615 149.75 110.435 150.5 110.075 151.14C109.725 151.77 109.235 152.255 108.605 152.595C107.985 152.935 107.28 153.105 106.49 153.105C105.7 153.105 104.99 152.935 104.36 152.595C103.74 152.255 103.25 151.77 102.89 151.14C102.53 150.5 102.35 149.75 102.35 148.89C102.35 148.03 102.53 147.28 102.89 146.64C103.25 146 103.74 145.51 104.36 145.17C104.99 144.83 105.7 144.66 106.49 144.66ZM106.49 145.86C106 145.86 105.545 145.97 105.125 146.19C104.715 146.41 104.38 146.75 104.12 147.21C103.87 147.66 103.745 148.22 103.745 148.89C103.745 149.55 103.87 150.11 104.12 150.57C104.38 151.02 104.715 151.355 105.125 151.575C105.545 151.795 106 151.905 106.49 151.905C106.98 151.905 107.43 151.795 107.84 151.575C108.26 151.355 108.595 151.02 108.845 150.57C109.105 150.11 109.235 149.55 109.235 148.89C109.235 148.22 109.105 147.66 108.845 147.21C108.595 146.75 108.26 146.41 107.84 146.19C107.43 145.97 106.98 145.86 106.49 145.86ZM116.729 144.63C117.689 144.63 118.464 144.94 119.054 145.56C119.644 146.17 119.939 147.055 119.939 148.215V153H118.574V148.335C118.574 147.515 118.364 146.885 117.944 146.445C117.524 146.005 116.954 145.785 116.234 145.785C115.484 145.785 114.884 146.03 114.434 146.52C113.984 147 113.759 147.705 113.759 148.635V153H112.394V144.765H113.759V146.715C113.969 146.045 114.339 145.53 114.869 145.17C115.409 144.81 116.029 144.63 116.729 144.63ZM129.474 144.66C130.264 144.66 130.969 144.83 131.589 145.17C132.219 145.51 132.709 146 133.059 146.64C133.419 147.28 133.599 148.03 133.599 148.89C133.599 149.75 133.419 150.5 133.059 151.14C132.709 151.77 132.219 152.255 131.589 152.595C130.969 152.935 130.264 153.105 129.474 153.105C128.684 153.105 127.974 152.935 127.344 152.595C126.724 152.255 126.234 151.77 125.874 151.14C125.514 150.5 125.334 149.75 125.334 148.89C125.334 148.03 125.514 147.28 125.874 146.64C126.234 146 126.724 145.51 127.344 145.17C127.974 144.83 128.684 144.66 129.474 144.66ZM129.474 145.86C128.984 145.86 128.529 145.97 128.109 146.19C127.699 146.41 127.364 146.75 127.104 147.21C126.854 147.66 126.729 148.22 126.729 148.89C126.729 149.55 126.854 150.11 127.104 150.57C127.364 151.02 127.699 151.355 128.109 151.575C128.529 151.795 128.984 151.905 129.474 151.905C129.964 151.905 130.414 151.795 130.824 151.575C131.244 151.355 131.579 151.02 131.829 150.57C132.089 150.11 132.219 149.55 132.219 148.89C132.219 148.22 132.089 147.66 131.829 147.21C131.579 146.75 131.244 146.41 130.824 146.19C130.414 145.97 129.964 145.86 129.474 145.86ZM139.022 142.815C138.292 142.805 137.782 142.93 137.492 143.19C137.212 143.45 137.072 143.9 137.072 144.54V144.765H139.022V145.965H137.072V153H135.707V145.965H134.522V144.765H135.707V144.435C135.707 142.465 136.812 141.525 139.022 141.615V142.815ZM148.755 144.66C149.485 144.66 150.135 144.83 150.705 145.17C151.275 145.51 151.72 146 152.04 146.64C152.37 147.28 152.535 148.03 152.535 148.89C152.535 149.75 152.37 150.5 152.04 151.14C151.72 151.77 151.275 152.255 150.705 152.595C150.135 152.935 149.485 153.105 148.755 153.105C147.955 153.105 147.275 152.905 146.715 152.505C146.165 152.095 145.785 151.56 145.575 150.9V156.9H144.21V144.765H145.575V146.865C145.785 146.205 146.165 145.675 146.715 145.275C147.275 144.865 147.955 144.66 148.755 144.66ZM148.365 145.875C147.835 145.875 147.355 146 146.925 146.25C146.495 146.49 146.16 146.84 145.92 147.3C145.68 147.76 145.56 148.29 145.56 148.89C145.56 149.49 145.68 150.02 145.92 150.48C146.16 150.93 146.495 151.28 146.925 151.53C147.355 151.78 147.835 151.905 148.365 151.905C149.215 151.905 149.89 151.64 150.39 151.11C150.9 150.57 151.155 149.83 151.155 148.89C151.155 147.95 150.9 147.215 150.39 146.685C149.89 146.145 149.215 145.875 148.365 145.875ZM155.683 146.43C155.953 145.86 156.348 145.42 156.868 145.11C157.388 144.79 158.008 144.63 158.728 144.63V146.115H158.308C157.538 146.115 156.908 146.315 156.418 146.715C155.928 147.105 155.683 147.755 155.683 148.665V153H154.318V144.765H155.683V146.43ZM159.834 142.35C159.834 142.1 159.919 141.9 160.089 141.75C160.259 141.59 160.484 141.51 160.764 141.51C161.044 141.51 161.269 141.59 161.439 141.75C161.609 141.9 161.694 142.1 161.694 142.35C161.694 142.6 161.609 142.805 161.439 142.965C161.269 143.115 161.044 143.19 160.764 143.19C160.484 143.19 160.259 143.115 160.089 142.965C159.919 142.805 159.834 142.6 159.834 142.35ZM161.439 144.765V153H160.074V144.765H161.439ZM166.829 151.545L169.379 144.765H170.849L167.624 153H166.004L162.779 144.765H164.249L166.829 151.545ZM175.564 144.66C176.364 144.66 177.039 144.86 177.589 145.26C178.149 145.66 178.539 146.195 178.759 146.865V144.765H180.124V153H178.759V150.9C178.539 151.57 178.149 152.105 177.589 152.505C177.039 152.905 176.364 153.105 175.564 153.105C174.834 153.105 174.184 152.935 173.614 152.595C173.044 152.255 172.594 151.77 172.264 151.14C171.944 150.5 171.784 149.75 171.784 148.89C171.784 148.03 171.944 147.28 172.264 146.64C172.594 146 173.044 145.51 173.614 145.17C174.184 144.83 174.834 144.66 175.564 144.66ZM175.954 145.875C175.114 145.875 174.439 146.145 173.929 146.685C173.429 147.215 173.179 147.95 173.179 148.89C173.179 149.83 173.429 150.57 173.929 151.11C174.439 151.64 175.114 151.905 175.954 151.905C176.494 151.905 176.974 151.78 177.394 151.53C177.824 151.28 178.159 150.93 178.399 150.48C178.639 150.02 178.759 149.49 178.759 148.89C178.759 148.29 178.639 147.76 178.399 147.3C178.159 146.84 177.824 146.49 177.394 146.25C176.974 146 176.494 145.875 175.954 145.875ZM186.226 151.8V153H185.206C184.366 153 183.736 152.8 183.316 152.4C182.906 152 182.701 151.33 182.701 150.39V145.95H181.471V144.765H182.701V142.71H184.081V144.765H186.211V145.95H184.081V150.42C184.081 150.95 184.176 151.315 184.366 151.515C184.566 151.705 184.906 151.8 185.386 151.8H186.226ZM195.467 148.425C195.467 148.715 195.447 148.965 195.407 149.175H188.822C188.852 150.115 189.117 150.82 189.617 151.29C190.127 151.76 190.747 151.995 191.477 151.995C192.137 151.995 192.687 151.83 193.127 151.5C193.577 151.16 193.852 150.71 193.952 150.15H195.407C195.307 150.72 195.082 151.23 194.732 151.68C194.392 152.13 193.947 152.48 193.397 152.73C192.847 152.98 192.227 153.105 191.537 153.105C190.747 153.105 190.047 152.935 189.437 152.595C188.827 152.255 188.347 151.77 187.997 151.14C187.657 150.5 187.487 149.75 187.487 148.89C187.487 148.03 187.657 147.28 187.997 146.64C188.347 146 188.827 145.51 189.437 145.17C190.047 144.83 190.747 144.66 191.537 144.66C192.337 144.66 193.032 144.83 193.622 145.17C194.222 145.51 194.677 145.965 194.987 146.535C195.307 147.105 195.467 147.735 195.467 148.425ZM194.087 148.515C194.117 147.905 194.017 147.395 193.787 146.985C193.557 146.575 193.242 146.27 192.842 146.07C192.442 145.87 192.007 145.77 191.537 145.77C190.787 145.77 190.157 146.005 189.647 146.475C189.137 146.935 188.862 147.615 188.822 148.515H194.087ZM198.617 141.9V153H197.252V141.9H198.617ZM201.382 144.765L204.052 151.245L206.527 144.765H208.042L203.152 156.9H201.607L203.317 152.865L199.852 144.765H201.382ZM5.64 168.66C6.37 168.66 7.02 168.83 7.59 169.17C8.16 169.51 8.605 170 8.925 170.64C9.255 171.28 9.42 172.03 9.42 172.89C9.42 173.75 9.255 174.5 8.925 175.14C8.605 175.77 8.16 176.255 7.59 176.595C7.02 176.935 6.37 177.105 5.64 177.105C4.84 177.105 4.16 176.905 3.6 176.505C3.05 176.095 2.67 175.56 2.46 174.9V180.9H1.095V168.765H2.46V170.865C2.67 170.205 3.05 169.675 3.6 169.275C4.16 168.865 4.84 168.66 5.64 168.66ZM5.25 169.875C4.72 169.875 4.24 170 3.81 170.25C3.38 170.49 3.045 170.84 2.805 171.3C2.565 171.76 2.445 172.29 2.445 172.89C2.445 173.49 2.565 174.02 2.805 174.48C3.045 174.93 3.38 175.28 3.81 175.53C4.24 175.78 4.72 175.905 5.25 175.905C6.1 175.905 6.775 175.64 7.275 175.11C7.785 174.57 8.04 173.83 8.04 172.89C8.04 171.95 7.785 171.215 7.275 170.685C6.775 170.145 6.1 169.875 5.25 169.875ZM18.7774 172.425C18.7774 172.715 18.7574 172.965 18.7174 173.175H12.1324C12.1624 174.115 12.4274 174.82 12.9274 175.29C13.4374 175.76 14.0574 175.995 14.7874 175.995C15.4474 175.995 15.9974 175.83 16.4374 175.5C16.8874 175.16 17.1624 174.71 17.2624 174.15H18.7174C18.6174 174.72 18.3924 175.23 18.0424 175.68C17.7024 176.13 17.2574 176.48 16.7074 176.73C16.1574 176.98 15.5374 177.105 14.8474 177.105C14.0574 177.105 13.3574 176.935 12.7474 176.595C12.1374 176.255 11.6574 175.77 11.3074 175.14C10.9674 174.5 10.7974 173.75 10.7974 172.89C10.7974 172.03 10.9674 171.28 11.3074 170.64C11.6574 170 12.1374 169.51 12.7474 169.17C13.3574 168.83 14.0574 168.66 14.8474 168.66C15.6474 168.66 16.3424 168.83 16.9324 169.17C17.5324 169.51 17.9874 169.965 18.2974 170.535C18.6174 171.105 18.7774 171.735 18.7774 172.425ZM17.3974 172.515C17.4274 171.905 17.3274 171.395 17.0974 170.985C16.8674 170.575 16.5524 170.27 16.1524 170.07C15.7524 169.87 15.3174 169.77 14.8474 169.77C14.0974 169.77 13.4674 170.005 12.9574 170.475C12.4474 170.935 12.1724 171.615 12.1324 172.515H17.3974ZM21.9278 170.43C22.1978 169.86 22.5928 169.42 23.1128 169.11C23.6328 168.79 24.2528 168.63 24.9728 168.63V170.115H24.5528C23.7828 170.115 23.1528 170.315 22.6628 170.715C22.1728 171.105 21.9278 171.755 21.9278 172.665V177H20.5628V168.765H21.9278V170.43ZM28.8996 168.66C29.8296 168.66 30.5746 168.905 31.1346 169.395C31.7046 169.875 32.0496 170.525 32.1696 171.345H30.8646C30.8046 170.855 30.5996 170.455 30.2496 170.145C29.9096 169.825 29.4496 169.665 28.8696 169.665C28.3796 169.665 27.9946 169.785 27.7146 170.025C27.4446 170.255 27.3096 170.57 27.3096 170.97C27.3096 171.27 27.3996 171.515 27.5796 171.705C27.7696 171.885 27.9996 172.025 28.2696 172.125C28.5496 172.215 28.9296 172.315 29.4096 172.425C30.0196 172.565 30.5096 172.71 30.8796 172.86C31.2596 173 31.5796 173.23 31.8396 173.55C32.1096 173.87 32.2446 174.3 32.2446 174.84C32.2446 175.51 31.9896 176.055 31.4796 176.475C30.9796 176.895 30.3096 177.105 29.4696 177.105C28.4896 177.105 27.6896 176.87 27.0696 176.4C26.4496 175.93 26.0846 175.275 25.9746 174.435H27.2946C27.3446 174.935 27.5596 175.34 27.9396 175.65C28.3296 175.96 28.8396 176.115 29.4696 176.115C29.9396 176.115 30.3046 175.995 30.5646 175.755C30.8346 175.515 30.9696 175.2 30.9696 174.81C30.9696 174.49 30.8746 174.235 30.6846 174.045C30.4946 173.855 30.2596 173.71 29.9796 173.61C29.6996 173.51 29.3146 173.405 28.8246 173.295C28.2146 173.155 27.7246 173.015 27.3546 172.875C26.9946 172.735 26.6846 172.515 26.4246 172.215C26.1746 171.905 26.0496 171.49 26.0496 170.97C26.0496 170.28 26.3046 169.725 26.8146 169.305C27.3246 168.875 28.0196 168.66 28.8996 168.66ZM37.8036 168.66C38.5936 168.66 39.2986 168.83 39.9186 169.17C40.5486 169.51 41.0386 170 41.3886 170.64C41.7486 171.28 41.9286 172.03 41.9286 172.89C41.9286 173.75 41.7486 174.5 41.3886 175.14C41.0386 175.77 40.5486 176.255 39.9186 176.595C39.2986 176.935 38.5936 177.105 37.8036 177.105C37.0136 177.105 36.3036 176.935 35.6736 176.595C35.0536 176.255 34.5636 175.77 34.2036 175.14C33.8436 174.5 33.6636 173.75 33.6636 172.89C33.6636 172.03 33.8436 171.28 34.2036 170.64C34.5636 170 35.0536 169.51 35.6736 169.17C36.3036 168.83 37.0136 168.66 37.8036 168.66ZM37.8036 169.86C37.3136 169.86 36.8586 169.97 36.4386 170.19C36.0286 170.41 35.6936 170.75 35.4336 171.21C35.1836 171.66 35.0586 172.22 35.0586 172.89C35.0586 173.55 35.1836 174.11 35.4336 174.57C35.6936 175.02 36.0286 175.355 36.4386 175.575C36.8586 175.795 37.3136 175.905 37.8036 175.905C38.2936 175.905 38.7436 175.795 39.1536 175.575C39.5736 175.355 39.9086 175.02 40.1586 174.57C40.4186 174.11 40.5486 173.55 40.5486 172.89C40.5486 172.22 40.4186 171.66 40.1586 171.21C39.9086 170.75 39.5736 170.41 39.1536 170.19C38.7436 169.97 38.2936 169.86 37.8036 169.86ZM48.0423 168.63C49.0023 168.63 49.7773 168.94 50.3673 169.56C50.9573 170.17 51.2523 171.055 51.2523 172.215V177H49.8873V172.335C49.8873 171.515 49.6773 170.885 49.2573 170.445C48.8373 170.005 48.2673 169.785 47.5473 169.785C46.7973 169.785 46.1973 170.03 45.7473 170.52C45.2973 171 45.0723 171.705 45.0723 172.635V177H43.7073V168.765H45.0723V170.715C45.2823 170.045 45.6523 169.53 46.1823 169.17C46.7223 168.81 47.3423 168.63 48.0423 168.63ZM56.721 168.66C57.521 168.66 58.196 168.86 58.746 169.26C59.306 169.66 59.696 170.195 59.916 170.865V168.765H61.281V177H59.916V174.9C59.696 175.57 59.306 176.105 58.746 176.505C58.196 176.905 57.521 177.105 56.721 177.105C55.991 177.105 55.341 176.935 54.771 176.595C54.201 176.255 53.751 175.77 53.421 175.14C53.101 174.5 52.941 173.75 52.941 172.89C52.941 172.03 53.101 171.28 53.421 170.64C53.751 170 54.201 169.51 54.771 169.17C55.341 168.83 55.991 168.66 56.721 168.66ZM57.111 169.875C56.271 169.875 55.596 170.145 55.086 170.685C54.586 171.215 54.336 171.95 54.336 172.89C54.336 173.83 54.586 174.57 55.086 175.11C55.596 175.64 56.271 175.905 57.111 175.905C57.651 175.905 58.131 175.78 58.551 175.53C58.981 175.28 59.316 174.93 59.556 174.48C59.796 174.02 59.916 173.49 59.916 172.89C59.916 172.29 59.796 171.76 59.556 171.3C59.316 170.84 58.981 170.49 58.551 170.25C58.131 170 57.651 169.875 57.111 169.875ZM64.8184 165.9V177H63.4534V165.9H64.8184ZM66.773 166.35C66.773 166.1 66.858 165.9 67.028 165.75C67.198 165.59 67.423 165.51 67.703 165.51C67.983 165.51 68.208 165.59 68.378 165.75C68.548 165.9 68.633 166.1 68.633 166.35C68.633 166.6 68.548 166.805 68.378 166.965C68.208 167.115 67.983 167.19 67.703 167.19C67.423 167.19 67.198 167.115 67.028 166.965C66.858 166.805 66.773 166.6 66.773 166.35ZM68.378 168.765V177H67.013V168.765H68.378ZM71.3675 175.845H75.7775V177H69.8675V175.905L74.0675 169.92H69.9875V168.765H75.6275V169.875L71.3675 175.845ZM84.8419 172.425C84.8419 172.715 84.8219 172.965 84.7819 173.175H78.1969C78.2269 174.115 78.4919 174.82 78.9919 175.29C79.5019 175.76 80.1219 175.995 80.8519 175.995C81.5119 175.995 82.0619 175.83 82.5019 175.5C82.9519 175.16 83.2269 174.71 83.3269 174.15H84.7819C84.6819 174.72 84.4569 175.23 84.1069 175.68C83.7669 176.13 83.3219 176.48 82.7719 176.73C82.2219 176.98 81.6019 177.105 80.9119 177.105C80.1219 177.105 79.4219 176.935 78.8119 176.595C78.2019 176.255 77.7219 175.77 77.3719 175.14C77.0319 174.5 76.8619 173.75 76.8619 172.89C76.8619 172.03 77.0319 171.28 77.3719 170.64C77.7219 170 78.2019 169.51 78.8119 169.17C79.4219 168.83 80.1219 168.66 80.9119 168.66C81.7119 168.66 82.4069 168.83 82.9969 169.17C83.5969 169.51 84.0519 169.965 84.3619 170.535C84.6819 171.105 84.8419 171.735 84.8419 172.425ZM83.4619 172.515C83.4919 171.905 83.3919 171.395 83.1619 170.985C82.9319 170.575 82.6169 170.27 82.2169 170.07C81.8169 169.87 81.3819 169.77 80.9119 169.77C80.1619 169.77 79.5319 170.005 79.0219 170.475C78.5119 170.935 78.2369 171.615 78.1969 172.515H83.4619ZM90.0022 168.66C90.8022 168.66 91.4772 168.86 92.0272 169.26C92.5872 169.66 92.9772 170.195 93.1972 170.865V165.9H94.5622V177H93.1972V174.9C92.9772 175.57 92.5872 176.105 92.0272 176.505C91.4772 176.905 90.8022 177.105 90.0022 177.105C89.2722 177.105 88.6222 176.935 88.0522 176.595C87.4822 176.255 87.0322 175.77 86.7022 175.14C86.3822 174.5 86.2222 173.75 86.2222 172.89C86.2222 172.03 86.3822 171.28 86.7022 170.64C87.0322 170 87.4822 169.51 88.0522 169.17C88.6222 168.83 89.2722 168.66 90.0022 168.66ZM90.3922 169.875C89.5522 169.875 88.8772 170.145 88.3672 170.685C87.8672 171.215 87.6172 171.95 87.6172 172.89C87.6172 173.83 87.8672 174.57 88.3672 175.11C88.8772 175.64 89.5522 175.905 90.3922 175.905C90.9322 175.905 91.4122 175.78 91.8322 175.53C92.2622 175.28 92.5972 174.93 92.8372 174.48C93.0772 174.02 93.1972 173.49 93.1972 172.89C93.1972 172.29 93.0772 171.76 92.8372 171.3C92.5972 170.84 92.2622 170.49 91.8322 170.25C91.4122 170 90.9322 169.875 90.3922 169.875ZM101.806 170.43C102.076 169.86 102.471 169.42 102.991 169.11C103.511 168.79 104.131 168.63 104.851 168.63V170.115H104.431C103.661 170.115 103.031 170.315 102.541 170.715C102.051 171.105 101.806 171.755 101.806 172.665V177H100.441V168.765H101.806V170.43ZM113.773 172.425C113.773 172.715 113.753 172.965 113.713 173.175H107.128C107.158 174.115 107.423 174.82 107.923 175.29C108.433 175.76 109.053 175.995 109.783 175.995C110.443 175.995 110.993 175.83 111.433 175.5C111.883 175.16 112.158 174.71 112.258 174.15H113.713C113.613 174.72 113.388 175.23 113.038 175.68C112.698 176.13 112.253 176.48 111.703 176.73C111.153 176.98 110.533 177.105 109.843 177.105C109.053 177.105 108.353 176.935 107.743 176.595C107.133 176.255 106.653 175.77 106.303 175.14C105.963 174.5 105.793 173.75 105.793 172.89C105.793 172.03 105.963 171.28 106.303 170.64C106.653 170 107.133 169.51 107.743 169.17C108.353 168.83 109.053 168.66 109.843 168.66C110.643 168.66 111.338 168.83 111.928 169.17C112.528 169.51 112.983 169.965 113.293 170.535C113.613 171.105 113.773 171.735 113.773 172.425ZM112.393 172.515C112.423 171.905 112.323 171.395 112.093 170.985C111.863 170.575 111.548 170.27 111.148 170.07C110.748 169.87 110.313 169.77 109.843 169.77C109.093 169.77 108.463 170.005 107.953 170.475C107.443 170.935 107.168 171.615 107.128 172.515H112.393ZM118.933 168.66C119.733 168.66 120.408 168.86 120.958 169.26C121.518 169.66 121.908 170.195 122.128 170.865V168.765H123.493V177H122.128V174.9C121.908 175.57 121.518 176.105 120.958 176.505C120.408 176.905 119.733 177.105 118.933 177.105C118.203 177.105 117.553 176.935 116.983 176.595C116.413 176.255 115.963 175.77 115.633 175.14C115.313 174.5 115.153 173.75 115.153 172.89C115.153 172.03 115.313 171.28 115.633 170.64C115.963 170 116.413 169.51 116.983 169.17C117.553 168.83 118.203 168.66 118.933 168.66ZM119.323 169.875C118.483 169.875 117.808 170.145 117.298 170.685C116.798 171.215 116.548 171.95 116.548 172.89C116.548 173.83 116.798 174.57 117.298 175.11C117.808 175.64 118.483 175.905 119.323 175.905C119.863 175.905 120.343 175.78 120.763 175.53C121.193 175.28 121.528 174.93 121.768 174.48C122.008 174.02 122.128 173.49 122.128 172.89C122.128 172.29 122.008 171.76 121.768 171.3C121.528 170.84 121.193 170.49 120.763 170.25C120.343 170 119.863 169.875 119.323 169.875ZM129.04 168.66C129.84 168.66 130.515 168.86 131.065 169.26C131.625 169.66 132.015 170.195 132.235 170.865V165.9H133.6V177H132.235V174.9C132.015 175.57 131.625 176.105 131.065 176.505C130.515 176.905 129.84 177.105 129.04 177.105C128.31 177.105 127.66 176.935 127.09 176.595C126.52 176.255 126.07 175.77 125.74 175.14C125.42 174.5 125.26 173.75 125.26 172.89C125.26 172.03 125.42 171.28 125.74 170.64C126.07 170 126.52 169.51 127.09 169.17C127.66 168.83 128.31 168.66 129.04 168.66ZM129.43 169.875C128.59 169.875 127.915 170.145 127.405 170.685C126.905 171.215 126.655 171.95 126.655 172.89C126.655 173.83 126.905 174.57 127.405 175.11C127.915 175.64 128.59 175.905 129.43 175.905C129.97 175.905 130.45 175.78 130.87 175.53C131.3 175.28 131.635 174.93 131.875 174.48C132.115 174.02 132.235 173.49 132.235 172.89C132.235 172.29 132.115 171.76 131.875 171.3C131.635 170.84 131.3 170.49 130.87 170.25C130.45 170 129.97 169.875 129.43 169.875ZM138.353 168.66C139.283 168.66 140.028 168.905 140.588 169.395C141.158 169.875 141.503 170.525 141.623 171.345H140.318C140.258 170.855 140.053 170.455 139.703 170.145C139.363 169.825 138.903 169.665 138.323 169.665C137.833 169.665 137.448 169.785 137.168 170.025C136.898 170.255 136.763 170.57 136.763 170.97C136.763 171.27 136.853 171.515 137.033 171.705C137.223 171.885 137.453 172.025 137.723 172.125C138.003 172.215 138.383 172.315 138.863 172.425C139.473 172.565 139.963 172.71 140.333 172.86C140.713 173 141.033 173.23 141.293 173.55C141.563 173.87 141.698 174.3 141.698 174.84C141.698 175.51 141.443 176.055 140.933 176.475C140.433 176.895 139.763 177.105 138.923 177.105C137.943 177.105 137.143 176.87 136.523 176.4C135.903 175.93 135.538 175.275 135.428 174.435H136.748C136.798 174.935 137.013 175.34 137.393 175.65C137.783 175.96 138.293 176.115 138.923 176.115C139.393 176.115 139.758 175.995 140.018 175.755C140.288 175.515 140.423 175.2 140.423 174.81C140.423 174.49 140.328 174.235 140.138 174.045C139.948 173.855 139.713 173.71 139.433 173.61C139.153 173.51 138.768 173.405 138.278 173.295C137.668 173.155 137.178 173.015 136.808 172.875C136.448 172.735 136.138 172.515 135.878 172.215C135.628 171.905 135.503 171.49 135.503 170.97C135.503 170.28 135.758 169.725 136.268 169.305C136.778 168.875 137.473 168.66 138.353 168.66ZM145.262 168.96V170.565H143.612V168.96H145.262ZM145.037 175.995C145.177 176.435 145.247 176.845 145.247 177.225C145.247 177.745 145.117 178.16 144.857 178.47C144.597 178.79 144.207 178.95 143.687 178.95V178.365C143.937 178.365 144.117 178.295 144.227 178.155C144.347 178.025 144.407 177.815 144.407 177.525V177.39H143.642V175.995H145.037ZM155.225 168.63C156.185 168.63 156.96 168.94 157.55 169.56C158.14 170.17 158.435 171.055 158.435 172.215V177H157.07V172.335C157.07 171.515 156.86 170.885 156.44 170.445C156.02 170.005 155.45 169.785 154.73 169.785C153.98 169.785 153.38 170.03 152.93 170.52C152.48 171 152.255 171.705 152.255 172.635V177H150.89V168.765H152.255V170.715C152.465 170.045 152.835 169.53 153.365 169.17C153.905 168.81 154.525 168.63 155.225 168.63ZM164.264 168.66C165.054 168.66 165.759 168.83 166.379 169.17C167.009 169.51 167.499 170 167.849 170.64C168.209 171.28 168.389 172.03 168.389 172.89C168.389 173.75 168.209 174.5 167.849 175.14C167.499 175.77 167.009 176.255 166.379 176.595C165.759 176.935 165.054 177.105 164.264 177.105C163.474 177.105 162.764 176.935 162.134 176.595C161.514 176.255 161.024 175.77 160.664 175.14C160.304 174.5 160.124 173.75 160.124 172.89C160.124 172.03 160.304 171.28 160.664 170.64C161.024 170 161.514 169.51 162.134 169.17C162.764 168.83 163.474 168.66 164.264 168.66ZM164.264 169.86C163.774 169.86 163.319 169.97 162.899 170.19C162.489 170.41 162.154 170.75 161.894 171.21C161.644 171.66 161.519 172.22 161.519 172.89C161.519 173.55 161.644 174.11 161.894 174.57C162.154 175.02 162.489 175.355 162.899 175.575C163.319 175.795 163.774 175.905 164.264 175.905C164.754 175.905 165.204 175.795 165.614 175.575C166.034 175.355 166.369 175.02 166.619 174.57C166.879 174.11 167.009 173.55 167.009 172.89C167.009 172.22 166.879 171.66 166.619 171.21C166.369 170.75 166.034 170.41 165.614 170.19C165.204 169.97 164.754 169.86 164.264 169.86ZM177.248 168.66C178.048 168.66 178.723 168.86 179.273 169.26C179.833 169.66 180.223 170.195 180.443 170.865V168.765H181.808V177H180.443V174.9C180.223 175.57 179.833 176.105 179.273 176.505C178.723 176.905 178.048 177.105 177.248 177.105C176.518 177.105 175.868 176.935 175.298 176.595C174.728 176.255 174.278 175.77 173.948 175.14C173.628 174.5 173.468 173.75 173.468 172.89C173.468 172.03 173.628 171.28 173.948 170.64C174.278 170 174.728 169.51 175.298 169.17C175.868 168.83 176.518 168.66 177.248 168.66ZM177.638 169.875C176.798 169.875 176.123 170.145 175.613 170.685C175.113 171.215 174.863 171.95 174.863 172.89C174.863 173.83 175.113 174.57 175.613 175.11C176.123 175.64 176.798 175.905 177.638 175.905C178.178 175.905 178.658 175.78 179.078 175.53C179.508 175.28 179.843 174.93 180.083 174.48C180.323 174.02 180.443 173.49 180.443 172.89C180.443 172.29 180.323 171.76 180.083 171.3C179.843 170.84 179.508 170.49 179.078 170.25C178.658 170 178.178 169.875 177.638 169.875ZM187.626 168.66C188.676 168.66 189.546 168.94 190.236 169.5C190.926 170.06 191.351 170.81 191.511 171.75H190.071C189.971 171.16 189.696 170.7 189.246 170.37C188.806 170.03 188.256 169.86 187.596 169.86C187.116 169.86 186.676 169.97 186.276 170.19C185.886 170.41 185.571 170.75 185.331 171.21C185.091 171.66 184.971 172.22 184.971 172.89C184.971 173.56 185.091 174.125 185.331 174.585C185.571 175.035 185.886 175.37 186.276 175.59C186.676 175.81 187.116 175.92 187.596 175.92C188.256 175.92 188.806 175.75 189.246 175.41C189.696 175.07 189.971 174.605 190.071 174.015H191.511C191.351 174.965 190.926 175.72 190.236 176.28C189.546 176.83 188.676 177.105 187.626 177.105C186.836 177.105 186.136 176.935 185.526 176.595C184.916 176.255 184.436 175.77 184.086 175.14C183.746 174.5 183.576 173.75 183.576 172.89C183.576 172.03 183.746 171.28 184.086 170.64C184.436 170 184.916 169.51 185.526 169.17C186.136 168.83 186.836 168.66 187.626 168.66ZM196.942 168.66C197.992 168.66 198.862 168.94 199.552 169.5C200.242 170.06 200.667 170.81 200.827 171.75H199.387C199.287 171.16 199.012 170.7 198.562 170.37C198.122 170.03 197.572 169.86 196.912 169.86C196.432 169.86 195.992 169.97 195.592 170.19C195.202 170.41 194.887 170.75 194.647 171.21C194.407 171.66 194.287 172.22 194.287 172.89C194.287 173.56 194.407 174.125 194.647 174.585C194.887 175.035 195.202 175.37 195.592 175.59C195.992 175.81 196.432 175.92 196.912 175.92C197.572 175.92 198.122 175.75 198.562 175.41C199.012 175.07 199.287 174.605 199.387 174.015H200.827C200.667 174.965 200.242 175.72 199.552 176.28C198.862 176.83 197.992 177.105 196.942 177.105C196.152 177.105 195.452 176.935 194.842 176.595C194.232 176.255 193.752 175.77 193.402 175.14C193.062 174.5 192.892 173.75 192.892 172.89C192.892 172.03 193.062 171.28 193.402 170.64C193.752 170 194.232 169.51 194.842 169.17C195.452 168.83 196.152 168.66 196.942 168.66ZM206.349 168.66C207.139 168.66 207.844 168.83 208.464 169.17C209.094 169.51 209.584 170 209.934 170.64C210.294 171.28 210.474 172.03 210.474 172.89C210.474 173.75 210.294 174.5 209.934 175.14C209.584 175.77 209.094 176.255 208.464 176.595C207.844 176.935 207.139 177.105 206.349 177.105C205.559 177.105 204.849 176.935 204.219 176.595C203.599 176.255 203.109 175.77 202.749 175.14C202.389 174.5 202.209 173.75 202.209 172.89C202.209 172.03 202.389 171.28 202.749 170.64C203.109 170 203.599 169.51 204.219 169.17C204.849 168.83 205.559 168.66 206.349 168.66ZM206.349 169.86C205.859 169.86 205.404 169.97 204.984 170.19C204.574 170.41 204.239 170.75 203.979 171.21C203.729 171.66 203.604 172.22 203.604 172.89C203.604 173.55 203.729 174.11 203.979 174.57C204.239 175.02 204.574 175.355 204.984 175.575C205.404 175.795 205.859 175.905 206.349 175.905C206.839 175.905 207.289 175.795 207.699 175.575C208.119 175.355 208.454 175.02 208.704 174.57C208.964 174.11 209.094 173.55 209.094 172.89C209.094 172.22 208.964 171.66 208.704 171.21C208.454 170.75 208.119 170.41 207.699 170.19C207.289 169.97 206.839 169.86 206.349 169.86ZM219.572 168.765V177H218.207V175.065C217.997 175.735 217.622 176.25 217.082 176.61C216.552 176.96 215.932 177.135 215.222 177.135C214.272 177.135 213.502 176.83 212.912 176.22C212.322 175.6 212.027 174.715 212.027 173.565V168.765H213.392V173.43C213.392 174.25 213.602 174.885 214.022 175.335C214.442 175.775 215.012 175.995 215.732 175.995C216.482 175.995 217.082 175.755 217.532 175.275C217.982 174.785 218.207 174.075 218.207 173.145V168.765H219.572ZM226.094 168.63C227.054 168.63 227.829 168.94 228.419 169.56C229.009 170.17 229.304 171.055 229.304 172.215V177H227.939V172.335C227.939 171.515 227.729 170.885 227.309 170.445C226.889 170.005 226.319 169.785 225.599 169.785C224.849 169.785 224.249 170.03 223.799 170.52C223.349 171 223.124 171.705 223.124 172.635V177H221.759V168.765H223.124V170.715C223.334 170.045 223.704 169.53 224.234 169.17C224.774 168.81 225.394 168.63 226.094 168.63ZM235.328 175.8V177H234.308C233.468 177 232.838 176.8 232.418 176.4C232.008 176 231.803 175.33 231.803 174.39V169.95H230.573V168.765H231.803V166.71H233.183V168.765H235.313V169.95H233.183V174.42C233.183 174.95 233.278 175.315 233.468 175.515C233.668 175.705 234.008 175.8 234.488 175.8H235.328ZM239.573 168.66C240.503 168.66 241.248 168.905 241.808 169.395C242.378 169.875 242.723 170.525 242.843 171.345H241.538C241.478 170.855 241.273 170.455 240.923 170.145C240.583 169.825 240.123 169.665 239.543 169.665C239.053 169.665 238.668 169.785 238.388 170.025C238.118 170.255 237.983 170.57 237.983 170.97C237.983 171.27 238.073 171.515 238.253 171.705C238.443 171.885 238.673 172.025 238.943 172.125C239.223 172.215 239.603 172.315 240.083 172.425C240.693 172.565 241.183 172.71 241.553 172.86C241.933 173 242.253 173.23 242.513 173.55C242.783 173.87 242.918 174.3 242.918 174.84C242.918 175.51 242.663 176.055 242.153 176.475C241.653 176.895 240.983 177.105 240.143 177.105C239.163 177.105 238.363 176.87 237.743 176.4C237.123 175.93 236.758 175.275 236.648 174.435H237.968C238.018 174.935 238.233 175.34 238.613 175.65C239.003 175.96 239.513 176.115 240.143 176.115C240.613 176.115 240.978 175.995 241.238 175.755C241.508 175.515 241.643 175.2 241.643 174.81C241.643 174.49 241.548 174.235 241.358 174.045C241.168 173.855 240.933 173.71 240.653 173.61C240.373 173.51 239.988 173.405 239.498 173.295C238.888 173.155 238.398 173.015 238.028 172.875C237.668 172.735 237.358 172.515 237.098 172.215C236.848 171.905 236.723 171.49 236.723 170.97C236.723 170.28 236.978 169.725 237.488 169.305C237.998 168.875 238.693 168.66 239.573 168.66ZM252.184 168.66C252.974 168.66 253.679 168.83 254.299 169.17C254.929 169.51 255.419 170 255.769 170.64C256.129 171.28 256.309 172.03 256.309 172.89C256.309 173.75 256.129 174.5 255.769 175.14C255.419 175.77 254.929 176.255 254.299 176.595C253.679 176.935 252.974 177.105 252.184 177.105C251.394 177.105 250.684 176.935 250.054 176.595C249.434 176.255 248.944 175.77 248.584 175.14C248.224 174.5 248.044 173.75 248.044 172.89C248.044 172.03 248.224 171.28 248.584 170.64C248.944 170 249.434 169.51 250.054 169.17C250.684 168.83 251.394 168.66 252.184 168.66ZM252.184 169.86C251.694 169.86 251.239 169.97 250.819 170.19C250.409 170.41 250.074 170.75 249.814 171.21C249.564 171.66 249.439 172.22 249.439 172.89C249.439 173.55 249.564 174.11 249.814 174.57C250.074 175.02 250.409 175.355 250.819 175.575C251.239 175.795 251.694 175.905 252.184 175.905C252.674 175.905 253.124 175.795 253.534 175.575C253.954 175.355 254.289 175.02 254.539 174.57C254.799 174.11 254.929 173.55 254.929 172.89C254.929 172.22 254.799 171.66 254.539 171.21C254.289 170.75 253.954 170.41 253.534 170.19C253.124 169.97 252.674 169.86 252.184 169.86ZM259.452 170.43C259.722 169.86 260.117 169.42 260.637 169.11C261.157 168.79 261.777 168.63 262.497 168.63V170.115H262.077C261.307 170.115 260.677 170.315 260.187 170.715C259.697 171.105 259.452 171.755 259.452 172.665V177H258.087V168.765H259.452V170.43ZM3.675 192.66C4.605 192.66 5.35 192.905 5.91 193.395C6.48 193.875 6.825 194.525 6.945 195.345H5.64C5.58 194.855 5.375 194.455 5.025 194.145C4.685 193.825 4.225 193.665 3.645 193.665C3.155 193.665 2.77 193.785 2.49 194.025C2.22 194.255 2.085 194.57 2.085 194.97C2.085 195.27 2.175 195.515 2.355 195.705C2.545 195.885 2.775 196.025 3.045 196.125C3.325 196.215 3.705 196.315 4.185 196.425C4.795 196.565 5.285 196.71 5.655 196.86C6.035 197 6.355 197.23 6.615 197.55C6.885 197.87 7.02 198.3 7.02 198.84C7.02 199.51 6.765 200.055 6.255 200.475C5.755 200.895 5.085 201.105 4.245 201.105C3.265 201.105 2.465 200.87 1.845 200.4C1.225 199.93 0.86 199.275 0.75 198.435H2.07C2.12 198.935 2.335 199.34 2.715 199.65C3.105 199.96 3.615 200.115 4.245 200.115C4.715 200.115 5.08 199.995 5.34 199.755C5.61 199.515 5.745 199.2 5.745 198.81C5.745 198.49 5.65 198.235 5.46 198.045C5.27 197.855 5.035 197.71 4.755 197.61C4.475 197.51 4.09 197.405 3.6 197.295C2.99 197.155 2.5 197.015 2.13 196.875C1.77 196.735 1.46 196.515 1.2 196.215C0.95 195.905 0.825 195.49 0.825 194.97C0.825 194.28 1.08 193.725 1.59 193.305C2.1 192.875 2.795 192.66 3.675 192.66ZM8.60402 190.35C8.60402 190.1 8.68902 189.9 8.85902 189.75C9.02902 189.59 9.25402 189.51 9.53402 189.51C9.81402 189.51 10.039 189.59 10.209 189.75C10.379 189.9 10.464 190.1 10.464 190.35C10.464 190.6 10.379 190.805 10.209 190.965C10.039 191.115 9.81402 191.19 9.53402 191.19C9.25402 191.19 9.02902 191.115 8.85902 190.965C8.68902 190.805 8.60402 190.6 8.60402 190.35ZM10.209 192.765V201H8.84402V192.765H10.209ZM15.7786 192.66C16.5786 192.66 17.2536 192.86 17.8036 193.26C18.3636 193.66 18.7536 194.195 18.9736 194.865V192.765H20.3386V201.135C20.3386 201.895 20.1786 202.57 19.8586 203.16C19.5386 203.75 19.0886 204.21 18.5086 204.54C17.9286 204.87 17.2536 205.035 16.4836 205.035C15.3736 205.035 14.4686 204.765 13.7686 204.225C13.0686 203.695 12.6236 202.975 12.4336 202.065H13.7836C13.9436 202.615 14.2436 203.045 14.6836 203.355C15.1336 203.675 15.7086 203.835 16.4086 203.835C17.1486 203.835 17.7586 203.595 18.2386 203.115C18.7286 202.645 18.9736 201.985 18.9736 201.135V198.9C18.7536 199.57 18.3636 200.105 17.8036 200.505C17.2536 200.905 16.5786 201.105 15.7786 201.105C15.0486 201.105 14.3986 200.935 13.8286 200.595C13.2586 200.255 12.8086 199.77 12.4786 199.14C12.1586 198.5 11.9986 197.75 11.9986 196.89C11.9986 196.03 12.1586 195.28 12.4786 194.64C12.8086 194 13.2586 193.51 13.8286 193.17C14.3986 192.83 15.0486 192.66 15.7786 192.66ZM16.1686 193.875C15.3286 193.875 14.6536 194.145 14.1436 194.685C13.6436 195.215 13.3936 195.95 13.3936 196.89C13.3936 197.83 13.6436 198.57 14.1436 199.11C14.6536 199.64 15.3286 199.905 16.1686 199.905C16.7086 199.905 17.1886 199.78 17.6086 199.53C18.0386 199.28 18.3736 198.93 18.6136 198.48C18.8536 198.02 18.9736 197.49 18.9736 196.89C18.9736 196.29 18.8536 195.76 18.6136 195.3C18.3736 194.84 18.0386 194.49 17.6086 194.25C17.1886 194 16.7086 193.875 16.1686 193.875ZM26.846 192.63C27.806 192.63 28.581 192.94 29.171 193.56C29.761 194.17 30.056 195.055 30.056 196.215V201H28.691V196.335C28.691 195.515 28.481 194.885 28.061 194.445C27.641 194.005 27.071 193.785 26.351 193.785C25.601 193.785 25.001 194.03 24.551 194.52C24.101 195 23.876 195.705 23.876 196.635V201H22.511V192.765H23.876V194.715C24.086 194.045 24.456 193.53 24.986 193.17C25.526 192.81 26.146 192.63 26.846 192.63ZM36.8297 194.925V196.08H30.8297V194.925H36.8297ZM46.8379 192.765V201H45.4729V199.065C45.2629 199.735 44.8879 200.25 44.3479 200.61C43.8179 200.96 43.1979 201.135 42.4879 201.135C41.5379 201.135 40.7679 200.83 40.1779 200.22C39.5879 199.6 39.2929 198.715 39.2929 197.565V192.765H40.6579V197.43C40.6579 198.25 40.8679 198.885 41.2879 199.335C41.7079 199.775 42.2779 199.995 42.9979 199.995C43.7479 199.995 44.3479 199.755 44.7979 199.275C45.2479 198.785 45.4729 198.075 45.4729 197.145V192.765H46.8379ZM53.5697 192.66C54.2997 192.66 54.9497 192.83 55.5197 193.17C56.0897 193.51 56.5347 194 56.8547 194.64C57.1847 195.28 57.3497 196.03 57.3497 196.89C57.3497 197.75 57.1847 198.5 56.8547 199.14C56.5347 199.77 56.0897 200.255 55.5197 200.595C54.9497 200.935 54.2997 201.105 53.5697 201.105C52.7697 201.105 52.0897 200.905 51.5297 200.505C50.9797 200.095 50.5997 199.56 50.3897 198.9V204.9H49.0247V192.765H50.3897V194.865C50.5997 194.205 50.9797 193.675 51.5297 193.275C52.0897 192.865 52.7697 192.66 53.5697 192.66ZM53.1797 193.875C52.6497 193.875 52.1697 194 51.7397 194.25C51.3097 194.49 50.9747 194.84 50.7347 195.3C50.4947 195.76 50.3747 196.29 50.3747 196.89C50.3747 197.49 50.4947 198.02 50.7347 198.48C50.9747 198.93 51.3097 199.28 51.7397 199.53C52.1697 199.78 52.6497 199.905 53.1797 199.905C54.0297 199.905 54.7047 199.64 55.2047 199.11C55.7147 198.57 55.9697 197.83 55.9697 196.89C55.9697 195.95 55.7147 195.215 55.2047 194.685C54.7047 194.145 54.0297 193.875 53.1797 193.875ZM61.7121 192.66C62.6421 192.66 63.3871 192.905 63.9471 193.395C64.5171 193.875 64.8621 194.525 64.9821 195.345H63.6771C63.6171 194.855 63.4121 194.455 63.0621 194.145C62.7221 193.825 62.2621 193.665 61.6821 193.665C61.1921 193.665 60.8071 193.785 60.5271 194.025C60.2571 194.255 60.1221 194.57 60.1221 194.97C60.1221 195.27 60.2121 195.515 60.3921 195.705C60.5821 195.885 60.8121 196.025 61.0821 196.125C61.3621 196.215 61.7421 196.315 62.2221 196.425C62.8321 196.565 63.3221 196.71 63.6921 196.86C64.0721 197 64.3921 197.23 64.6521 197.55C64.9221 197.87 65.0571 198.3 65.0571 198.84C65.0571 199.51 64.8021 200.055 64.2921 200.475C63.7921 200.895 63.1221 201.105 62.2821 201.105C61.3021 201.105 60.5021 200.87 59.8821 200.4C59.2621 199.93 58.8971 199.275 58.7871 198.435H60.1071C60.1571 198.935 60.3721 199.34 60.7521 199.65C61.1421 199.96 61.6521 200.115 62.2821 200.115C62.7521 200.115 63.1171 199.995 63.3771 199.755C63.6471 199.515 63.7821 199.2 63.7821 198.81C63.7821 198.49 63.6871 198.235 63.4971 198.045C63.3071 197.855 63.0721 197.71 62.7921 197.61C62.5121 197.51 62.1271 197.405 61.6371 197.295C61.0271 197.155 60.5371 197.015 60.1671 196.875C59.8071 196.735 59.4971 196.515 59.2371 196.215C58.9871 195.905 58.8621 195.49 58.8621 194.97C58.8621 194.28 59.1171 193.725 59.6271 193.305C60.1371 192.875 60.8321 192.66 61.7121 192.66ZM71.9522 194.43C72.2222 193.86 72.6172 193.42 73.1372 193.11C73.6572 192.79 74.2772 192.63 74.9972 192.63V194.115H74.5772C73.8072 194.115 73.1772 194.315 72.6872 194.715C72.1972 195.105 71.9522 195.755 71.9522 196.665V201H70.5872V192.765H71.9522V194.43ZM83.919 196.425C83.919 196.715 83.899 196.965 83.859 197.175H77.274C77.304 198.115 77.569 198.82 78.069 199.29C78.579 199.76 79.199 199.995 79.929 199.995C80.589 199.995 81.139 199.83 81.579 199.5C82.029 199.16 82.304 198.71 82.404 198.15H83.859C83.759 198.72 83.534 199.23 83.184 199.68C82.844 200.13 82.399 200.48 81.849 200.73C81.299 200.98 80.679 201.105 79.989 201.105C79.199 201.105 78.499 200.935 77.889 200.595C77.279 200.255 76.799 199.77 76.449 199.14C76.109 198.5 75.939 197.75 75.939 196.89C75.939 196.03 76.109 195.28 76.449 194.64C76.799 194 77.279 193.51 77.889 193.17C78.499 192.83 79.199 192.66 79.989 192.66C80.789 192.66 81.484 192.83 82.074 193.17C82.674 193.51 83.129 193.965 83.439 194.535C83.759 195.105 83.919 195.735 83.919 196.425ZM82.539 196.515C82.569 195.905 82.469 195.395 82.239 194.985C82.009 194.575 81.694 194.27 81.294 194.07C80.894 193.87 80.459 193.77 79.989 193.77C79.239 193.77 78.609 194.005 78.099 194.475C77.589 194.935 77.314 195.615 77.274 196.515H82.539ZM89.1694 192.69C89.9294 192.69 90.5744 192.875 91.1044 193.245C91.6444 193.605 92.0344 194.095 92.2744 194.715V192.765H93.6394V204.9H92.2744V198.99C92.0244 199.64 91.6294 200.155 91.0894 200.535C90.5594 200.915 89.9194 201.105 89.1694 201.105C88.4394 201.105 87.7794 200.935 87.1894 200.595C86.5994 200.245 86.1344 199.755 85.7944 199.125C85.4644 198.485 85.2994 197.745 85.2994 196.905C85.2994 196.065 85.4644 195.33 85.7944 194.7C86.1344 194.06 86.5994 193.565 87.1894 193.215C87.7794 192.865 88.4394 192.69 89.1694 192.69ZM89.4694 193.875C88.6494 193.875 87.9794 194.145 87.4594 194.685C86.9494 195.215 86.6944 195.955 86.6944 196.905C86.6944 197.855 86.9494 198.595 87.4594 199.125C87.9694 199.645 88.6394 199.905 89.4694 199.905C89.9894 199.905 90.4594 199.785 90.8794 199.545C91.3094 199.295 91.6494 198.945 91.8994 198.495C92.1494 198.035 92.2744 197.5 92.2744 196.89C92.2744 196.28 92.1494 195.75 91.8994 195.3C91.6494 194.84 91.3094 194.49 90.8794 194.25C90.4594 194 89.9894 193.875 89.4694 193.875ZM103.132 192.765V201H101.767V199.065C101.557 199.735 101.182 200.25 100.642 200.61C100.112 200.96 99.4918 201.135 98.7818 201.135C97.8318 201.135 97.0618 200.83 96.4718 200.22C95.8818 199.6 95.5868 198.715 95.5868 197.565V192.765H96.9518V197.43C96.9518 198.25 97.1618 198.885 97.5818 199.335C98.0018 199.775 98.5718 199.995 99.2918 199.995C100.042 199.995 100.642 199.755 101.092 199.275C101.542 198.785 101.767 198.075 101.767 197.145V192.765H103.132ZM105.079 190.35C105.079 190.1 105.164 189.9 105.334 189.75C105.504 189.59 105.729 189.51 106.009 189.51C106.289 189.51 106.514 189.59 106.684 189.75C106.854 189.9 106.939 190.1 106.939 190.35C106.939 190.6 106.854 190.805 106.684 190.965C106.514 191.115 106.289 191.19 106.009 191.19C105.729 191.19 105.504 191.115 105.334 190.965C105.164 190.805 105.079 190.6 105.079 190.35ZM106.684 192.765V201H105.319V192.765H106.684ZM110.243 194.43C110.513 193.86 110.908 193.42 111.428 193.11C111.948 192.79 112.568 192.63 113.288 192.63V194.115H112.868C112.098 194.115 111.468 194.315 110.978 194.715C110.488 195.105 110.243 195.755 110.243 196.665V201H108.878V192.765H110.243V194.43ZM122.21 196.425C122.21 196.715 122.19 196.965 122.15 197.175H115.565C115.595 198.115 115.86 198.82 116.36 199.29C116.87 199.76 117.49 199.995 118.22 199.995C118.88 199.995 119.43 199.83 119.87 199.5C120.32 199.16 120.595 198.71 120.695 198.15H122.15C122.05 198.72 121.825 199.23 121.475 199.68C121.135 200.13 120.69 200.48 120.14 200.73C119.59 200.98 118.97 201.105 118.28 201.105C117.49 201.105 116.79 200.935 116.18 200.595C115.57 200.255 115.09 199.77 114.74 199.14C114.4 198.5 114.23 197.75 114.23 196.89C114.23 196.03 114.4 195.28 114.74 194.64C115.09 194 115.57 193.51 116.18 193.17C116.79 192.83 117.49 192.66 118.28 192.66C119.08 192.66 119.775 192.83 120.365 193.17C120.965 193.51 121.42 193.965 121.73 194.535C122.05 195.105 122.21 195.735 122.21 196.425ZM120.83 196.515C120.86 195.905 120.76 195.395 120.53 194.985C120.3 194.575 119.985 194.27 119.585 194.07C119.185 193.87 118.75 193.77 118.28 193.77C117.53 193.77 116.9 194.005 116.39 194.475C115.88 194.935 115.605 195.615 115.565 196.515H120.83ZM127.37 192.66C128.17 192.66 128.845 192.86 129.395 193.26C129.955 193.66 130.345 194.195 130.565 194.865V189.9H131.93V201H130.565V198.9C130.345 199.57 129.955 200.105 129.395 200.505C128.845 200.905 128.17 201.105 127.37 201.105C126.64 201.105 125.99 200.935 125.42 200.595C124.85 200.255 124.4 199.77 124.07 199.14C123.75 198.5 123.59 197.75 123.59 196.89C123.59 196.03 123.75 195.28 124.07 194.64C124.4 194 124.85 193.51 125.42 193.17C125.99 192.83 126.64 192.66 127.37 192.66ZM127.76 193.875C126.92 193.875 126.245 194.145 125.735 194.685C125.235 195.215 124.985 195.95 124.985 196.89C124.985 197.83 125.235 198.57 125.735 199.11C126.245 199.64 126.92 199.905 127.76 199.905C128.3 199.905 128.78 199.78 129.2 199.53C129.63 199.28 129.965 198.93 130.205 198.48C130.445 198.02 130.565 197.49 130.565 196.89C130.565 196.29 130.445 195.76 130.205 195.3C129.965 194.84 129.63 194.49 129.2 194.25C128.78 194 128.3 193.875 127.76 193.875ZM135.108 199.395V201H133.458V199.395H135.108Z" fill="#344563"/>
<g clip-path="url(#clip3_39_313)">
<rect y="224" width="57" height="24" rx="8" fill="#EBEBFF"/>
<path d="M19.56 231.66V240H18.192V236.352H14.268V240H12.9V231.66H14.268V235.236H18.192V231.66H19.56ZM27.1089 231.66V232.776H24.8889V240H23.5209V232.776H21.2889V231.66H27.1089ZM37.6384 231.66V240H36.2704V234.288L33.7264 240H32.7784L30.2224 234.288V240H28.8544V231.66H30.3304L33.2584 238.2L36.1744 231.66H37.6384ZM41.1644 238.896H43.9844V240H39.7964V231.66H41.1644V238.896Z" fill="#6070FF"/>
<rect x="65" y="224" width="49" height="24" rx="8" fill="#EBEBFF"/>
<path d="M77.444 235.812C77.444 234.996 77.632 234.264 78.008 233.616C78.392 232.968 78.908 232.464 79.556 232.104C80.212 231.736 80.928 231.552 81.704 231.552C82.592 231.552 83.38 231.772 84.068 232.212C84.764 232.644 85.268 233.26 85.58 234.06H83.936C83.72 233.62 83.42 233.292 83.036 233.076C82.652 232.86 82.208 232.752 81.704 232.752C81.152 232.752 80.66 232.876 80.228 233.124C79.796 233.372 79.456 233.728 79.208 234.192C78.968 234.656 78.848 235.196 78.848 235.812C78.848 236.428 78.968 236.968 79.208 237.432C79.456 237.896 79.796 238.256 80.228 238.512C80.66 238.76 81.152 238.884 81.704 238.884C82.208 238.884 82.652 238.776 83.036 238.56C83.42 238.344 83.72 238.016 83.936 237.576H85.58C85.268 238.376 84.764 238.992 84.068 239.424C83.38 239.856 82.592 240.072 81.704 240.072C80.92 240.072 80.204 239.892 79.556 239.532C78.908 239.164 78.392 238.656 78.008 238.008C77.632 237.36 77.444 236.628 77.444 235.812ZM90.2892 240.084C89.7292 240.084 89.2252 239.988 88.7772 239.796C88.3292 239.596 87.9772 239.316 87.7212 238.956C87.4652 238.596 87.3372 238.176 87.3372 237.696H88.8012C88.8332 238.056 88.9732 238.352 89.2212 238.584C89.4772 238.816 89.8332 238.932 90.2892 238.932C90.7612 238.932 91.1292 238.82 91.3932 238.596C91.6572 238.364 91.7892 238.068 91.7892 237.708C91.7892 237.428 91.7052 237.2 91.5372 237.024C91.3772 236.848 91.1732 236.712 90.9252 236.616C90.6852 236.52 90.3492 236.416 89.9172 236.304C89.3732 236.16 88.9292 236.016 88.5852 235.872C88.2492 235.72 87.9612 235.488 87.7212 235.176C87.4812 234.864 87.3612 234.448 87.3612 233.928C87.3612 233.448 87.4812 233.028 87.7212 232.668C87.9612 232.308 88.2972 232.032 88.7292 231.84C89.1612 231.648 89.6612 231.552 90.2292 231.552C91.0372 231.552 91.6972 231.756 92.2092 232.164C92.7293 232.564 93.0173 233.116 93.0732 233.82H91.5612C91.5372 233.516 91.3932 233.256 91.1292 233.04C90.8652 232.824 90.5172 232.716 90.0852 232.716C89.6932 232.716 89.3732 232.816 89.1252 233.016C88.8772 233.216 88.7532 233.504 88.7532 233.88C88.7532 234.136 88.8292 234.348 88.9812 234.516C89.1412 234.676 89.3412 234.804 89.5812 234.9C89.8212 234.996 90.1492 235.1 90.5652 235.212C91.1172 235.364 91.5652 235.516 91.9092 235.668C92.2612 235.82 92.5572 236.056 92.7972 236.376C93.0452 236.688 93.1693 237.108 93.1693 237.636C93.1693 238.06 93.0533 238.46 92.8213 238.836C92.5972 239.212 92.2652 239.516 91.8252 239.748C91.3932 239.972 90.8812 240.084 90.2892 240.084ZM97.8914 240.084C97.3314 240.084 96.8274 239.988 96.3794 239.796C95.9314 239.596 95.5794 239.316 95.3234 238.956C95.0674 238.596 94.9394 238.176 94.9394 237.696H96.4034C96.4354 238.056 96.5754 238.352 96.8234 238.584C97.0794 238.816 97.4354 238.932 97.8914 238.932C98.3634 238.932 98.7314 238.82 98.9954 238.596C99.2594 238.364 99.3914 238.068 99.3914 237.708C99.3914 237.428 99.3074 237.2 99.1394 237.024C98.9794 236.848 98.7754 236.712 98.5274 236.616C98.2874 236.52 97.9514 236.416 97.5194 236.304C96.9754 236.16 96.5314 236.016 96.1874 235.872C95.8514 235.72 95.5634 235.488 95.3234 235.176C95.0834 234.864 94.9634 234.448 94.9634 233.928C94.9634 233.448 95.0834 233.028 95.3234 232.668C95.5634 232.308 95.8994 232.032 96.3314 231.84C96.7634 231.648 97.2634 231.552 97.8314 231.552C98.6394 231.552 99.2994 231.756 99.8114 232.164C100.331 232.564 100.619 233.116 100.675 233.82H99.1634C99.1394 233.516 98.9954 233.256 98.7314 233.04C98.4674 232.824 98.1194 232.716 97.6874 232.716C97.2954 232.716 96.9754 232.816 96.7274 233.016C96.4794 233.216 96.3554 233.504 96.3554 233.88C96.3554 234.136 96.4314 234.348 96.5834 234.516C96.7434 234.676 96.9434 234.804 97.1834 234.9C97.4234 234.996 97.7514 235.1 98.1674 235.212C98.7194 235.364 99.1674 235.516 99.5114 235.668C99.8634 235.82 100.159 236.056 100.399 236.376C100.647 236.688 100.771 237.108 100.771 237.636C100.771 238.06 100.655 238.46 100.423 238.836C100.199 239.212 99.8674 239.516 99.4274 239.748C98.9954 239.972 98.4834 240.084 97.8914 240.084Z" fill="#6070FF"/>
<rect x="122" y="224" width="92" height="24" rx="8" fill="#EBEBFF"/>
<path d="M139.448 231.66V237.672C139.448 238.416 139.22 239.004 138.764 239.436C138.316 239.868 137.724 240.084 136.988 240.084C136.252 240.084 135.656 239.868 135.2 239.436C134.752 239.004 134.528 238.416 134.528 237.672H135.908C135.916 238.04 136.008 238.332 136.184 238.548C136.368 238.764 136.636 238.872 136.988 238.872C137.34 238.872 137.608 238.764 137.792 238.548C137.976 238.324 138.068 238.032 138.068 237.672V231.66H139.448ZM141.577 236.664C141.577 236 141.713 235.412 141.985 234.9C142.265 234.388 142.641 233.992 143.113 233.712C143.593 233.424 144.121 233.28 144.697 233.28C145.217 233.28 145.669 233.384 146.053 233.592C146.445 233.792 146.757 234.044 146.989 234.348V233.388H148.369V240H146.989V239.016C146.757 239.328 146.441 239.588 146.041 239.796C145.641 240.004 145.185 240.108 144.673 240.108C144.105 240.108 143.585 239.964 143.113 239.676C142.641 239.38 142.265 238.972 141.985 238.452C141.713 237.924 141.577 237.328 141.577 236.664ZM146.989 236.688C146.989 236.232 146.893 235.836 146.701 235.5C146.517 235.164 146.273 234.908 145.969 234.732C145.665 234.556 145.337 234.468 144.985 234.468C144.633 234.468 144.305 234.556 144.001 234.732C143.697 234.9 143.449 235.152 143.257 235.488C143.073 235.816 142.981 236.208 142.981 236.664C142.981 237.12 143.073 237.52 143.257 237.864C143.449 238.208 143.697 238.472 144.001 238.656C144.313 238.832 144.641 238.92 144.985 238.92C145.337 238.92 145.665 238.832 145.969 238.656C146.273 238.48 146.517 238.224 146.701 237.888C146.893 237.544 146.989 237.144 146.989 236.688ZM153.082 238.776L154.954 233.388H156.406L153.886 240H152.254L149.746 233.388H151.21L153.082 238.776ZM157.344 236.664C157.344 236 157.48 235.412 157.752 234.9C158.032 234.388 158.408 233.992 158.88 233.712C159.36 233.424 159.888 233.28 160.464 233.28C160.984 233.28 161.436 233.384 161.82 233.592C162.212 233.792 162.524 234.044 162.756 234.348V233.388H164.136V240H162.756V239.016C162.524 239.328 162.208 239.588 161.808 239.796C161.408 240.004 160.952 240.108 160.44 240.108C159.872 240.108 159.352 239.964 158.88 239.676C158.408 239.38 158.032 238.972 157.752 238.452C157.48 237.924 157.344 237.328 157.344 236.664ZM162.756 236.688C162.756 236.232 162.66 235.836 162.468 235.5C162.284 235.164 162.04 234.908 161.736 234.732C161.432 234.556 161.104 234.468 160.752 234.468C160.4 234.468 160.072 234.556 159.768 234.732C159.464 234.9 159.216 235.152 159.024 235.488C158.84 235.816 158.748 236.208 158.748 236.664C158.748 237.12 158.84 237.52 159.024 237.864C159.216 238.208 159.464 238.472 159.768 238.656C160.08 238.832 160.408 238.92 160.752 238.92C161.104 238.92 161.432 238.832 161.736 238.656C162.04 238.48 162.284 238.224 162.468 237.888C162.66 237.544 162.756 237.144 162.756 236.688ZM169.041 240.084C168.481 240.084 167.977 239.988 167.529 239.796C167.081 239.596 166.729 239.316 166.473 238.956C166.217 238.596 166.089 238.176 166.089 237.696H167.553C167.585 238.056 167.725 238.352 167.973 238.584C168.229 238.816 168.585 238.932 169.041 238.932C169.513 238.932 169.881 238.82 170.145 238.596C170.409 238.364 170.541 238.068 170.541 237.708C170.541 237.428 170.457 237.2 170.289 237.024C170.129 236.848 169.925 236.712 169.677 236.616C169.437 236.52 169.101 236.416 168.669 236.304C168.125 236.16 167.681 236.016 167.337 235.872C167.001 235.72 166.713 235.488 166.473 235.176C166.233 234.864 166.113 234.448 166.113 233.928C166.113 233.448 166.233 233.028 166.473 232.668C166.713 232.308 167.049 232.032 167.481 231.84C167.913 231.648 168.413 231.552 168.981 231.552C169.789 231.552 170.449 231.756 170.961 232.164C171.481 232.564 171.769 233.116 171.825 233.82H170.313C170.289 233.516 170.145 233.256 169.881 233.04C169.617 232.824 169.269 232.716 168.837 232.716C168.445 232.716 168.125 232.816 167.877 233.016C167.629 233.216 167.505 233.504 167.505 233.88C167.505 234.136 167.581 234.348 167.733 234.516C167.893 234.676 168.093 234.804 168.333 234.9C168.573 234.996 168.901 235.1 169.317 235.212C169.869 235.364 170.317 235.516 170.661 235.668C171.013 235.82 171.309 236.056 171.549 236.376C171.797 236.688 171.921 237.108 171.921 237.636C171.921 238.06 171.805 238.46 171.573 238.836C171.349 239.212 171.017 239.516 170.577 239.748C170.145 239.972 169.633 240.084 169.041 240.084ZM173.439 236.688C173.439 236.008 173.575 235.412 173.847 234.9C174.127 234.38 174.511 233.98 174.999 233.7C175.487 233.42 176.047 233.28 176.679 233.28C177.479 233.28 178.139 233.472 178.659 233.856C179.187 234.232 179.543 234.772 179.727 235.476H178.251C178.131 235.148 177.939 234.892 177.675 234.708C177.411 234.524 177.079 234.432 176.679 234.432C176.119 234.432 175.671 234.632 175.335 235.032C175.007 235.424 174.843 235.976 174.843 236.688C174.843 237.4 175.007 237.956 175.335 238.356C175.671 238.756 176.119 238.956 176.679 238.956C177.471 238.956 177.995 238.608 178.251 237.912H179.727C179.535 238.584 179.175 239.12 178.647 239.52C178.119 239.912 177.463 240.108 176.679 240.108C176.047 240.108 175.487 239.968 174.999 239.688C174.511 239.4 174.127 239 173.847 238.488C173.575 237.968 173.439 237.368 173.439 236.688ZM182.819 234.348C183.019 234.012 183.283 233.752 183.611 233.568C183.947 233.376 184.343 233.28 184.799 233.28V234.696H184.451C183.915 234.696 183.507 234.832 183.227 235.104C182.955 235.376 182.819 235.848 182.819 236.52V240H181.451V233.388H182.819V234.348ZM187.112 232.512C186.864 232.512 186.656 232.428 186.488 232.26C186.32 232.092 186.236 231.884 186.236 231.636C186.236 231.388 186.32 231.18 186.488 231.012C186.656 230.844 186.864 230.76 187.112 230.76C187.352 230.76 187.556 230.844 187.724 231.012C187.892 231.18 187.976 231.388 187.976 231.636C187.976 231.884 187.892 232.092 187.724 232.26C187.556 232.428 187.352 232.512 187.112 232.512ZM187.784 233.388V240H186.416V233.388H187.784ZM191.308 234.36C191.54 234.056 191.856 233.8 192.256 233.592C192.656 233.384 193.108 233.28 193.612 233.28C194.188 233.28 194.712 233.424 195.184 233.712C195.664 233.992 196.04 234.388 196.312 234.9C196.584 235.412 196.72 236 196.72 236.664C196.72 237.328 196.584 237.924 196.312 238.452C196.04 238.972 195.664 239.38 195.184 239.676C194.712 239.964 194.188 240.108 193.612 240.108C193.108 240.108 192.66 240.008 192.268 239.808C191.876 239.6 191.556 239.344 191.308 239.04V243.144H189.94V233.388H191.308V234.36ZM195.328 236.664C195.328 236.208 195.232 235.816 195.04 235.488C194.856 235.152 194.608 234.9 194.296 234.732C193.992 234.556 193.664 234.468 193.312 234.468C192.968 234.468 192.64 234.556 192.328 234.732C192.024 234.908 191.776 235.164 191.584 235.5C191.4 235.836 191.308 236.232 191.308 236.688C191.308 237.144 191.4 237.544 191.584 237.888C191.776 238.224 192.024 238.48 192.328 238.656C192.64 238.832 192.968 238.92 193.312 238.92C193.664 238.92 193.992 238.832 194.296 238.656C194.608 238.472 194.856 238.208 195.04 237.864C195.232 237.52 195.328 237.12 195.328 236.664ZM200.029 234.504V238.164C200.029 238.412 200.085 238.592 200.197 238.704C200.317 238.808 200.517 238.86 200.797 238.86H201.637V240H200.557C199.941 240 199.469 239.856 199.141 239.568C198.813 239.28 198.649 238.812 198.649 238.164V234.504H197.869V233.388H198.649V231.744H200.029V233.388H201.637V234.504H200.029Z" fill="#6070FF"/>
</g>
<path d="M17.598 302.119C16.8046 302.119 16.0906 301.983 15.456 301.711C14.8213 301.428 14.3226 301.031 13.96 300.521C13.5973 300.011 13.416 299.416 13.416 298.736H15.49C15.5353 299.246 15.7336 299.665 16.085 299.994C16.4476 300.323 16.952 300.487 17.598 300.487C18.2666 300.487 18.788 300.328 19.162 300.011C19.536 299.682 19.723 299.263 19.723 298.753C19.723 298.356 19.604 298.033 19.366 297.784C19.1393 297.535 18.8503 297.342 18.499 297.206C18.159 297.07 17.683 296.923 17.071 296.764C16.3003 296.56 15.6713 296.356 15.184 296.152C14.708 295.937 14.3 295.608 13.96 295.166C13.62 294.724 13.45 294.135 13.45 293.398C13.45 292.718 13.62 292.123 13.96 291.613C14.3 291.103 14.776 290.712 15.388 290.44C16 290.168 16.7083 290.032 17.513 290.032C18.6576 290.032 19.5926 290.321 20.318 290.899C21.0546 291.466 21.4626 292.248 21.542 293.245H19.4C19.366 292.814 19.162 292.446 18.788 292.14C18.414 291.834 17.921 291.681 17.309 291.681C16.7536 291.681 16.3003 291.823 15.949 292.106C15.5976 292.389 15.422 292.797 15.422 293.33C15.422 293.693 15.5296 293.993 15.745 294.231C15.9716 294.458 16.255 294.639 16.595 294.775C16.935 294.911 17.3996 295.058 17.989 295.217C18.771 295.432 19.4056 295.648 19.893 295.863C20.3916 296.078 20.811 296.413 21.151 296.866C21.5023 297.308 21.678 297.903 21.678 298.651C21.678 299.252 21.5136 299.818 21.185 300.351C20.8676 300.884 20.3973 301.314 19.774 301.643C19.162 301.96 18.4366 302.119 17.598 302.119ZM33.0597 297.087C33.0597 297.438 33.0371 297.756 32.9917 298.039H25.8347C25.8914 298.787 26.1691 299.388 26.6677 299.841C27.1664 300.294 27.7784 300.521 28.5037 300.521C29.5464 300.521 30.2831 300.085 30.7137 299.212H32.8047C32.5214 300.073 32.0057 300.782 31.2577 301.337C30.5211 301.881 29.6031 302.153 28.5037 302.153C27.6084 302.153 26.8037 301.955 26.0897 301.558C25.3871 301.15 24.8317 300.583 24.4237 299.858C24.0271 299.121 23.8287 298.271 23.8287 297.308C23.8287 296.345 24.0214 295.5 24.4067 294.775C24.8034 294.038 25.3531 293.472 26.0557 293.075C26.7697 292.678 27.5857 292.48 28.5037 292.48C29.3877 292.48 30.1754 292.673 30.8667 293.058C31.5581 293.443 32.0964 293.987 32.4817 294.69C32.8671 295.381 33.0597 296.18 33.0597 297.087ZM31.0367 296.475C31.0254 295.761 30.7704 295.189 30.2717 294.758C29.7731 294.327 29.1554 294.112 28.4187 294.112C27.7501 294.112 27.1777 294.327 26.7017 294.758C26.2257 295.177 25.9424 295.75 25.8517 296.475H31.0367ZM44.0619 297.087C44.0619 297.438 44.0393 297.756 43.9939 298.039H36.8369C36.8936 298.787 37.1713 299.388 37.6699 299.841C38.1686 300.294 38.7806 300.521 39.5059 300.521C40.5486 300.521 41.2853 300.085 41.7159 299.212H43.8069C43.5236 300.073 43.0079 300.782 42.2599 301.337C41.5233 301.881 40.6053 302.153 39.5059 302.153C38.6106 302.153 37.8059 301.955 37.0919 301.558C36.3893 301.15 35.8339 300.583 35.4259 299.858C35.0293 299.121 34.8309 298.271 34.8309 297.308C34.8309 296.345 35.0236 295.5 35.4089 294.775C35.8056 294.038 36.3553 293.472 37.0579 293.075C37.7719 292.678 38.5879 292.48 39.5059 292.48C40.3899 292.48 41.1776 292.673 41.8689 293.058C42.5603 293.443 43.0986 293.987 43.4839 294.69C43.8693 295.381 44.0619 296.18 44.0619 297.087ZM42.0389 296.475C42.0276 295.761 41.7726 295.189 41.2739 294.758C40.7753 294.327 40.1576 294.112 39.4209 294.112C38.7523 294.112 38.1799 294.327 37.7039 294.758C37.2279 295.177 36.9446 295.75 36.8539 296.475H42.0389ZM53.3431 294.01C53.6718 293.579 54.1195 293.217 54.6861 292.922C55.2528 292.627 55.8931 292.48 56.6071 292.48C57.4231 292.48 58.1655 292.684 58.8341 293.092C59.5141 293.489 60.0468 294.05 60.4321 294.775C60.8175 295.5 61.0101 296.333 61.0101 297.274C61.0101 298.215 60.8175 299.059 60.4321 299.807C60.0468 300.544 59.5141 301.122 58.8341 301.541C58.1655 301.949 57.4231 302.153 56.6071 302.153C55.8931 302.153 55.2585 302.011 54.7031 301.728C54.1478 301.433 53.6945 301.071 53.3431 300.64V306.454H51.4051V292.633H53.3431V294.01ZM59.0381 297.274C59.0381 296.628 58.9021 296.073 58.6301 295.608C58.3695 295.132 58.0181 294.775 57.5761 294.537C57.1455 294.288 56.6808 294.163 56.1821 294.163C55.6948 294.163 55.2301 294.288 54.7881 294.537C54.3575 294.786 54.0061 295.149 53.7341 295.625C53.4735 296.101 53.3431 296.662 53.3431 297.308C53.3431 297.954 53.4735 298.521 53.7341 299.008C54.0061 299.484 54.3575 299.847 54.7881 300.096C55.2301 300.345 55.6948 300.47 56.1821 300.47C56.6808 300.47 57.1455 300.345 57.5761 300.096C58.0181 299.835 58.3695 299.461 58.6301 298.974C58.9021 298.487 59.0381 297.92 59.0381 297.274ZM65.3746 293.993C65.658 293.517 66.032 293.149 66.4966 292.888C66.9726 292.616 67.5336 292.48 68.1796 292.48V294.486H67.6866C66.9273 294.486 66.3493 294.679 65.9526 295.064C65.5673 295.449 65.3746 296.118 65.3746 297.07V302H63.4366V292.633H65.3746V293.993ZM74.534 302.153C73.65 302.153 72.851 301.955 72.137 301.558C71.423 301.15 70.862 300.583 70.454 299.858C70.046 299.121 69.842 298.271 69.842 297.308C69.842 296.356 70.0517 295.512 70.471 294.775C70.8904 294.038 71.4627 293.472 72.188 293.075C72.9134 292.678 73.7237 292.48 74.619 292.48C75.5144 292.48 76.3247 292.678 77.05 293.075C77.7754 293.472 78.3477 294.038 78.767 294.775C79.1864 295.512 79.396 296.356 79.396 297.308C79.396 298.26 79.1807 299.104 78.75 299.841C78.3194 300.578 77.73 301.15 76.982 301.558C76.2454 301.955 75.4294 302.153 74.534 302.153ZM74.534 300.47C75.0327 300.47 75.4974 300.351 75.928 300.113C76.37 299.875 76.727 299.518 76.999 299.042C77.271 298.566 77.407 297.988 77.407 297.308C77.407 296.628 77.2767 296.056 77.016 295.591C76.7554 295.115 76.4097 294.758 75.979 294.52C75.5484 294.282 75.0837 294.163 74.585 294.163C74.0864 294.163 73.6217 294.282 73.191 294.52C72.7717 294.758 72.4374 295.115 72.188 295.591C71.9387 296.056 71.814 296.628 71.814 297.308C71.814 298.317 72.069 299.099 72.579 299.654C73.1004 300.198 73.752 300.47 74.534 300.47ZM82.8079 291.392C82.4565 291.392 82.1619 291.273 81.9239 291.035C81.6859 290.797 81.5669 290.502 81.5669 290.151C81.5669 289.8 81.6859 289.505 81.9239 289.267C82.1619 289.029 82.4565 288.91 82.8079 288.91C83.1479 288.91 83.4369 289.029 83.6749 289.267C83.9129 289.505 84.0319 289.8 84.0319 290.151C84.0319 290.502 83.9129 290.797 83.6749 291.035C83.4369 291.273 83.1479 291.392 82.8079 291.392ZM83.7599 303.836C83.7599 304.754 83.5275 305.417 83.0629 305.825C82.6095 306.244 81.9465 306.454 81.0739 306.454H80.0709V304.822H80.7339C81.1305 304.822 81.4082 304.743 81.5669 304.584C81.7369 304.437 81.8219 304.187 81.8219 303.836V292.633H83.7599V303.836ZM95.3993 297.087C95.3993 297.438 95.3766 297.756 95.3313 298.039H88.1743C88.2309 298.787 88.5086 299.388 89.0073 299.841C89.5059 300.294 90.1179 300.521 90.8433 300.521C91.8859 300.521 92.6226 300.085 93.0533 299.212H95.1443C94.8609 300.073 94.3453 300.782 93.5973 301.337C92.8606 301.881 91.9426 302.153 90.8433 302.153C89.9479 302.153 89.1433 301.955 88.4293 301.558C87.7266 301.15 87.1713 300.583 86.7633 299.858C86.3666 299.121 86.1683 298.271 86.1683 297.308C86.1683 296.345 86.3609 295.5 86.7463 294.775C87.1429 294.038 87.6926 293.472 88.3953 293.075C89.1093 292.678 89.9253 292.48 90.8433 292.48C91.7273 292.48 92.5149 292.673 93.2063 293.058C93.8976 293.443 94.4359 293.987 94.8213 294.69C95.2066 295.381 95.3993 296.18 95.3993 297.087ZM93.3763 296.475C93.3649 295.761 93.1099 295.189 92.6113 294.758C92.1126 294.327 91.4949 294.112 90.7583 294.112C90.0896 294.112 89.5173 294.327 89.0413 294.758C88.5653 295.177 88.2819 295.75 88.1913 296.475H93.3763ZM97.1705 297.308C97.1705 296.345 97.3631 295.5 97.7485 294.775C98.1451 294.038 98.6891 293.472 99.3805 293.075C100.072 292.678 100.865 292.48 101.76 292.48C102.894 292.48 103.829 292.752 104.565 293.296C105.313 293.829 105.818 294.594 106.078 295.591H103.987C103.817 295.126 103.545 294.764 103.171 294.503C102.797 294.242 102.327 294.112 101.76 294.112C100.967 294.112 100.332 294.395 99.8565 294.962C99.3918 295.517 99.1595 296.299 99.1595 297.308C99.1595 298.317 99.3918 299.104 99.8565 299.671C100.332 300.238 100.967 300.521 101.76 300.521C102.882 300.521 103.625 300.028 103.987 299.042H106.078C105.806 299.994 105.296 300.753 104.548 301.32C103.8 301.875 102.871 302.153 101.76 302.153C100.865 302.153 100.072 301.955 99.3805 301.558C98.6891 301.15 98.1451 300.583 97.7485 299.858C97.3631 299.121 97.1705 298.271 97.1705 297.308ZM110.781 294.214V299.399C110.781 299.75 110.86 300.005 111.019 300.164C111.189 300.311 111.472 300.385 111.869 300.385H113.059V302H111.529C110.656 302 109.987 301.796 109.523 301.388C109.058 300.98 108.826 300.317 108.826 299.399V294.214H107.721V292.633H108.826V290.304H110.781V292.633H113.059V294.214H110.781Z" fill="#396DF2"/>
<rect x="0.5" y="272.5" width="125" height="47" rx="7.5" stroke="#6070FF"/>
</g>
<defs>
<clipPath id="clip0_39_313">
<rect width="295" height="332" fill="white"/>
</clipPath>
<clipPath id="clip1_39_313">
<rect width="295" height="124" fill="white"/>
</clipPath>
<clipPath id="clip2_39_313">
<rect width="236" height="32" fill="white" transform="translate(0 92)"/>
</clipPath>
<clipPath id="clip3_39_313">
<rect width="214" height="24" fill="white" transform="translate(0 224)"/>
</clipPath>
</defs>
</svg>
