<svg width="297" height="40" viewBox="0 0 297 40" fill="none" xmlns="http://www.w3.org/2000/svg">
<g clip-path="url(#clip0_34_928)">
<path d="M6.912 13.166C8.472 13.166 9.768 13.562 10.8 14.354C11.832 15.146 12.528 16.22 12.888 17.576H10.71C10.41 16.808 9.93 16.202 9.27 15.758C8.622 15.302 7.824 15.074 6.876 15.074C6.12 15.074 5.442 15.26 4.842 15.632C4.254 16.004 3.786 16.538 3.438 17.234C3.102 17.918 2.934 18.722 2.934 19.646C2.934 20.558 3.102 21.362 3.438 22.058C3.786 22.742 4.254 23.27 4.842 23.642C5.442 24.014 6.12 24.2 6.876 24.2C7.824 24.2 8.622 23.978 9.27 23.534C9.93 23.078 10.41 22.472 10.71 21.716H12.888C12.528 23.072 11.832 24.146 10.8 24.938C9.768 25.718 8.472 26.108 6.912 26.108C5.712 26.108 4.65 25.838 3.726 25.298C2.802 24.746 2.088 23.984 1.584 23.012C1.08 22.028 0.828 20.906 0.828 19.646C0.828 18.386 1.08 17.27 1.584 16.298C2.088 15.314 2.802 14.546 3.726 13.994C4.65 13.442 5.712 13.166 6.912 13.166ZM22.5134 23.246H17.1494L16.1774 26H13.9814L18.6614 13.49H21.0194L25.6814 26H23.4854L22.5134 23.246ZM21.9374 21.662L19.8314 15.722L17.7254 21.662H21.9374ZM37.4829 26H35.4309L29.2569 16.622V26H27.2049V13.31H29.2569L35.4309 22.724V13.31H37.4829V26ZM45.8526 13.13C47.0286 13.13 48.0906 13.406 49.0386 13.958C49.9986 14.51 50.7486 15.284 51.2886 16.28C51.8406 17.264 52.1166 18.38 52.1166 19.628C52.1166 20.876 51.8406 21.998 51.2886 22.994C50.7486 23.978 49.9986 24.752 49.0386 25.316C48.0906 25.868 47.0286 26.144 45.8526 26.144C44.6646 26.144 43.5906 25.868 42.6306 25.316C41.6826 24.752 40.9326 23.978 40.3806 22.994C39.8286 21.998 39.5526 20.876 39.5526 19.628C39.5526 18.38 39.8286 17.264 40.3806 16.28C40.9326 15.284 41.6826 14.51 42.6306 13.958C43.5906 13.406 44.6646 13.13 45.8526 13.13ZM45.8526 15.038C45.0366 15.038 44.3106 15.224 43.6746 15.596C43.0386 15.968 42.5406 16.502 42.1806 17.198C41.8326 17.894 41.6586 18.704 41.6586 19.628C41.6586 20.552 41.8326 21.362 42.1806 22.058C42.5406 22.754 43.0386 23.288 43.6746 23.66C44.3106 24.032 45.0366 24.218 45.8526 24.218C46.6566 24.218 47.3706 24.032 47.9946 23.66C48.6306 23.288 49.1226 22.754 49.4706 22.058C49.8306 21.362 50.0106 20.552 50.0106 19.628C50.0106 18.704 49.8306 17.894 49.4706 17.198C49.1226 16.502 48.6306 15.968 47.9946 15.596C47.3706 15.224 46.6566 15.038 45.8526 15.038ZM56.2393 21.068V26H54.1873V13.292H58.5073C59.9713 13.292 61.0693 13.64 61.8013 14.336C62.5453 15.032 62.9173 15.986 62.9173 17.198C62.9173 18.398 62.5393 19.346 61.7833 20.042C61.0273 20.726 59.9353 21.068 58.5073 21.068H56.2393ZM58.2913 19.394C59.9833 19.394 60.8293 18.662 60.8293 17.198C60.8293 16.478 60.6253 15.932 60.2173 15.56C59.8213 15.176 59.1793 14.984 58.2913 14.984H56.2393V19.394H58.2913ZM74.3106 13.292L70.0806 21.374V26H68.0106V21.374L63.7626 13.292H66.1386L69.0546 19.178L71.9706 13.292H74.3106Z" fill="#344563"/>
<circle cx="91" cy="20" r="4" fill="#C1C7D0"/>
<path d="M114.506 19.43C115.286 19.598 115.916 19.97 116.396 20.546C116.888 21.122 117.134 21.8 117.134 22.58C117.134 23.612 116.78 24.44 116.072 25.064C115.376 25.688 114.362 26 113.03 26H108.314V13.31H112.958C114.23 13.31 115.196 13.592 115.856 14.156C116.516 14.72 116.846 15.494 116.846 16.478C116.846 17.294 116.624 17.954 116.18 18.458C115.748 18.962 115.19 19.286 114.506 19.43ZM109.952 18.872H112.688C113.492 18.872 114.104 18.686 114.524 18.314C114.956 17.942 115.172 17.42 115.172 16.748C115.172 16.1 114.962 15.59 114.542 15.218C114.122 14.846 113.48 14.66 112.616 14.66H109.952V18.872ZM112.724 24.632C113.588 24.632 114.254 24.434 114.722 24.038C115.202 23.642 115.442 23.084 115.442 22.364C115.442 21.656 115.196 21.104 114.704 20.708C114.224 20.3 113.552 20.096 112.688 20.096H109.952V24.632H112.724ZM123.227 15.992C124.187 15.992 124.997 16.232 125.657 16.712C126.329 17.192 126.797 17.834 127.061 18.638V16.118H128.699V26H127.061V23.48C126.797 24.284 126.329 24.926 125.657 25.406C124.997 25.886 124.187 26.126 123.227 26.126C122.351 26.126 121.571 25.922 120.887 25.514C120.203 25.106 119.663 24.524 119.267 23.768C118.883 23 118.691 22.1 118.691 21.068C118.691 20.036 118.883 19.136 119.267 18.368C119.663 17.6 120.203 17.012 120.887 16.604C121.571 16.196 122.351 15.992 123.227 15.992ZM123.695 17.45C122.687 17.45 121.877 17.774 121.265 18.422C120.665 19.058 120.365 19.94 120.365 21.068C120.365 22.196 120.665 23.084 121.265 23.732C121.877 24.368 122.687 24.686 123.695 24.686C124.343 24.686 124.919 24.536 125.423 24.236C125.939 23.936 126.341 23.516 126.629 22.976C126.917 22.424 127.061 21.788 127.061 21.068C127.061 20.348 126.917 19.712 126.629 19.16C126.341 18.608 125.939 18.188 125.423 17.9C124.919 17.6 124.343 17.45 123.695 17.45ZM135.68 15.992C136.94 15.992 137.984 16.328 138.812 17C139.64 17.672 140.15 18.572 140.342 19.7H138.614C138.494 18.992 138.164 18.44 137.624 18.044C137.096 17.636 136.436 17.432 135.644 17.432C135.068 17.432 134.54 17.564 134.06 17.828C133.592 18.092 133.214 18.5 132.926 19.052C132.638 19.592 132.494 20.264 132.494 21.068C132.494 21.872 132.638 22.55 132.926 23.102C133.214 23.642 133.592 24.044 134.06 24.308C134.54 24.572 135.068 24.704 135.644 24.704C136.436 24.704 137.096 24.5 137.624 24.092C138.164 23.684 138.494 23.126 138.614 22.418H140.342C140.15 23.558 139.64 24.464 138.812 25.136C137.984 25.796 136.94 26.126 135.68 26.126C134.732 26.126 133.892 25.922 133.16 25.514C132.428 25.106 131.852 24.524 131.432 23.768C131.024 23 130.82 22.1 130.82 21.068C130.82 20.036 131.024 19.136 131.432 18.368C131.852 17.6 132.428 17.012 133.16 16.604C133.892 16.196 134.732 15.992 135.68 15.992ZM147.904 26L144.124 21.554V26H142.486V12.68H144.124V20.42L147.85 16.118H149.848L145.42 21.032L149.956 26H147.904ZM157.483 14.642V18.98H162.307V20.24H157.483V24.668H162.847V26H155.845V13.31H162.847V14.642H157.483ZM170.153 15.956C171.305 15.956 172.235 16.328 172.943 17.072C173.651 17.804 174.005 18.866 174.005 20.258V26H172.367V20.402C172.367 19.418 172.115 18.662 171.611 18.134C171.107 17.606 170.423 17.342 169.559 17.342C168.659 17.342 167.939 17.636 167.399 18.224C166.859 18.8 166.589 19.646 166.589 20.762V26H164.951V16.118H166.589V18.458C166.841 17.654 167.285 17.036 167.921 16.604C168.569 16.172 169.313 15.956 170.153 15.956ZM180.567 15.992C181.527 15.992 182.337 16.232 182.997 16.712C183.669 17.192 184.137 17.834 184.401 18.638V12.68H186.039V26H184.401V23.48C184.137 24.284 183.669 24.926 182.997 25.406C182.337 25.886 181.527 26.126 180.567 26.126C179.691 26.126 178.911 25.922 178.227 25.514C177.543 25.106 177.003 24.524 176.607 23.768C176.223 23 176.031 22.1 176.031 21.068C176.031 20.036 176.223 19.136 176.607 18.368C177.003 17.6 177.543 17.012 178.227 16.604C178.911 16.196 179.691 15.992 180.567 15.992ZM181.035 17.45C180.027 17.45 179.217 17.774 178.605 18.422C178.005 19.058 177.705 19.94 177.705 21.068C177.705 22.196 178.005 23.084 178.605 23.732C179.217 24.368 180.027 24.686 181.035 24.686C181.683 24.686 182.259 24.536 182.763 24.236C183.279 23.936 183.681 23.516 183.969 22.976C184.257 22.424 184.401 21.788 184.401 21.068C184.401 20.348 184.257 19.712 183.969 19.16C183.681 18.608 183.279 18.188 182.763 17.9C182.259 17.6 181.683 17.45 181.035 17.45ZM203.785 19.646C203.785 20.93 203.527 22.052 203.011 23.012C202.495 23.96 201.733 24.698 200.725 25.226C199.729 25.742 198.529 26 197.125 26H193.093V13.31H197.125C198.529 13.31 199.729 13.568 200.725 14.084C201.733 14.588 202.495 15.32 203.011 16.28C203.527 17.228 203.785 18.35 203.785 19.646ZM196.999 24.524C198.655 24.524 199.921 24.098 200.797 23.246C201.673 22.394 202.111 21.194 202.111 19.646C202.111 18.098 201.673 16.898 200.797 16.046C199.933 15.182 198.667 14.75 196.999 14.75H194.731V24.524H196.999ZM215.086 20.51C215.086 20.858 215.062 21.158 215.014 21.41H207.112C207.148 22.538 207.466 23.384 208.066 23.948C208.678 24.512 209.422 24.794 210.298 24.794C211.09 24.794 211.75 24.596 212.278 24.2C212.818 23.792 213.148 23.252 213.268 22.58H215.014C214.894 23.264 214.624 23.876 214.204 24.416C213.796 24.956 213.262 25.376 212.602 25.676C211.942 25.976 211.198 26.126 210.37 26.126C209.422 26.126 208.582 25.922 207.85 25.514C207.118 25.106 206.542 24.524 206.122 23.768C205.714 23 205.51 22.1 205.51 21.068C205.51 20.036 205.714 19.136 206.122 18.368C206.542 17.6 207.118 17.012 207.85 16.604C208.582 16.196 209.422 15.992 210.37 15.992C211.33 15.992 212.164 16.196 212.872 16.604C213.592 17.012 214.138 17.558 214.51 18.242C214.894 18.926 215.086 19.682 215.086 20.51ZM213.43 20.618C213.466 19.886 213.346 19.274 213.07 18.782C212.794 18.29 212.416 17.924 211.936 17.684C211.456 17.444 210.934 17.324 210.37 17.324C209.47 17.324 208.714 17.606 208.102 18.17C207.49 18.722 207.16 19.538 207.112 20.618H213.43ZM221.062 24.254L224.122 16.118H225.886L222.016 26H220.072L216.202 16.118H217.966L221.062 24.254Z" fill="#6B778C"/>
<circle cx="243" cy="20" r="4" fill="#C1C7D0"/>
<path d="M259.756 24.74C261.796 23.372 263.428 22.016 264.652 20.672C265.876 19.316 266.488 18.056 266.488 16.892C266.488 16.172 266.302 15.596 265.93 15.164C265.57 14.72 264.982 14.498 264.166 14.498C263.326 14.498 262.69 14.768 262.258 15.308C261.826 15.836 261.586 16.568 261.538 17.504H259.918C260.002 16.088 260.44 15.002 261.232 14.246C262.024 13.478 263.044 13.094 264.292 13.094C265.48 13.094 266.422 13.412 267.118 14.048C267.814 14.684 268.162 15.584 268.162 16.748C268.162 17.708 267.85 18.686 267.226 19.682C266.614 20.666 265.84 21.584 264.904 22.436C263.98 23.276 263.026 23.99 262.042 24.578H268.486V25.928H259.756V24.74ZM270.239 19.574C270.239 21.614 270.575 23.204 271.247 24.344C271.919 25.484 273.083 26.054 274.739 26.054C276.395 26.054 277.559 25.484 278.231 24.344C278.915 23.204 279.257 21.614 279.257 19.574C279.257 17.558 278.915 15.98 278.231 14.84C277.559 13.7 276.395 13.13 274.739 13.13C273.083 13.13 271.919 13.7 271.247 14.84C270.575 15.968 270.239 17.546 270.239 19.574ZM277.637 19.574C277.637 20.618 277.559 21.494 277.403 22.202C277.259 22.898 276.977 23.456 276.557 23.876C276.137 24.296 275.531 24.506 274.739 24.506C273.959 24.506 273.359 24.296 272.939 23.876C272.519 23.456 272.231 22.898 272.075 22.202C271.931 21.494 271.859 20.618 271.859 19.574C271.859 18.542 271.931 17.678 272.075 16.982C272.231 16.286 272.519 15.734 272.939 15.326C273.359 14.906 273.959 14.696 274.739 14.696C275.531 14.696 276.137 14.906 276.557 15.326C276.977 15.734 277.259 16.286 277.403 16.982C277.559 17.678 277.637 18.542 277.637 19.574ZM280.504 14.84V13.31H284.14V26H282.412V14.84H280.504ZM295.014 14.606H288.498V18.854C288.798 18.446 289.23 18.122 289.794 17.882C290.358 17.642 290.976 17.522 291.648 17.522C292.548 17.522 293.292 17.714 293.88 18.098C294.48 18.47 294.918 18.968 295.194 19.592C295.482 20.204 295.626 20.888 295.626 21.644C295.626 22.952 295.26 24.02 294.527 24.848C293.796 25.676 292.722 26.09 291.306 26.09C290.034 26.09 288.996 25.748 288.192 25.064C287.388 24.368 286.938 23.438 286.842 22.274H288.462C288.594 23.018 288.9 23.6 289.38 24.02C289.872 24.428 290.49 24.632 291.234 24.632C292.158 24.632 292.854 24.356 293.322 23.804C293.79 23.252 294.024 22.526 294.024 21.626C294.024 20.75 293.784 20.066 293.304 19.574C292.824 19.082 292.146 18.836 291.27 18.836C290.646 18.836 290.1 18.974 289.632 19.25C289.164 19.514 288.81 19.874 288.57 20.33H286.986V13.148H295.014V14.606Z" fill="#6B778C"/>
</g>
<defs>
<clipPath id="clip0_34_928">
<rect width="297" height="40" fill="white"/>
</clipPath>
</defs>
</svg>
