<svg width="295" height="288" viewBox="0 0 295 288" fill="none" xmlns="http://www.w3.org/2000/svg">
<g clip-path="url(#clip0_39_288)">
<g clip-path="url(#clip1_39_288)">
<path d="M18.144 10.376V14.728H12V33H6.496V14.728H0.416V10.376H18.144ZM28.8025 14.92C30.5732 14.92 32.1518 15.2933 33.5385 16.04C34.9465 16.7653 36.0452 17.8213 36.8345 19.208C37.6452 20.5947 38.0505 22.216 38.0505 24.072C38.0505 25.928 37.6452 27.5493 36.8345 28.936C36.0452 30.3227 34.9465 31.3893 33.5385 32.136C32.1518 32.8613 30.5732 33.224 28.8025 33.224C27.0318 33.224 25.4425 32.8613 24.0345 32.136C22.6265 31.3893 21.5172 30.3227 20.7065 28.936C19.9172 27.5493 19.5225 25.928 19.5225 24.072C19.5225 22.216 19.9172 20.5947 20.7065 19.208C21.5172 17.8213 22.6265 16.7653 24.0345 16.04C25.4425 15.2933 27.0318 14.92 28.8025 14.92ZM28.8025 19.656C27.7572 19.656 26.8718 20.04 26.1465 20.808C25.4425 21.5547 25.0905 22.6427 25.0905 24.072C25.0905 25.5013 25.4425 26.5893 26.1465 27.336C26.8718 28.0827 27.7572 28.456 28.8025 28.456C29.8478 28.456 30.7225 28.0827 31.4265 27.336C32.1305 26.5893 32.4825 25.5013 32.4825 24.072C32.4825 22.6427 32.1305 21.5547 31.4265 20.808C30.7225 20.04 29.8478 19.656 28.8025 19.656ZM52.216 14.952C54.264 14.952 55.8853 15.6347 57.08 17C58.296 18.3653 58.904 20.2427 58.904 22.632V33H53.432V23.272C53.432 22.0773 53.112 21.1493 52.472 20.488C51.8533 19.8053 51.0213 19.464 49.976 19.464C48.8667 19.464 47.9813 19.816 47.32 20.52C46.68 21.224 46.36 22.2267 46.36 23.528V33H40.888V15.144H46.36V18.408C46.872 17.3413 47.6293 16.4987 48.632 15.88C49.656 15.2613 50.8507 14.952 52.216 14.952ZM62.001 10.12C62.001 9.288 62.2997 8.60533 62.897 8.072C63.4943 7.51733 64.2837 7.24 65.265 7.24C66.2463 7.24 67.0357 7.51733 67.633 8.072C68.2303 8.60533 68.529 9.288 68.529 10.12C68.529 10.9307 68.2303 11.6133 67.633 12.168C67.0357 12.7013 66.2463 12.968 65.265 12.968C64.2837 12.968 63.4943 12.7013 62.897 12.168C62.2997 11.6133 62.001 10.9307 62.001 10.12ZM67.985 15.144V33H62.513V15.144H67.985ZM79.827 14.92C82.131 14.92 84.0617 15.56 85.619 16.84C87.1763 18.0987 88.1577 19.8373 88.563 22.056H82.771C82.6003 21.288 82.2483 20.6907 81.715 20.264C81.1817 19.8373 80.5097 19.624 79.699 19.624C78.739 19.624 77.9497 20.008 77.331 20.776C76.7123 21.5227 76.403 22.6213 76.403 24.072C76.403 25.5227 76.7123 26.632 77.331 27.4C77.9497 28.1467 78.739 28.52 79.699 28.52C80.5097 28.52 81.1817 28.3067 81.715 27.88C82.2483 27.4533 82.6003 26.856 82.771 26.088H88.563C88.1577 28.3067 87.1763 30.056 85.619 31.336C84.0617 32.5947 82.131 33.224 79.827 33.224C78.0777 33.224 76.5203 32.8613 75.155 32.136C73.811 31.3893 72.755 30.3227 71.987 28.936C71.219 27.5493 70.835 25.928 70.835 24.072C70.835 22.1947 71.2083 20.5733 71.955 19.208C72.723 17.8213 73.7897 16.7653 75.155 16.04C76.5203 15.2933 78.0777 14.92 79.827 14.92Z" fill="#172B4D"/>
<g clip-path="url(#clip2_39_288)">
<path d="M4.979 59.731C6.123 59.731 7.072 60.0257 7.826 60.615C8.58 61.2043 9.07833 62.006 9.321 63.02H7.397C7.19767 62.526 6.88567 62.136 6.461 61.85C6.045 61.564 5.54233 61.421 4.953 61.421C4.46767 61.421 4.03 61.5423 3.64 61.785C3.25 62.0277 2.94667 62.3743 2.73 62.825C2.51333 63.2757 2.405 63.8043 2.405 64.411C2.405 65.009 2.51333 65.5333 2.73 65.984C2.94667 66.4347 3.25 66.7813 3.64 67.024C4.03 67.2667 4.46767 67.388 4.953 67.388C5.54233 67.388 6.045 67.245 6.461 66.959C6.88567 66.673 7.19767 66.283 7.397 65.789H9.321C9.07833 66.803 8.58 67.6047 7.826 68.194C7.072 68.7833 6.123 69.078 4.979 69.078C4.10367 69.078 3.328 68.883 2.652 68.493C1.98467 68.0943 1.46467 67.5397 1.092 66.829C0.728 66.1183 0.546 65.3123 0.546 64.411C0.546 63.501 0.728 62.6907 1.092 61.98C1.46467 61.2693 1.98467 60.719 2.652 60.329C3.31933 59.9303 4.095 59.731 4.979 59.731ZM16.2863 67.154H12.6073L11.9573 69H10.0203L13.4003 59.926H15.4933L18.8603 69H16.9233L16.2863 67.154ZM15.7923 65.763L14.4403 61.889L13.0883 65.763H15.7923ZM27.6236 69H25.7906L21.6826 62.76V69H19.8496V59.822H21.6826L25.7906 66.114V59.822H27.6236V69ZM33.5852 59.692C34.4432 59.692 35.2189 59.8913 35.9122 60.29C36.6142 60.6887 37.1645 61.2477 37.5632 61.967C37.9705 62.6777 38.1742 63.4837 38.1742 64.385C38.1742 65.2863 37.9705 66.0967 37.5632 66.816C37.1645 67.5353 36.6142 68.0943 35.9122 68.493C35.2189 68.8917 34.4432 69.091 33.5852 69.091C32.7272 69.091 31.9472 68.8917 31.2452 68.493C30.5519 68.0943 30.0015 67.5353 29.5942 66.816C29.1955 66.0967 28.9962 65.2863 28.9962 64.385C28.9962 63.4837 29.1955 62.6777 29.5942 61.967C30.0015 61.2477 30.5519 60.6887 31.2452 60.29C31.9472 59.8913 32.7272 59.692 33.5852 59.692ZM33.5852 61.382C33.0479 61.382 32.5755 61.5033 32.1682 61.746C31.7609 61.9887 31.4402 62.3397 31.2062 62.799C30.9809 63.2497 30.8682 63.7783 30.8682 64.385C30.8682 64.9917 30.9809 65.5247 31.2062 65.984C31.4402 66.4347 31.7609 66.7813 32.1682 67.024C32.5755 67.2667 33.0479 67.388 33.5852 67.388C34.1225 67.388 34.5949 67.2667 35.0022 67.024C35.4095 66.7813 35.7259 66.4347 35.9512 65.984C36.1852 65.5247 36.3022 64.9917 36.3022 64.385C36.3022 63.7783 36.1852 63.2497 35.9512 62.799C35.7259 62.3397 35.4095 61.9887 35.0022 61.746C34.5949 61.5033 34.1225 61.382 33.5852 61.382ZM41.3857 65.594V69H39.5527V59.822H42.8937C43.977 59.822 44.7917 60.082 45.3377 60.602C45.8924 61.122 46.1697 61.8283 46.1697 62.721C46.1697 63.5963 45.8837 64.294 45.3117 64.814C44.7484 65.334 43.9424 65.594 42.8937 65.594H41.3857ZM42.6987 64.125C43.7734 64.125 44.3107 63.657 44.3107 62.721C44.3107 62.2617 44.185 61.9107 43.9337 61.668C43.6824 61.4253 43.2707 61.304 42.6987 61.304H41.3857V64.125H42.6987ZM54.7573 59.822L51.6503 65.789V69H49.8043V65.789L46.6843 59.822H48.7903L50.7403 63.839L52.6903 59.822H54.7573Z" fill="#344563"/>
<circle cx="71" cy="64" r="4" fill="#C1C7D0"/>
<path d="M92.954 64.268C93.5087 64.3807 93.9507 64.645 94.28 65.061C94.618 65.4683 94.787 65.9493 94.787 66.504C94.787 67.2753 94.527 67.8863 94.007 68.337C93.4957 68.779 92.7503 69 91.771 69H87.832V59.822H91.693C92.6203 59.822 93.331 60.0257 93.825 60.433C94.3277 60.8403 94.579 61.4123 94.579 62.149C94.579 62.721 94.4273 63.189 94.124 63.553C93.8293 63.917 93.4393 64.1553 92.954 64.268ZM89.665 63.67H91.316C91.7753 63.67 92.122 63.5703 92.356 63.371C92.5987 63.163 92.72 62.8683 92.72 62.487C92.72 62.1057 92.603 61.811 92.369 61.603C92.135 61.395 91.7753 61.291 91.29 61.291H89.665V63.67ZM91.407 67.505C91.8923 67.505 92.265 67.401 92.525 67.193C92.785 66.9763 92.915 66.6643 92.915 66.257C92.915 65.8497 92.7807 65.5377 92.512 65.321C92.252 65.0957 91.8793 64.983 91.394 64.983H89.665V67.505H91.407ZM98.8923 61.707C99.4989 61.707 100.019 61.85 100.452 62.136C100.886 62.422 101.193 62.8077 101.375 63.293V61.798H103.195V69H101.375V67.492C101.193 67.9773 100.886 68.3673 100.452 68.662C100.019 68.948 99.4989 69.091 98.8923 69.091C98.2856 69.091 97.7396 68.9437 97.2543 68.649C96.7689 68.3543 96.3876 67.9297 96.1103 67.375C95.8416 66.8117 95.7073 66.153 95.7073 65.399C95.7073 64.645 95.8416 63.9907 96.1103 63.436C96.3876 62.8727 96.7689 62.4437 97.2543 62.149C97.7396 61.8543 98.2856 61.707 98.8923 61.707ZM99.4643 63.306C98.8923 63.306 98.4329 63.4923 98.0863 63.865C97.7396 64.2377 97.5663 64.749 97.5663 65.399C97.5663 66.049 97.7396 66.5603 98.0863 66.933C98.4329 67.297 98.8923 67.479 99.4643 67.479C100.019 67.479 100.474 67.2927 100.829 66.92C101.193 66.5387 101.375 66.0317 101.375 65.399C101.375 64.7577 101.193 64.2507 100.829 63.878C100.474 63.4967 100.019 63.306 99.4643 63.306ZM108.093 61.707C109.021 61.707 109.792 61.9583 110.407 62.461C111.031 62.9637 111.421 63.6483 111.577 64.515H109.64C109.562 64.1337 109.385 63.8347 109.107 63.618C108.83 63.3927 108.479 63.28 108.054 63.28C107.569 63.28 107.162 63.462 106.832 63.826C106.512 64.1813 106.351 64.7057 106.351 65.399C106.351 66.0923 106.512 66.621 106.832 66.985C107.162 67.3403 107.569 67.518 108.054 67.518C108.479 67.518 108.83 67.4097 109.107 67.193C109.385 66.9677 109.562 66.6643 109.64 66.283H111.577C111.421 67.1497 111.031 67.8343 110.407 68.337C109.792 68.8397 109.021 69.091 108.093 69.091C107.391 69.091 106.767 68.9437 106.221 68.649C105.675 68.3457 105.251 67.9167 104.947 67.362C104.644 66.8073 104.492 66.153 104.492 65.399C104.492 64.645 104.644 63.9907 104.947 63.436C105.251 62.8727 105.675 62.4437 106.221 62.149C106.767 61.8543 107.391 61.707 108.093 61.707ZM117.092 69L114.713 65.854V69H112.88V59.38H114.713V64.788L117.079 61.798H119.25L116.221 65.386L119.328 69H117.092ZM124.882 61.278V63.657H128.132V65.061H124.882V67.531H128.522V69H123.049V59.822H128.522V61.278H124.882ZM134.169 61.694C135.001 61.694 135.664 61.967 136.158 62.513C136.652 63.059 136.899 63.826 136.899 64.814V69H135.079V65.022C135.079 64.45 134.932 64.008 134.637 63.696C134.342 63.3753 133.939 63.215 133.428 63.215C132.908 63.215 132.492 63.384 132.18 63.722C131.868 64.06 131.712 64.5453 131.712 65.178V69H129.879V61.798H131.712V63.241C131.903 62.7557 132.215 62.3787 132.648 62.11C133.09 61.8327 133.597 61.694 134.169 61.694ZM141.333 61.707C141.939 61.707 142.455 61.85 142.88 62.136C143.313 62.422 143.625 62.8077 143.816 63.293V59.38H145.636V69H143.816V67.492C143.625 67.9773 143.313 68.3673 142.88 68.662C142.455 68.948 141.939 69.091 141.333 69.091C140.726 69.091 140.18 68.9437 139.695 68.649C139.209 68.3543 138.828 67.9297 138.551 67.375C138.282 66.8117 138.148 66.153 138.148 65.399C138.148 64.645 138.282 63.9907 138.551 63.436C138.828 62.8727 139.209 62.4437 139.695 62.149C140.18 61.8543 140.726 61.707 141.333 61.707ZM141.905 63.306C141.333 63.306 140.873 63.4923 140.527 63.865C140.18 64.2377 140.007 64.749 140.007 65.399C140.007 66.049 140.18 66.5603 140.527 66.933C140.873 67.297 141.333 67.479 141.905 67.479C142.459 67.479 142.914 67.2927 143.27 66.92C143.634 66.5387 143.816 66.0317 143.816 65.399C143.816 64.7577 143.634 64.2507 143.27 63.878C142.914 63.4967 142.459 63.306 141.905 63.306ZM158.201 64.398C158.201 65.308 158.01 66.1097 157.629 66.803C157.248 67.4963 156.693 68.038 155.965 68.428C155.246 68.8093 154.388 69 153.391 69H150.128V59.822H153.391C154.388 59.822 155.246 60.0127 155.965 60.394C156.693 60.7667 157.248 61.2997 157.629 61.993C158.01 62.6777 158.201 63.4793 158.201 64.398ZM153.235 67.362C154.223 67.362 154.986 67.102 155.523 66.582C156.069 66.062 156.342 65.334 156.342 64.398C156.342 63.4533 156.069 62.721 155.523 62.201C154.986 61.681 154.223 61.421 153.235 61.421H151.961V67.362H153.235ZM166.346 65.126C166.346 65.308 166.325 65.516 166.281 65.75H161.003C161.029 66.3913 161.203 66.8637 161.523 67.167C161.844 67.4703 162.243 67.622 162.719 67.622C163.144 67.622 163.495 67.518 163.772 67.31C164.058 67.102 164.24 66.8203 164.318 66.465H166.255C166.16 66.9677 165.956 67.4183 165.644 67.817C165.332 68.2157 164.929 68.5277 164.435 68.753C163.95 68.9783 163.408 69.091 162.81 69.091C162.108 69.091 161.484 68.9437 160.938 68.649C160.392 68.3457 159.968 67.9167 159.664 67.362C159.361 66.8073 159.209 66.153 159.209 65.399C159.209 64.645 159.361 63.9907 159.664 63.436C159.968 62.8727 160.392 62.4437 160.938 62.149C161.484 61.8543 162.108 61.707 162.81 61.707C163.521 61.707 164.141 61.8543 164.669 62.149C165.207 62.4437 165.618 62.851 165.904 63.371C166.199 63.8823 166.346 64.4673 166.346 65.126ZM164.5 64.944C164.526 64.3547 164.37 63.9083 164.032 63.605C163.703 63.3017 163.296 63.15 162.81 63.15C162.316 63.15 161.9 63.3017 161.562 63.605C161.224 63.9083 161.038 64.3547 161.003 64.944H164.5ZM170.78 67.167L172.6 61.798H174.55L171.885 69H169.649L166.984 61.798H168.947L170.78 67.167Z" fill="#7A869A"/>
<circle cx="191" cy="64" r="4" fill="#C1C7D0"/>
<path d="M207.481 67.557C210.419 65.5203 211.888 63.8303 211.888 62.487C211.888 62.0797 211.788 61.759 211.589 61.525C211.398 61.291 211.095 61.174 210.679 61.174C209.821 61.174 209.366 61.759 209.314 62.929H207.533C207.585 61.8457 207.914 61.0267 208.521 60.472C209.128 59.9087 209.895 59.627 210.822 59.627C211.767 59.627 212.49 59.874 212.993 60.368C213.504 60.8533 213.76 61.5033 213.76 62.318C213.76 62.9593 213.569 63.605 213.188 64.255C212.815 64.8963 212.339 65.49 211.758 66.036C211.177 66.5733 210.566 67.037 209.925 67.427H213.942V68.922H207.481V67.557ZM214.974 64.333C214.974 67.4443 216.144 69 218.484 69C219.724 69 220.616 68.584 221.162 67.752C221.708 66.92 221.981 65.7803 221.981 64.333C221.981 62.8943 221.708 61.759 221.162 60.927C220.616 60.095 219.724 59.679 218.484 59.679C216.144 59.679 214.974 61.2303 214.974 64.333ZM220.174 64.333C220.174 65.2777 220.057 66.0057 219.823 66.517C219.598 67.0197 219.152 67.271 218.484 67.271C217.808 67.271 217.353 67.0197 217.119 66.517C216.894 66.0057 216.781 65.2777 216.781 64.333C216.781 63.397 216.894 62.6777 217.119 62.175C217.353 61.6637 217.808 61.408 218.484 61.408C219.152 61.408 219.598 61.6637 219.823 62.175C220.057 62.6777 220.174 63.397 220.174 64.333ZM222.733 61.538V59.822H226.035V69H224.111V61.538H222.733ZM234.044 61.252H229.689V63.566C229.888 63.332 230.161 63.1457 230.508 63.007C230.863 62.8597 231.253 62.786 231.678 62.786C232.311 62.786 232.835 62.9247 233.251 63.202C233.676 63.4707 233.988 63.8347 234.187 64.294C234.395 64.7447 234.499 65.2473 234.499 65.802C234.499 66.7813 234.222 67.5657 233.667 68.155C233.121 68.7443 232.337 69.039 231.314 69.039C230.647 69.039 230.066 68.922 229.572 68.688C229.078 68.4453 228.692 68.1117 228.415 67.687C228.138 67.2537 227.986 66.751 227.96 66.179H229.741C229.81 66.569 229.971 66.881 230.222 67.115C230.473 67.3403 230.807 67.453 231.223 67.453C231.726 67.453 232.098 67.3013 232.341 66.998C232.592 66.686 232.718 66.2743 232.718 65.763C232.718 65.2777 232.588 64.9007 232.328 64.632C232.068 64.3633 231.7 64.229 231.223 64.229C230.876 64.229 230.582 64.307 230.339 64.463C230.096 64.6103 229.919 64.8097 229.806 65.061H228.025V59.64H234.044V61.252Z" fill="#7A869A"/>
</g>
</g>
<path d="M7.29 106.555H2.64L1.755 109H0.285L4.2 98.62H5.745L9.645 109H8.175L7.29 106.555ZM6.9 105.49L4.965 100.15L3.03 105.49H6.9ZM18.1077 100.66C18.9077 100.66 19.5827 100.86 20.1327 101.26C20.6927 101.66 21.0827 102.195 21.3027 102.865V97.9H22.6677V109H21.3027V106.9C21.0827 107.57 20.6927 108.105 20.1327 108.505C19.5827 108.905 18.9077 109.105 18.1077 109.105C17.3777 109.105 16.7277 108.935 16.1577 108.595C15.5877 108.255 15.1377 107.77 14.8077 107.14C14.4877 106.5 14.3277 105.75 14.3277 104.89C14.3277 104.03 14.4877 103.28 14.8077 102.64C15.1377 102 15.5877 101.51 16.1577 101.17C16.7277 100.83 17.3777 100.66 18.1077 100.66ZM18.4977 101.875C17.6577 101.875 16.9827 102.145 16.4727 102.685C15.9727 103.215 15.7227 103.95 15.7227 104.89C15.7227 105.83 15.9727 106.57 16.4727 107.11C16.9827 107.64 17.6577 107.905 18.4977 107.905C19.0377 107.905 19.5177 107.78 19.9377 107.53C20.3677 107.28 20.7027 106.93 20.9427 106.48C21.1827 106.02 21.3027 105.49 21.3027 104.89C21.3027 104.29 21.1827 103.76 20.9427 103.3C20.7027 102.84 20.3677 102.49 19.9377 102.25C19.5177 102 19.0377 101.875 18.4977 101.875ZM28.2151 100.66C29.0151 100.66 29.6901 100.86 30.2401 101.26C30.8001 101.66 31.1901 102.195 31.4101 102.865V100.765H32.7751V109H31.4101V106.9C31.1901 107.57 30.8001 108.105 30.2401 108.505C29.6901 108.905 29.0151 109.105 28.2151 109.105C27.4851 109.105 26.8351 108.935 26.2651 108.595C25.6951 108.255 25.2451 107.77 24.9151 107.14C24.5951 106.5 24.4351 105.75 24.4351 104.89C24.4351 104.03 24.5951 103.28 24.9151 102.64C25.2451 102 25.6951 101.51 26.2651 101.17C26.8351 100.83 27.4851 100.66 28.2151 100.66ZM28.6051 101.875C27.7651 101.875 27.0901 102.145 26.5801 102.685C26.0801 103.215 25.8301 103.95 25.8301 104.89C25.8301 105.83 26.0801 106.57 26.5801 107.11C27.0901 107.64 27.7651 107.905 28.6051 107.905C29.1451 107.905 29.6251 107.78 30.0451 107.53C30.4751 107.28 30.8101 106.93 31.0501 106.48C31.2901 106.02 31.4101 105.49 31.4101 104.89C31.4101 104.29 31.2901 103.76 31.0501 103.3C30.8101 102.84 30.4751 102.49 30.0451 102.25C29.6251 102 29.1451 101.875 28.6051 101.875ZM34.7075 98.35C34.7075 98.1 34.7925 97.9 34.9625 97.75C35.1325 97.59 35.3575 97.51 35.6375 97.51C35.9175 97.51 36.1425 97.59 36.3125 97.75C36.4825 97.9 36.5675 98.1 36.5675 98.35C36.5675 98.6 36.4825 98.805 36.3125 98.965C36.1425 99.115 35.9175 99.19 35.6375 99.19C35.3575 99.19 35.1325 99.115 34.9625 98.965C34.7925 98.805 34.7075 98.6 34.7075 98.35ZM36.3125 100.765V109H34.9475V100.765H36.3125ZM39.8721 97.9V109H38.5071V97.9H39.8721ZM42.6367 100.765L45.3067 107.245L47.7817 100.765H49.2967L44.4067 112.9H42.8617L44.5717 108.865L41.1067 100.765H42.6367ZM56.8342 100.66C57.7642 100.66 58.5092 100.905 59.0692 101.395C59.6392 101.875 59.9842 102.525 60.1042 103.345H58.7992C58.7392 102.855 58.5342 102.455 58.1842 102.145C57.8442 101.825 57.3842 101.665 56.8042 101.665C56.3142 101.665 55.9292 101.785 55.6492 102.025C55.3792 102.255 55.2442 102.57 55.2442 102.97C55.2442 103.27 55.3342 103.515 55.5142 103.705C55.7042 103.885 55.9342 104.025 56.2042 104.125C56.4842 104.215 56.8642 104.315 57.3442 104.425C57.9542 104.565 58.4442 104.71 58.8142 104.86C59.1942 105 59.5142 105.23 59.7742 105.55C60.0442 105.87 60.1792 106.3 60.1792 106.84C60.1792 107.51 59.9242 108.055 59.4142 108.475C58.9142 108.895 58.2442 109.105 57.4042 109.105C56.4242 109.105 55.6242 108.87 55.0042 108.4C54.3842 107.93 54.0192 107.275 53.9092 106.435H55.2292C55.2792 106.935 55.4942 107.34 55.8742 107.65C56.2642 107.96 56.7742 108.115 57.4042 108.115C57.8742 108.115 58.2392 107.995 58.4992 107.755C58.7692 107.515 58.9042 107.2 58.9042 106.81C58.9042 106.49 58.8092 106.235 58.6192 106.045C58.4292 105.855 58.1942 105.71 57.9142 105.61C57.6342 105.51 57.2492 105.405 56.7592 105.295C56.1492 105.155 55.6592 105.015 55.2892 104.875C54.9292 104.735 54.6192 104.515 54.3592 104.215C54.1092 103.905 53.9842 103.49 53.9842 102.97C53.9842 102.28 54.2392 101.725 54.7492 101.305C55.2592 100.875 55.9542 100.66 56.8342 100.66ZM69.5782 104.425C69.5782 104.715 69.5582 104.965 69.5182 105.175H62.9332C62.9632 106.115 63.2282 106.82 63.7282 107.29C64.2382 107.76 64.8582 107.995 65.5882 107.995C66.2482 107.995 66.7982 107.83 67.2382 107.5C67.6882 107.16 67.9632 106.71 68.0632 106.15H69.5182C69.4182 106.72 69.1932 107.23 68.8432 107.68C68.5032 108.13 68.0582 108.48 67.5082 108.73C66.9582 108.98 66.3382 109.105 65.6482 109.105C64.8582 109.105 64.1582 108.935 63.5482 108.595C62.9382 108.255 62.4582 107.77 62.1082 107.14C61.7682 106.5 61.5982 105.75 61.5982 104.89C61.5982 104.03 61.7682 103.28 62.1082 102.64C62.4582 102 62.9382 101.51 63.5482 101.17C64.1582 100.83 64.8582 100.66 65.6482 100.66C66.4482 100.66 67.1432 100.83 67.7332 101.17C68.3332 101.51 68.7882 101.965 69.0982 102.535C69.4182 103.105 69.5782 103.735 69.5782 104.425ZM68.1982 104.515C68.2282 103.905 68.1282 103.395 67.8982 102.985C67.6682 102.575 67.3532 102.27 66.9532 102.07C66.5532 101.87 66.1182 101.77 65.6482 101.77C64.8982 101.77 64.2682 102.005 63.7582 102.475C63.2482 102.935 62.9732 103.615 62.9332 104.515H68.1982ZM72.7286 97.9V109H71.3636V97.9H72.7286ZM82.4981 104.425C82.4981 104.715 82.4781 104.965 82.4381 105.175H75.8531C75.8831 106.115 76.1481 106.82 76.6481 107.29C77.1581 107.76 77.7781 107.995 78.5081 107.995C79.1681 107.995 79.7181 107.83 80.1581 107.5C80.6081 107.16 80.8831 106.71 80.9831 106.15H82.4381C82.3381 106.72 82.1131 107.23 81.7631 107.68C81.4231 108.13 80.9781 108.48 80.4281 108.73C79.8781 108.98 79.2581 109.105 78.5681 109.105C77.7781 109.105 77.0781 108.935 76.4681 108.595C75.8581 108.255 75.3781 107.77 75.0281 107.14C74.6881 106.5 74.5181 105.75 74.5181 104.89C74.5181 104.03 74.6881 103.28 75.0281 102.64C75.3781 102 75.8581 101.51 76.4681 101.17C77.0781 100.83 77.7781 100.66 78.5681 100.66C79.3681 100.66 80.0631 100.83 80.6531 101.17C81.2531 101.51 81.7081 101.965 82.0181 102.535C82.3381 103.105 82.4981 103.735 82.4981 104.425ZM81.1181 104.515C81.1481 103.905 81.0481 103.395 80.8181 102.985C80.5881 102.575 80.2731 102.27 79.8731 102.07C79.4731 101.87 79.0381 101.77 78.5681 101.77C77.8181 101.77 77.1881 102.005 76.6781 102.475C76.1681 102.935 75.8931 103.615 75.8531 104.515H81.1181ZM87.9285 100.66C88.9785 100.66 89.8485 100.94 90.5385 101.5C91.2285 102.06 91.6535 102.81 91.8135 103.75H90.3735C90.2735 103.16 89.9985 102.7 89.5485 102.37C89.1085 102.03 88.5585 101.86 87.8985 101.86C87.4185 101.86 86.9785 101.97 86.5785 102.19C86.1885 102.41 85.8735 102.75 85.6335 103.21C85.3935 103.66 85.2735 104.22 85.2735 104.89C85.2735 105.56 85.3935 106.125 85.6335 106.585C85.8735 107.035 86.1885 107.37 86.5785 107.59C86.9785 107.81 87.4185 107.92 87.8985 107.92C88.5585 107.92 89.1085 107.75 89.5485 107.41C89.9985 107.07 90.2735 106.605 90.3735 106.015H91.8135C91.6535 106.965 91.2285 107.72 90.5385 108.28C89.8485 108.83 88.9785 109.105 87.9285 109.105C87.1385 109.105 86.4385 108.935 85.8285 108.595C85.2185 108.255 84.7385 107.77 84.3885 107.14C84.0485 106.5 83.8785 105.75 83.8785 104.89C83.8785 104.03 84.0485 103.28 84.3885 102.64C84.7385 102 85.2185 101.51 85.8285 101.17C86.4385 100.83 87.1385 100.66 87.9285 100.66ZM97.5299 107.8V109H96.5099C95.6699 109 95.0399 108.8 94.6199 108.4C94.2099 108 94.0049 107.33 94.0049 106.39V101.95H92.7749V100.765H94.0049V98.71H95.3849V100.765H97.5149V101.95H95.3849V106.42C95.3849 106.95 95.4799 107.315 95.6699 107.515C95.8699 107.705 96.2099 107.8 96.6899 107.8H97.5299ZM98.9556 98.35C98.9556 98.1 99.0406 97.9 99.2106 97.75C99.3806 97.59 99.6056 97.51 99.8856 97.51C100.166 97.51 100.391 97.59 100.561 97.75C100.731 97.9 100.816 98.1 100.816 98.35C100.816 98.6 100.731 98.805 100.561 98.965C100.391 99.115 100.166 99.19 99.8856 99.19C99.6056 99.19 99.3806 99.115 99.2106 98.965C99.0406 98.805 98.9556 98.6 98.9556 98.35ZM100.561 100.765V109H99.1956V100.765H100.561ZM106.49 100.66C107.28 100.66 107.985 100.83 108.605 101.17C109.235 101.51 109.725 102 110.075 102.64C110.435 103.28 110.615 104.03 110.615 104.89C110.615 105.75 110.435 106.5 110.075 107.14C109.725 107.77 109.235 108.255 108.605 108.595C107.985 108.935 107.28 109.105 106.49 109.105C105.7 109.105 104.99 108.935 104.36 108.595C103.74 108.255 103.25 107.77 102.89 107.14C102.53 106.5 102.35 105.75 102.35 104.89C102.35 104.03 102.53 103.28 102.89 102.64C103.25 102 103.74 101.51 104.36 101.17C104.99 100.83 105.7 100.66 106.49 100.66ZM106.49 101.86C106 101.86 105.545 101.97 105.125 102.19C104.715 102.41 104.38 102.75 104.12 103.21C103.87 103.66 103.745 104.22 103.745 104.89C103.745 105.55 103.87 106.11 104.12 106.57C104.38 107.02 104.715 107.355 105.125 107.575C105.545 107.795 106 107.905 106.49 107.905C106.98 107.905 107.43 107.795 107.84 107.575C108.26 107.355 108.595 107.02 108.845 106.57C109.105 106.11 109.235 105.55 109.235 104.89C109.235 104.22 109.105 103.66 108.845 103.21C108.595 102.75 108.26 102.41 107.84 102.19C107.43 101.97 106.98 101.86 106.49 101.86ZM116.729 100.63C117.689 100.63 118.464 100.94 119.054 101.56C119.644 102.17 119.939 103.055 119.939 104.215V109H118.574V104.335C118.574 103.515 118.364 102.885 117.944 102.445C117.524 102.005 116.954 101.785 116.234 101.785C115.484 101.785 114.884 102.03 114.434 102.52C113.984 103 113.759 103.705 113.759 104.635V109H112.394V100.765H113.759V102.715C113.969 102.045 114.339 101.53 114.869 101.17C115.409 100.81 116.029 100.63 116.729 100.63ZM129.474 100.66C130.264 100.66 130.969 100.83 131.589 101.17C132.219 101.51 132.709 102 133.059 102.64C133.419 103.28 133.599 104.03 133.599 104.89C133.599 105.75 133.419 106.5 133.059 107.14C132.709 107.77 132.219 108.255 131.589 108.595C130.969 108.935 130.264 109.105 129.474 109.105C128.684 109.105 127.974 108.935 127.344 108.595C126.724 108.255 126.234 107.77 125.874 107.14C125.514 106.5 125.334 105.75 125.334 104.89C125.334 104.03 125.514 103.28 125.874 102.64C126.234 102 126.724 101.51 127.344 101.17C127.974 100.83 128.684 100.66 129.474 100.66ZM129.474 101.86C128.984 101.86 128.529 101.97 128.109 102.19C127.699 102.41 127.364 102.75 127.104 103.21C126.854 103.66 126.729 104.22 126.729 104.89C126.729 105.55 126.854 106.11 127.104 106.57C127.364 107.02 127.699 107.355 128.109 107.575C128.529 107.795 128.984 107.905 129.474 107.905C129.964 107.905 130.414 107.795 130.824 107.575C131.244 107.355 131.579 107.02 131.829 106.57C132.089 106.11 132.219 105.55 132.219 104.89C132.219 104.22 132.089 103.66 131.829 103.21C131.579 102.75 131.244 102.41 130.824 102.19C130.414 101.97 129.964 101.86 129.474 101.86ZM139.022 98.815C138.292 98.805 137.782 98.93 137.492 99.19C137.212 99.45 137.072 99.9 137.072 100.54V100.765H139.022V101.965H137.072V109H135.707V101.965H134.522V100.765H135.707V100.435C135.707 98.465 136.812 97.525 139.022 97.615V98.815ZM148.755 100.66C149.485 100.66 150.135 100.83 150.705 101.17C151.275 101.51 151.72 102 152.04 102.64C152.37 103.28 152.535 104.03 152.535 104.89C152.535 105.75 152.37 106.5 152.04 107.14C151.72 107.77 151.275 108.255 150.705 108.595C150.135 108.935 149.485 109.105 148.755 109.105C147.955 109.105 147.275 108.905 146.715 108.505C146.165 108.095 145.785 107.56 145.575 106.9V112.9H144.21V100.765H145.575V102.865C145.785 102.205 146.165 101.675 146.715 101.275C147.275 100.865 147.955 100.66 148.755 100.66ZM148.365 101.875C147.835 101.875 147.355 102 146.925 102.25C146.495 102.49 146.16 102.84 145.92 103.3C145.68 103.76 145.56 104.29 145.56 104.89C145.56 105.49 145.68 106.02 145.92 106.48C146.16 106.93 146.495 107.28 146.925 107.53C147.355 107.78 147.835 107.905 148.365 107.905C149.215 107.905 149.89 107.64 150.39 107.11C150.9 106.57 151.155 105.83 151.155 104.89C151.155 103.95 150.9 103.215 150.39 102.685C149.89 102.145 149.215 101.875 148.365 101.875ZM155.683 102.43C155.953 101.86 156.348 101.42 156.868 101.11C157.388 100.79 158.008 100.63 158.728 100.63V102.115H158.308C157.538 102.115 156.908 102.315 156.418 102.715C155.928 103.105 155.683 103.755 155.683 104.665V109H154.318V100.765H155.683V102.43ZM159.834 98.35C159.834 98.1 159.919 97.9 160.089 97.75C160.259 97.59 160.484 97.51 160.764 97.51C161.044 97.51 161.269 97.59 161.439 97.75C161.609 97.9 161.694 98.1 161.694 98.35C161.694 98.6 161.609 98.805 161.439 98.965C161.269 99.115 161.044 99.19 160.764 99.19C160.484 99.19 160.259 99.115 160.089 98.965C159.919 98.805 159.834 98.6 159.834 98.35ZM161.439 100.765V109H160.074V100.765H161.439ZM166.829 107.545L169.379 100.765H170.849L167.624 109H166.004L162.779 100.765H164.249L166.829 107.545ZM175.564 100.66C176.364 100.66 177.039 100.86 177.589 101.26C178.149 101.66 178.539 102.195 178.759 102.865V100.765H180.124V109H178.759V106.9C178.539 107.57 178.149 108.105 177.589 108.505C177.039 108.905 176.364 109.105 175.564 109.105C174.834 109.105 174.184 108.935 173.614 108.595C173.044 108.255 172.594 107.77 172.264 107.14C171.944 106.5 171.784 105.75 171.784 104.89C171.784 104.03 171.944 103.28 172.264 102.64C172.594 102 173.044 101.51 173.614 101.17C174.184 100.83 174.834 100.66 175.564 100.66ZM175.954 101.875C175.114 101.875 174.439 102.145 173.929 102.685C173.429 103.215 173.179 103.95 173.179 104.89C173.179 105.83 173.429 106.57 173.929 107.11C174.439 107.64 175.114 107.905 175.954 107.905C176.494 107.905 176.974 107.78 177.394 107.53C177.824 107.28 178.159 106.93 178.399 106.48C178.639 106.02 178.759 105.49 178.759 104.89C178.759 104.29 178.639 103.76 178.399 103.3C178.159 102.84 177.824 102.49 177.394 102.25C176.974 102 176.494 101.875 175.954 101.875ZM186.226 107.8V109H185.206C184.366 109 183.736 108.8 183.316 108.4C182.906 108 182.701 107.33 182.701 106.39V101.95H181.471V100.765H182.701V98.71H184.081V100.765H186.211V101.95H184.081V106.42C184.081 106.95 184.176 107.315 184.366 107.515C184.566 107.705 184.906 107.8 185.386 107.8H186.226ZM195.467 104.425C195.467 104.715 195.447 104.965 195.407 105.175H188.822C188.852 106.115 189.117 106.82 189.617 107.29C190.127 107.76 190.747 107.995 191.477 107.995C192.137 107.995 192.687 107.83 193.127 107.5C193.577 107.16 193.852 106.71 193.952 106.15H195.407C195.307 106.72 195.082 107.23 194.732 107.68C194.392 108.13 193.947 108.48 193.397 108.73C192.847 108.98 192.227 109.105 191.537 109.105C190.747 109.105 190.047 108.935 189.437 108.595C188.827 108.255 188.347 107.77 187.997 107.14C187.657 106.5 187.487 105.75 187.487 104.89C187.487 104.03 187.657 103.28 187.997 102.64C188.347 102 188.827 101.51 189.437 101.17C190.047 100.83 190.747 100.66 191.537 100.66C192.337 100.66 193.032 100.83 193.622 101.17C194.222 101.51 194.677 101.965 194.987 102.535C195.307 103.105 195.467 103.735 195.467 104.425ZM194.087 104.515C194.117 103.905 194.017 103.395 193.787 102.985C193.557 102.575 193.242 102.27 192.842 102.07C192.442 101.87 192.007 101.77 191.537 101.77C190.787 101.77 190.157 102.005 189.647 102.475C189.137 102.935 188.862 103.615 188.822 104.515H194.087ZM198.617 97.9V109H197.252V97.9H198.617ZM201.382 100.765L204.052 107.245L206.527 100.765H208.042L203.152 112.9H201.607L203.317 108.865L199.852 100.765H201.382ZM5.64 124.66C6.37 124.66 7.02 124.83 7.59 125.17C8.16 125.51 8.605 126 8.925 126.64C9.255 127.28 9.42 128.03 9.42 128.89C9.42 129.75 9.255 130.5 8.925 131.14C8.605 131.77 8.16 132.255 7.59 132.595C7.02 132.935 6.37 133.105 5.64 133.105C4.84 133.105 4.16 132.905 3.6 132.505C3.05 132.095 2.67 131.56 2.46 130.9V136.9H1.095V124.765H2.46V126.865C2.67 126.205 3.05 125.675 3.6 125.275C4.16 124.865 4.84 124.66 5.64 124.66ZM5.25 125.875C4.72 125.875 4.24 126 3.81 126.25C3.38 126.49 3.045 126.84 2.805 127.3C2.565 127.76 2.445 128.29 2.445 128.89C2.445 129.49 2.565 130.02 2.805 130.48C3.045 130.93 3.38 131.28 3.81 131.53C4.24 131.78 4.72 131.905 5.25 131.905C6.1 131.905 6.775 131.64 7.275 131.11C7.785 130.57 8.04 129.83 8.04 128.89C8.04 127.95 7.785 127.215 7.275 126.685C6.775 126.145 6.1 125.875 5.25 125.875ZM18.7774 128.425C18.7774 128.715 18.7574 128.965 18.7174 129.175H12.1324C12.1624 130.115 12.4274 130.82 12.9274 131.29C13.4374 131.76 14.0574 131.995 14.7874 131.995C15.4474 131.995 15.9974 131.83 16.4374 131.5C16.8874 131.16 17.1624 130.71 17.2624 130.15H18.7174C18.6174 130.72 18.3924 131.23 18.0424 131.68C17.7024 132.13 17.2574 132.48 16.7074 132.73C16.1574 132.98 15.5374 133.105 14.8474 133.105C14.0574 133.105 13.3574 132.935 12.7474 132.595C12.1374 132.255 11.6574 131.77 11.3074 131.14C10.9674 130.5 10.7974 129.75 10.7974 128.89C10.7974 128.03 10.9674 127.28 11.3074 126.64C11.6574 126 12.1374 125.51 12.7474 125.17C13.3574 124.83 14.0574 124.66 14.8474 124.66C15.6474 124.66 16.3424 124.83 16.9324 125.17C17.5324 125.51 17.9874 125.965 18.2974 126.535C18.6174 127.105 18.7774 127.735 18.7774 128.425ZM17.3974 128.515C17.4274 127.905 17.3274 127.395 17.0974 126.985C16.8674 126.575 16.5524 126.27 16.1524 126.07C15.7524 125.87 15.3174 125.77 14.8474 125.77C14.0974 125.77 13.4674 126.005 12.9574 126.475C12.4474 126.935 12.1724 127.615 12.1324 128.515H17.3974ZM21.9278 126.43C22.1978 125.86 22.5928 125.42 23.1128 125.11C23.6328 124.79 24.2528 124.63 24.9728 124.63V126.115H24.5528C23.7828 126.115 23.1528 126.315 22.6628 126.715C22.1728 127.105 21.9278 127.755 21.9278 128.665V133H20.5628V124.765H21.9278V126.43ZM28.8996 124.66C29.8296 124.66 30.5746 124.905 31.1346 125.395C31.7046 125.875 32.0496 126.525 32.1696 127.345H30.8646C30.8046 126.855 30.5996 126.455 30.2496 126.145C29.9096 125.825 29.4496 125.665 28.8696 125.665C28.3796 125.665 27.9946 125.785 27.7146 126.025C27.4446 126.255 27.3096 126.57 27.3096 126.97C27.3096 127.27 27.3996 127.515 27.5796 127.705C27.7696 127.885 27.9996 128.025 28.2696 128.125C28.5496 128.215 28.9296 128.315 29.4096 128.425C30.0196 128.565 30.5096 128.71 30.8796 128.86C31.2596 129 31.5796 129.23 31.8396 129.55C32.1096 129.87 32.2446 130.3 32.2446 130.84C32.2446 131.51 31.9896 132.055 31.4796 132.475C30.9796 132.895 30.3096 133.105 29.4696 133.105C28.4896 133.105 27.6896 132.87 27.0696 132.4C26.4496 131.93 26.0846 131.275 25.9746 130.435H27.2946C27.3446 130.935 27.5596 131.34 27.9396 131.65C28.3296 131.96 28.8396 132.115 29.4696 132.115C29.9396 132.115 30.3046 131.995 30.5646 131.755C30.8346 131.515 30.9696 131.2 30.9696 130.81C30.9696 130.49 30.8746 130.235 30.6846 130.045C30.4946 129.855 30.2596 129.71 29.9796 129.61C29.6996 129.51 29.3146 129.405 28.8246 129.295C28.2146 129.155 27.7246 129.015 27.3546 128.875C26.9946 128.735 26.6846 128.515 26.4246 128.215C26.1746 127.905 26.0496 127.49 26.0496 126.97C26.0496 126.28 26.3046 125.725 26.8146 125.305C27.3246 124.875 28.0196 124.66 28.8996 124.66ZM37.8036 124.66C38.5936 124.66 39.2986 124.83 39.9186 125.17C40.5486 125.51 41.0386 126 41.3886 126.64C41.7486 127.28 41.9286 128.03 41.9286 128.89C41.9286 129.75 41.7486 130.5 41.3886 131.14C41.0386 131.77 40.5486 132.255 39.9186 132.595C39.2986 132.935 38.5936 133.105 37.8036 133.105C37.0136 133.105 36.3036 132.935 35.6736 132.595C35.0536 132.255 34.5636 131.77 34.2036 131.14C33.8436 130.5 33.6636 129.75 33.6636 128.89C33.6636 128.03 33.8436 127.28 34.2036 126.64C34.5636 126 35.0536 125.51 35.6736 125.17C36.3036 124.83 37.0136 124.66 37.8036 124.66ZM37.8036 125.86C37.3136 125.86 36.8586 125.97 36.4386 126.19C36.0286 126.41 35.6936 126.75 35.4336 127.21C35.1836 127.66 35.0586 128.22 35.0586 128.89C35.0586 129.55 35.1836 130.11 35.4336 130.57C35.6936 131.02 36.0286 131.355 36.4386 131.575C36.8586 131.795 37.3136 131.905 37.8036 131.905C38.2936 131.905 38.7436 131.795 39.1536 131.575C39.5736 131.355 39.9086 131.02 40.1586 130.57C40.4186 130.11 40.5486 129.55 40.5486 128.89C40.5486 128.22 40.4186 127.66 40.1586 127.21C39.9086 126.75 39.5736 126.41 39.1536 126.19C38.7436 125.97 38.2936 125.86 37.8036 125.86ZM48.0423 124.63C49.0023 124.63 49.7773 124.94 50.3673 125.56C50.9573 126.17 51.2523 127.055 51.2523 128.215V133H49.8873V128.335C49.8873 127.515 49.6773 126.885 49.2573 126.445C48.8373 126.005 48.2673 125.785 47.5473 125.785C46.7973 125.785 46.1973 126.03 45.7473 126.52C45.2973 127 45.0723 127.705 45.0723 128.635V133H43.7073V124.765H45.0723V126.715C45.2823 126.045 45.6523 125.53 46.1823 125.17C46.7223 124.81 47.3423 124.63 48.0423 124.63ZM56.721 124.66C57.521 124.66 58.196 124.86 58.746 125.26C59.306 125.66 59.696 126.195 59.916 126.865V124.765H61.281V133H59.916V130.9C59.696 131.57 59.306 132.105 58.746 132.505C58.196 132.905 57.521 133.105 56.721 133.105C55.991 133.105 55.341 132.935 54.771 132.595C54.201 132.255 53.751 131.77 53.421 131.14C53.101 130.5 52.941 129.75 52.941 128.89C52.941 128.03 53.101 127.28 53.421 126.64C53.751 126 54.201 125.51 54.771 125.17C55.341 124.83 55.991 124.66 56.721 124.66ZM57.111 125.875C56.271 125.875 55.596 126.145 55.086 126.685C54.586 127.215 54.336 127.95 54.336 128.89C54.336 129.83 54.586 130.57 55.086 131.11C55.596 131.64 56.271 131.905 57.111 131.905C57.651 131.905 58.131 131.78 58.551 131.53C58.981 131.28 59.316 130.93 59.556 130.48C59.796 130.02 59.916 129.49 59.916 128.89C59.916 128.29 59.796 127.76 59.556 127.3C59.316 126.84 58.981 126.49 58.551 126.25C58.131 126 57.651 125.875 57.111 125.875ZM64.8184 121.9V133H63.4534V121.9H64.8184ZM66.773 122.35C66.773 122.1 66.858 121.9 67.028 121.75C67.198 121.59 67.423 121.51 67.703 121.51C67.983 121.51 68.208 121.59 68.378 121.75C68.548 121.9 68.633 122.1 68.633 122.35C68.633 122.6 68.548 122.805 68.378 122.965C68.208 123.115 67.983 123.19 67.703 123.19C67.423 123.19 67.198 123.115 67.028 122.965C66.858 122.805 66.773 122.6 66.773 122.35ZM68.378 124.765V133H67.013V124.765H68.378ZM71.3675 131.845H75.7775V133H69.8675V131.905L74.0675 125.92H69.9875V124.765H75.6275V125.875L71.3675 131.845ZM84.8419 128.425C84.8419 128.715 84.8219 128.965 84.7819 129.175H78.1969C78.2269 130.115 78.4919 130.82 78.9919 131.29C79.5019 131.76 80.1219 131.995 80.8519 131.995C81.5119 131.995 82.0619 131.83 82.5019 131.5C82.9519 131.16 83.2269 130.71 83.3269 130.15H84.7819C84.6819 130.72 84.4569 131.23 84.1069 131.68C83.7669 132.13 83.3219 132.48 82.7719 132.73C82.2219 132.98 81.6019 133.105 80.9119 133.105C80.1219 133.105 79.4219 132.935 78.8119 132.595C78.2019 132.255 77.7219 131.77 77.3719 131.14C77.0319 130.5 76.8619 129.75 76.8619 128.89C76.8619 128.03 77.0319 127.28 77.3719 126.64C77.7219 126 78.2019 125.51 78.8119 125.17C79.4219 124.83 80.1219 124.66 80.9119 124.66C81.7119 124.66 82.4069 124.83 82.9969 125.17C83.5969 125.51 84.0519 125.965 84.3619 126.535C84.6819 127.105 84.8419 127.735 84.8419 128.425ZM83.4619 128.515C83.4919 127.905 83.3919 127.395 83.1619 126.985C82.9319 126.575 82.6169 126.27 82.2169 126.07C81.8169 125.87 81.3819 125.77 80.9119 125.77C80.1619 125.77 79.5319 126.005 79.0219 126.475C78.5119 126.935 78.2369 127.615 78.1969 128.515H83.4619ZM90.0022 124.66C90.8022 124.66 91.4772 124.86 92.0272 125.26C92.5872 125.66 92.9772 126.195 93.1972 126.865V121.9H94.5622V133H93.1972V130.9C92.9772 131.57 92.5872 132.105 92.0272 132.505C91.4772 132.905 90.8022 133.105 90.0022 133.105C89.2722 133.105 88.6222 132.935 88.0522 132.595C87.4822 132.255 87.0322 131.77 86.7022 131.14C86.3822 130.5 86.2222 129.75 86.2222 128.89C86.2222 128.03 86.3822 127.28 86.7022 126.64C87.0322 126 87.4822 125.51 88.0522 125.17C88.6222 124.83 89.2722 124.66 90.0022 124.66ZM90.3922 125.875C89.5522 125.875 88.8772 126.145 88.3672 126.685C87.8672 127.215 87.6172 127.95 87.6172 128.89C87.6172 129.83 87.8672 130.57 88.3672 131.11C88.8772 131.64 89.5522 131.905 90.3922 131.905C90.9322 131.905 91.4122 131.78 91.8322 131.53C92.2622 131.28 92.5972 130.93 92.8372 130.48C93.0772 130.02 93.1972 129.49 93.1972 128.89C93.1972 128.29 93.0772 127.76 92.8372 127.3C92.5972 126.84 92.2622 126.49 91.8322 126.25C91.4122 126 90.9322 125.875 90.3922 125.875ZM101.806 126.43C102.076 125.86 102.471 125.42 102.991 125.11C103.511 124.79 104.131 124.63 104.851 124.63V126.115H104.431C103.661 126.115 103.031 126.315 102.541 126.715C102.051 127.105 101.806 127.755 101.806 128.665V133H100.441V124.765H101.806V126.43ZM113.773 128.425C113.773 128.715 113.753 128.965 113.713 129.175H107.128C107.158 130.115 107.423 130.82 107.923 131.29C108.433 131.76 109.053 131.995 109.783 131.995C110.443 131.995 110.993 131.83 111.433 131.5C111.883 131.16 112.158 130.71 112.258 130.15H113.713C113.613 130.72 113.388 131.23 113.038 131.68C112.698 132.13 112.253 132.48 111.703 132.73C111.153 132.98 110.533 133.105 109.843 133.105C109.053 133.105 108.353 132.935 107.743 132.595C107.133 132.255 106.653 131.77 106.303 131.14C105.963 130.5 105.793 129.75 105.793 128.89C105.793 128.03 105.963 127.28 106.303 126.64C106.653 126 107.133 125.51 107.743 125.17C108.353 124.83 109.053 124.66 109.843 124.66C110.643 124.66 111.338 124.83 111.928 125.17C112.528 125.51 112.983 125.965 113.293 126.535C113.613 127.105 113.773 127.735 113.773 128.425ZM112.393 128.515C112.423 127.905 112.323 127.395 112.093 126.985C111.863 126.575 111.548 126.27 111.148 126.07C110.748 125.87 110.313 125.77 109.843 125.77C109.093 125.77 108.463 126.005 107.953 126.475C107.443 126.935 107.168 127.615 107.128 128.515H112.393ZM118.933 124.66C119.733 124.66 120.408 124.86 120.958 125.26C121.518 125.66 121.908 126.195 122.128 126.865V124.765H123.493V133H122.128V130.9C121.908 131.57 121.518 132.105 120.958 132.505C120.408 132.905 119.733 133.105 118.933 133.105C118.203 133.105 117.553 132.935 116.983 132.595C116.413 132.255 115.963 131.77 115.633 131.14C115.313 130.5 115.153 129.75 115.153 128.89C115.153 128.03 115.313 127.28 115.633 126.64C115.963 126 116.413 125.51 116.983 125.17C117.553 124.83 118.203 124.66 118.933 124.66ZM119.323 125.875C118.483 125.875 117.808 126.145 117.298 126.685C116.798 127.215 116.548 127.95 116.548 128.89C116.548 129.83 116.798 130.57 117.298 131.11C117.808 131.64 118.483 131.905 119.323 131.905C119.863 131.905 120.343 131.78 120.763 131.53C121.193 131.28 121.528 130.93 121.768 130.48C122.008 130.02 122.128 129.49 122.128 128.89C122.128 128.29 122.008 127.76 121.768 127.3C121.528 126.84 121.193 126.49 120.763 126.25C120.343 126 119.863 125.875 119.323 125.875ZM129.04 124.66C129.84 124.66 130.515 124.86 131.065 125.26C131.625 125.66 132.015 126.195 132.235 126.865V121.9H133.6V133H132.235V130.9C132.015 131.57 131.625 132.105 131.065 132.505C130.515 132.905 129.84 133.105 129.04 133.105C128.31 133.105 127.66 132.935 127.09 132.595C126.52 132.255 126.07 131.77 125.74 131.14C125.42 130.5 125.26 129.75 125.26 128.89C125.26 128.03 125.42 127.28 125.74 126.64C126.07 126 126.52 125.51 127.09 125.17C127.66 124.83 128.31 124.66 129.04 124.66ZM129.43 125.875C128.59 125.875 127.915 126.145 127.405 126.685C126.905 127.215 126.655 127.95 126.655 128.89C126.655 129.83 126.905 130.57 127.405 131.11C127.915 131.64 128.59 131.905 129.43 131.905C129.97 131.905 130.45 131.78 130.87 131.53C131.3 131.28 131.635 130.93 131.875 130.48C132.115 130.02 132.235 129.49 132.235 128.89C132.235 128.29 132.115 127.76 131.875 127.3C131.635 126.84 131.3 126.49 130.87 126.25C130.45 126 129.97 125.875 129.43 125.875ZM138.353 124.66C139.283 124.66 140.028 124.905 140.588 125.395C141.158 125.875 141.503 126.525 141.623 127.345H140.318C140.258 126.855 140.053 126.455 139.703 126.145C139.363 125.825 138.903 125.665 138.323 125.665C137.833 125.665 137.448 125.785 137.168 126.025C136.898 126.255 136.763 126.57 136.763 126.97C136.763 127.27 136.853 127.515 137.033 127.705C137.223 127.885 137.453 128.025 137.723 128.125C138.003 128.215 138.383 128.315 138.863 128.425C139.473 128.565 139.963 128.71 140.333 128.86C140.713 129 141.033 129.23 141.293 129.55C141.563 129.87 141.698 130.3 141.698 130.84C141.698 131.51 141.443 132.055 140.933 132.475C140.433 132.895 139.763 133.105 138.923 133.105C137.943 133.105 137.143 132.87 136.523 132.4C135.903 131.93 135.538 131.275 135.428 130.435H136.748C136.798 130.935 137.013 131.34 137.393 131.65C137.783 131.96 138.293 132.115 138.923 132.115C139.393 132.115 139.758 131.995 140.018 131.755C140.288 131.515 140.423 131.2 140.423 130.81C140.423 130.49 140.328 130.235 140.138 130.045C139.948 129.855 139.713 129.71 139.433 129.61C139.153 129.51 138.768 129.405 138.278 129.295C137.668 129.155 137.178 129.015 136.808 128.875C136.448 128.735 136.138 128.515 135.878 128.215C135.628 127.905 135.503 127.49 135.503 126.97C135.503 126.28 135.758 125.725 136.268 125.305C136.778 124.875 137.473 124.66 138.353 124.66ZM145.262 124.96V126.565H143.612V124.96H145.262ZM145.037 131.995C145.177 132.435 145.247 132.845 145.247 133.225C145.247 133.745 145.117 134.16 144.857 134.47C144.597 134.79 144.207 134.95 143.687 134.95V134.365C143.937 134.365 144.117 134.295 144.227 134.155C144.347 134.025 144.407 133.815 144.407 133.525V133.39H143.642V131.995H145.037ZM155.225 124.63C156.185 124.63 156.96 124.94 157.55 125.56C158.14 126.17 158.435 127.055 158.435 128.215V133H157.07V128.335C157.07 127.515 156.86 126.885 156.44 126.445C156.02 126.005 155.45 125.785 154.73 125.785C153.98 125.785 153.38 126.03 152.93 126.52C152.48 127 152.255 127.705 152.255 128.635V133H150.89V124.765H152.255V126.715C152.465 126.045 152.835 125.53 153.365 125.17C153.905 124.81 154.525 124.63 155.225 124.63ZM164.264 124.66C165.054 124.66 165.759 124.83 166.379 125.17C167.009 125.51 167.499 126 167.849 126.64C168.209 127.28 168.389 128.03 168.389 128.89C168.389 129.75 168.209 130.5 167.849 131.14C167.499 131.77 167.009 132.255 166.379 132.595C165.759 132.935 165.054 133.105 164.264 133.105C163.474 133.105 162.764 132.935 162.134 132.595C161.514 132.255 161.024 131.77 160.664 131.14C160.304 130.5 160.124 129.75 160.124 128.89C160.124 128.03 160.304 127.28 160.664 126.64C161.024 126 161.514 125.51 162.134 125.17C162.764 124.83 163.474 124.66 164.264 124.66ZM164.264 125.86C163.774 125.86 163.319 125.97 162.899 126.19C162.489 126.41 162.154 126.75 161.894 127.21C161.644 127.66 161.519 128.22 161.519 128.89C161.519 129.55 161.644 130.11 161.894 130.57C162.154 131.02 162.489 131.355 162.899 131.575C163.319 131.795 163.774 131.905 164.264 131.905C164.754 131.905 165.204 131.795 165.614 131.575C166.034 131.355 166.369 131.02 166.619 130.57C166.879 130.11 167.009 129.55 167.009 128.89C167.009 128.22 166.879 127.66 166.619 127.21C166.369 126.75 166.034 126.41 165.614 126.19C165.204 125.97 164.754 125.86 164.264 125.86ZM177.248 124.66C178.048 124.66 178.723 124.86 179.273 125.26C179.833 125.66 180.223 126.195 180.443 126.865V124.765H181.808V133H180.443V130.9C180.223 131.57 179.833 132.105 179.273 132.505C178.723 132.905 178.048 133.105 177.248 133.105C176.518 133.105 175.868 132.935 175.298 132.595C174.728 132.255 174.278 131.77 173.948 131.14C173.628 130.5 173.468 129.75 173.468 128.89C173.468 128.03 173.628 127.28 173.948 126.64C174.278 126 174.728 125.51 175.298 125.17C175.868 124.83 176.518 124.66 177.248 124.66ZM177.638 125.875C176.798 125.875 176.123 126.145 175.613 126.685C175.113 127.215 174.863 127.95 174.863 128.89C174.863 129.83 175.113 130.57 175.613 131.11C176.123 131.64 176.798 131.905 177.638 131.905C178.178 131.905 178.658 131.78 179.078 131.53C179.508 131.28 179.843 130.93 180.083 130.48C180.323 130.02 180.443 129.49 180.443 128.89C180.443 128.29 180.323 127.76 180.083 127.3C179.843 126.84 179.508 126.49 179.078 126.25C178.658 126 178.178 125.875 177.638 125.875ZM187.626 124.66C188.676 124.66 189.546 124.94 190.236 125.5C190.926 126.06 191.351 126.81 191.511 127.75H190.071C189.971 127.16 189.696 126.7 189.246 126.37C188.806 126.03 188.256 125.86 187.596 125.86C187.116 125.86 186.676 125.97 186.276 126.19C185.886 126.41 185.571 126.75 185.331 127.21C185.091 127.66 184.971 128.22 184.971 128.89C184.971 129.56 185.091 130.125 185.331 130.585C185.571 131.035 185.886 131.37 186.276 131.59C186.676 131.81 187.116 131.92 187.596 131.92C188.256 131.92 188.806 131.75 189.246 131.41C189.696 131.07 189.971 130.605 190.071 130.015H191.511C191.351 130.965 190.926 131.72 190.236 132.28C189.546 132.83 188.676 133.105 187.626 133.105C186.836 133.105 186.136 132.935 185.526 132.595C184.916 132.255 184.436 131.77 184.086 131.14C183.746 130.5 183.576 129.75 183.576 128.89C183.576 128.03 183.746 127.28 184.086 126.64C184.436 126 184.916 125.51 185.526 125.17C186.136 124.83 186.836 124.66 187.626 124.66ZM196.942 124.66C197.992 124.66 198.862 124.94 199.552 125.5C200.242 126.06 200.667 126.81 200.827 127.75H199.387C199.287 127.16 199.012 126.7 198.562 126.37C198.122 126.03 197.572 125.86 196.912 125.86C196.432 125.86 195.992 125.97 195.592 126.19C195.202 126.41 194.887 126.75 194.647 127.21C194.407 127.66 194.287 128.22 194.287 128.89C194.287 129.56 194.407 130.125 194.647 130.585C194.887 131.035 195.202 131.37 195.592 131.59C195.992 131.81 196.432 131.92 196.912 131.92C197.572 131.92 198.122 131.75 198.562 131.41C199.012 131.07 199.287 130.605 199.387 130.015H200.827C200.667 130.965 200.242 131.72 199.552 132.28C198.862 132.83 197.992 133.105 196.942 133.105C196.152 133.105 195.452 132.935 194.842 132.595C194.232 132.255 193.752 131.77 193.402 131.14C193.062 130.5 192.892 129.75 192.892 128.89C192.892 128.03 193.062 127.28 193.402 126.64C193.752 126 194.232 125.51 194.842 125.17C195.452 124.83 196.152 124.66 196.942 124.66ZM206.349 124.66C207.139 124.66 207.844 124.83 208.464 125.17C209.094 125.51 209.584 126 209.934 126.64C210.294 127.28 210.474 128.03 210.474 128.89C210.474 129.75 210.294 130.5 209.934 131.14C209.584 131.77 209.094 132.255 208.464 132.595C207.844 132.935 207.139 133.105 206.349 133.105C205.559 133.105 204.849 132.935 204.219 132.595C203.599 132.255 203.109 131.77 202.749 131.14C202.389 130.5 202.209 129.75 202.209 128.89C202.209 128.03 202.389 127.28 202.749 126.64C203.109 126 203.599 125.51 204.219 125.17C204.849 124.83 205.559 124.66 206.349 124.66ZM206.349 125.86C205.859 125.86 205.404 125.97 204.984 126.19C204.574 126.41 204.239 126.75 203.979 127.21C203.729 127.66 203.604 128.22 203.604 128.89C203.604 129.55 203.729 130.11 203.979 130.57C204.239 131.02 204.574 131.355 204.984 131.575C205.404 131.795 205.859 131.905 206.349 131.905C206.839 131.905 207.289 131.795 207.699 131.575C208.119 131.355 208.454 131.02 208.704 130.57C208.964 130.11 209.094 129.55 209.094 128.89C209.094 128.22 208.964 127.66 208.704 127.21C208.454 126.75 208.119 126.41 207.699 126.19C207.289 125.97 206.839 125.86 206.349 125.86ZM219.572 124.765V133H218.207V131.065C217.997 131.735 217.622 132.25 217.082 132.61C216.552 132.96 215.932 133.135 215.222 133.135C214.272 133.135 213.502 132.83 212.912 132.22C212.322 131.6 212.027 130.715 212.027 129.565V124.765H213.392V129.43C213.392 130.25 213.602 130.885 214.022 131.335C214.442 131.775 215.012 131.995 215.732 131.995C216.482 131.995 217.082 131.755 217.532 131.275C217.982 130.785 218.207 130.075 218.207 129.145V124.765H219.572ZM226.094 124.63C227.054 124.63 227.829 124.94 228.419 125.56C229.009 126.17 229.304 127.055 229.304 128.215V133H227.939V128.335C227.939 127.515 227.729 126.885 227.309 126.445C226.889 126.005 226.319 125.785 225.599 125.785C224.849 125.785 224.249 126.03 223.799 126.52C223.349 127 223.124 127.705 223.124 128.635V133H221.759V124.765H223.124V126.715C223.334 126.045 223.704 125.53 224.234 125.17C224.774 124.81 225.394 124.63 226.094 124.63ZM235.328 131.8V133H234.308C233.468 133 232.838 132.8 232.418 132.4C232.008 132 231.803 131.33 231.803 130.39V125.95H230.573V124.765H231.803V122.71H233.183V124.765H235.313V125.95H233.183V130.42C233.183 130.95 233.278 131.315 233.468 131.515C233.668 131.705 234.008 131.8 234.488 131.8H235.328ZM239.573 124.66C240.503 124.66 241.248 124.905 241.808 125.395C242.378 125.875 242.723 126.525 242.843 127.345H241.538C241.478 126.855 241.273 126.455 240.923 126.145C240.583 125.825 240.123 125.665 239.543 125.665C239.053 125.665 238.668 125.785 238.388 126.025C238.118 126.255 237.983 126.57 237.983 126.97C237.983 127.27 238.073 127.515 238.253 127.705C238.443 127.885 238.673 128.025 238.943 128.125C239.223 128.215 239.603 128.315 240.083 128.425C240.693 128.565 241.183 128.71 241.553 128.86C241.933 129 242.253 129.23 242.513 129.55C242.783 129.87 242.918 130.3 242.918 130.84C242.918 131.51 242.663 132.055 242.153 132.475C241.653 132.895 240.983 133.105 240.143 133.105C239.163 133.105 238.363 132.87 237.743 132.4C237.123 131.93 236.758 131.275 236.648 130.435H237.968C238.018 130.935 238.233 131.34 238.613 131.65C239.003 131.96 239.513 132.115 240.143 132.115C240.613 132.115 240.978 131.995 241.238 131.755C241.508 131.515 241.643 131.2 241.643 130.81C241.643 130.49 241.548 130.235 241.358 130.045C241.168 129.855 240.933 129.71 240.653 129.61C240.373 129.51 239.988 129.405 239.498 129.295C238.888 129.155 238.398 129.015 238.028 128.875C237.668 128.735 237.358 128.515 237.098 128.215C236.848 127.905 236.723 127.49 236.723 126.97C236.723 126.28 236.978 125.725 237.488 125.305C237.998 124.875 238.693 124.66 239.573 124.66ZM252.184 124.66C252.974 124.66 253.679 124.83 254.299 125.17C254.929 125.51 255.419 126 255.769 126.64C256.129 127.28 256.309 128.03 256.309 128.89C256.309 129.75 256.129 130.5 255.769 131.14C255.419 131.77 254.929 132.255 254.299 132.595C253.679 132.935 252.974 133.105 252.184 133.105C251.394 133.105 250.684 132.935 250.054 132.595C249.434 132.255 248.944 131.77 248.584 131.14C248.224 130.5 248.044 129.75 248.044 128.89C248.044 128.03 248.224 127.28 248.584 126.64C248.944 126 249.434 125.51 250.054 125.17C250.684 124.83 251.394 124.66 252.184 124.66ZM252.184 125.86C251.694 125.86 251.239 125.97 250.819 126.19C250.409 126.41 250.074 126.75 249.814 127.21C249.564 127.66 249.439 128.22 249.439 128.89C249.439 129.55 249.564 130.11 249.814 130.57C250.074 131.02 250.409 131.355 250.819 131.575C251.239 131.795 251.694 131.905 252.184 131.905C252.674 131.905 253.124 131.795 253.534 131.575C253.954 131.355 254.289 131.02 254.539 130.57C254.799 130.11 254.929 129.55 254.929 128.89C254.929 128.22 254.799 127.66 254.539 127.21C254.289 126.75 253.954 126.41 253.534 126.19C253.124 125.97 252.674 125.86 252.184 125.86ZM259.452 126.43C259.722 125.86 260.117 125.42 260.637 125.11C261.157 124.79 261.777 124.63 262.497 124.63V126.115H262.077C261.307 126.115 260.677 126.315 260.187 126.715C259.697 127.105 259.452 127.755 259.452 128.665V133H258.087V124.765H259.452V126.43ZM3.675 148.66C4.605 148.66 5.35 148.905 5.91 149.395C6.48 149.875 6.825 150.525 6.945 151.345H5.64C5.58 150.855 5.375 150.455 5.025 150.145C4.685 149.825 4.225 149.665 3.645 149.665C3.155 149.665 2.77 149.785 2.49 150.025C2.22 150.255 2.085 150.57 2.085 150.97C2.085 151.27 2.175 151.515 2.355 151.705C2.545 151.885 2.775 152.025 3.045 152.125C3.325 152.215 3.705 152.315 4.185 152.425C4.795 152.565 5.285 152.71 5.655 152.86C6.035 153 6.355 153.23 6.615 153.55C6.885 153.87 7.02 154.3 7.02 154.84C7.02 155.51 6.765 156.055 6.255 156.475C5.755 156.895 5.085 157.105 4.245 157.105C3.265 157.105 2.465 156.87 1.845 156.4C1.225 155.93 0.86 155.275 0.75 154.435H2.07C2.12 154.935 2.335 155.34 2.715 155.65C3.105 155.96 3.615 156.115 4.245 156.115C4.715 156.115 5.08 155.995 5.34 155.755C5.61 155.515 5.745 155.2 5.745 154.81C5.745 154.49 5.65 154.235 5.46 154.045C5.27 153.855 5.035 153.71 4.755 153.61C4.475 153.51 4.09 153.405 3.6 153.295C2.99 153.155 2.5 153.015 2.13 152.875C1.77 152.735 1.46 152.515 1.2 152.215C0.95 151.905 0.825 151.49 0.825 150.97C0.825 150.28 1.08 149.725 1.59 149.305C2.1 148.875 2.795 148.66 3.675 148.66ZM8.60402 146.35C8.60402 146.1 8.68902 145.9 8.85902 145.75C9.02902 145.59 9.25402 145.51 9.53402 145.51C9.81402 145.51 10.039 145.59 10.209 145.75C10.379 145.9 10.464 146.1 10.464 146.35C10.464 146.6 10.379 146.805 10.209 146.965C10.039 147.115 9.81402 147.19 9.53402 147.19C9.25402 147.19 9.02902 147.115 8.85902 146.965C8.68902 146.805 8.60402 146.6 8.60402 146.35ZM10.209 148.765V157H8.84402V148.765H10.209ZM15.7786 148.66C16.5786 148.66 17.2536 148.86 17.8036 149.26C18.3636 149.66 18.7536 150.195 18.9736 150.865V148.765H20.3386V157.135C20.3386 157.895 20.1786 158.57 19.8586 159.16C19.5386 159.75 19.0886 160.21 18.5086 160.54C17.9286 160.87 17.2536 161.035 16.4836 161.035C15.3736 161.035 14.4686 160.765 13.7686 160.225C13.0686 159.695 12.6236 158.975 12.4336 158.065H13.7836C13.9436 158.615 14.2436 159.045 14.6836 159.355C15.1336 159.675 15.7086 159.835 16.4086 159.835C17.1486 159.835 17.7586 159.595 18.2386 159.115C18.7286 158.645 18.9736 157.985 18.9736 157.135V154.9C18.7536 155.57 18.3636 156.105 17.8036 156.505C17.2536 156.905 16.5786 157.105 15.7786 157.105C15.0486 157.105 14.3986 156.935 13.8286 156.595C13.2586 156.255 12.8086 155.77 12.4786 155.14C12.1586 154.5 11.9986 153.75 11.9986 152.89C11.9986 152.03 12.1586 151.28 12.4786 150.64C12.8086 150 13.2586 149.51 13.8286 149.17C14.3986 148.83 15.0486 148.66 15.7786 148.66ZM16.1686 149.875C15.3286 149.875 14.6536 150.145 14.1436 150.685C13.6436 151.215 13.3936 151.95 13.3936 152.89C13.3936 153.83 13.6436 154.57 14.1436 155.11C14.6536 155.64 15.3286 155.905 16.1686 155.905C16.7086 155.905 17.1886 155.78 17.6086 155.53C18.0386 155.28 18.3736 154.93 18.6136 154.48C18.8536 154.02 18.9736 153.49 18.9736 152.89C18.9736 152.29 18.8536 151.76 18.6136 151.3C18.3736 150.84 18.0386 150.49 17.6086 150.25C17.1886 150 16.7086 149.875 16.1686 149.875ZM26.846 148.63C27.806 148.63 28.581 148.94 29.171 149.56C29.761 150.17 30.056 151.055 30.056 152.215V157H28.691V152.335C28.691 151.515 28.481 150.885 28.061 150.445C27.641 150.005 27.071 149.785 26.351 149.785C25.601 149.785 25.001 150.03 24.551 150.52C24.101 151 23.876 151.705 23.876 152.635V157H22.511V148.765H23.876V150.715C24.086 150.045 24.456 149.53 24.986 149.17C25.526 148.81 26.146 148.63 26.846 148.63ZM36.8297 150.925V152.08H30.8297V150.925H36.8297ZM46.8379 148.765V157H45.4729V155.065C45.2629 155.735 44.8879 156.25 44.3479 156.61C43.8179 156.96 43.1979 157.135 42.4879 157.135C41.5379 157.135 40.7679 156.83 40.1779 156.22C39.5879 155.6 39.2929 154.715 39.2929 153.565V148.765H40.6579V153.43C40.6579 154.25 40.8679 154.885 41.2879 155.335C41.7079 155.775 42.2779 155.995 42.9979 155.995C43.7479 155.995 44.3479 155.755 44.7979 155.275C45.2479 154.785 45.4729 154.075 45.4729 153.145V148.765H46.8379ZM53.5697 148.66C54.2997 148.66 54.9497 148.83 55.5197 149.17C56.0897 149.51 56.5347 150 56.8547 150.64C57.1847 151.28 57.3497 152.03 57.3497 152.89C57.3497 153.75 57.1847 154.5 56.8547 155.14C56.5347 155.77 56.0897 156.255 55.5197 156.595C54.9497 156.935 54.2997 157.105 53.5697 157.105C52.7697 157.105 52.0897 156.905 51.5297 156.505C50.9797 156.095 50.5997 155.56 50.3897 154.9V160.9H49.0247V148.765H50.3897V150.865C50.5997 150.205 50.9797 149.675 51.5297 149.275C52.0897 148.865 52.7697 148.66 53.5697 148.66ZM53.1797 149.875C52.6497 149.875 52.1697 150 51.7397 150.25C51.3097 150.49 50.9747 150.84 50.7347 151.3C50.4947 151.76 50.3747 152.29 50.3747 152.89C50.3747 153.49 50.4947 154.02 50.7347 154.48C50.9747 154.93 51.3097 155.28 51.7397 155.53C52.1697 155.78 52.6497 155.905 53.1797 155.905C54.0297 155.905 54.7047 155.64 55.2047 155.11C55.7147 154.57 55.9697 153.83 55.9697 152.89C55.9697 151.95 55.7147 151.215 55.2047 150.685C54.7047 150.145 54.0297 149.875 53.1797 149.875ZM61.7121 148.66C62.6421 148.66 63.3871 148.905 63.9471 149.395C64.5171 149.875 64.8621 150.525 64.9821 151.345H63.6771C63.6171 150.855 63.4121 150.455 63.0621 150.145C62.7221 149.825 62.2621 149.665 61.6821 149.665C61.1921 149.665 60.8071 149.785 60.5271 150.025C60.2571 150.255 60.1221 150.57 60.1221 150.97C60.1221 151.27 60.2121 151.515 60.3921 151.705C60.5821 151.885 60.8121 152.025 61.0821 152.125C61.3621 152.215 61.7421 152.315 62.2221 152.425C62.8321 152.565 63.3221 152.71 63.6921 152.86C64.0721 153 64.3921 153.23 64.6521 153.55C64.9221 153.87 65.0571 154.3 65.0571 154.84C65.0571 155.51 64.8021 156.055 64.2921 156.475C63.7921 156.895 63.1221 157.105 62.2821 157.105C61.3021 157.105 60.5021 156.87 59.8821 156.4C59.2621 155.93 58.8971 155.275 58.7871 154.435H60.1071C60.1571 154.935 60.3721 155.34 60.7521 155.65C61.1421 155.96 61.6521 156.115 62.2821 156.115C62.7521 156.115 63.1171 155.995 63.3771 155.755C63.6471 155.515 63.7821 155.2 63.7821 154.81C63.7821 154.49 63.6871 154.235 63.4971 154.045C63.3071 153.855 63.0721 153.71 62.7921 153.61C62.5121 153.51 62.1271 153.405 61.6371 153.295C61.0271 153.155 60.5371 153.015 60.1671 152.875C59.8071 152.735 59.4971 152.515 59.2371 152.215C58.9871 151.905 58.8621 151.49 58.8621 150.97C58.8621 150.28 59.1171 149.725 59.6271 149.305C60.1371 148.875 60.8321 148.66 61.7121 148.66ZM71.9522 150.43C72.2222 149.86 72.6172 149.42 73.1372 149.11C73.6572 148.79 74.2772 148.63 74.9972 148.63V150.115H74.5772C73.8072 150.115 73.1772 150.315 72.6872 150.715C72.1972 151.105 71.9522 151.755 71.9522 152.665V157H70.5872V148.765H71.9522V150.43ZM83.919 152.425C83.919 152.715 83.899 152.965 83.859 153.175H77.274C77.304 154.115 77.569 154.82 78.069 155.29C78.579 155.76 79.199 155.995 79.929 155.995C80.589 155.995 81.139 155.83 81.579 155.5C82.029 155.16 82.304 154.71 82.404 154.15H83.859C83.759 154.72 83.534 155.23 83.184 155.68C82.844 156.13 82.399 156.48 81.849 156.73C81.299 156.98 80.679 157.105 79.989 157.105C79.199 157.105 78.499 156.935 77.889 156.595C77.279 156.255 76.799 155.77 76.449 155.14C76.109 154.5 75.939 153.75 75.939 152.89C75.939 152.03 76.109 151.28 76.449 150.64C76.799 150 77.279 149.51 77.889 149.17C78.499 148.83 79.199 148.66 79.989 148.66C80.789 148.66 81.484 148.83 82.074 149.17C82.674 149.51 83.129 149.965 83.439 150.535C83.759 151.105 83.919 151.735 83.919 152.425ZM82.539 152.515C82.569 151.905 82.469 151.395 82.239 150.985C82.009 150.575 81.694 150.27 81.294 150.07C80.894 149.87 80.459 149.77 79.989 149.77C79.239 149.77 78.609 150.005 78.099 150.475C77.589 150.935 77.314 151.615 77.274 152.515H82.539ZM89.1694 148.69C89.9294 148.69 90.5744 148.875 91.1044 149.245C91.6444 149.605 92.0344 150.095 92.2744 150.715V148.765H93.6394V160.9H92.2744V154.99C92.0244 155.64 91.6294 156.155 91.0894 156.535C90.5594 156.915 89.9194 157.105 89.1694 157.105C88.4394 157.105 87.7794 156.935 87.1894 156.595C86.5994 156.245 86.1344 155.755 85.7944 155.125C85.4644 154.485 85.2994 153.745 85.2994 152.905C85.2994 152.065 85.4644 151.33 85.7944 150.7C86.1344 150.06 86.5994 149.565 87.1894 149.215C87.7794 148.865 88.4394 148.69 89.1694 148.69ZM89.4694 149.875C88.6494 149.875 87.9794 150.145 87.4594 150.685C86.9494 151.215 86.6944 151.955 86.6944 152.905C86.6944 153.855 86.9494 154.595 87.4594 155.125C87.9694 155.645 88.6394 155.905 89.4694 155.905C89.9894 155.905 90.4594 155.785 90.8794 155.545C91.3094 155.295 91.6494 154.945 91.8994 154.495C92.1494 154.035 92.2744 153.5 92.2744 152.89C92.2744 152.28 92.1494 151.75 91.8994 151.3C91.6494 150.84 91.3094 150.49 90.8794 150.25C90.4594 150 89.9894 149.875 89.4694 149.875ZM103.132 148.765V157H101.767V155.065C101.557 155.735 101.182 156.25 100.642 156.61C100.112 156.96 99.4918 157.135 98.7818 157.135C97.8318 157.135 97.0618 156.83 96.4718 156.22C95.8818 155.6 95.5868 154.715 95.5868 153.565V148.765H96.9518V153.43C96.9518 154.25 97.1618 154.885 97.5818 155.335C98.0018 155.775 98.5718 155.995 99.2918 155.995C100.042 155.995 100.642 155.755 101.092 155.275C101.542 154.785 101.767 154.075 101.767 153.145V148.765H103.132ZM105.079 146.35C105.079 146.1 105.164 145.9 105.334 145.75C105.504 145.59 105.729 145.51 106.009 145.51C106.289 145.51 106.514 145.59 106.684 145.75C106.854 145.9 106.939 146.1 106.939 146.35C106.939 146.6 106.854 146.805 106.684 146.965C106.514 147.115 106.289 147.19 106.009 147.19C105.729 147.19 105.504 147.115 105.334 146.965C105.164 146.805 105.079 146.6 105.079 146.35ZM106.684 148.765V157H105.319V148.765H106.684ZM110.243 150.43C110.513 149.86 110.908 149.42 111.428 149.11C111.948 148.79 112.568 148.63 113.288 148.63V150.115H112.868C112.098 150.115 111.468 150.315 110.978 150.715C110.488 151.105 110.243 151.755 110.243 152.665V157H108.878V148.765H110.243V150.43ZM122.21 152.425C122.21 152.715 122.19 152.965 122.15 153.175H115.565C115.595 154.115 115.86 154.82 116.36 155.29C116.87 155.76 117.49 155.995 118.22 155.995C118.88 155.995 119.43 155.83 119.87 155.5C120.32 155.16 120.595 154.71 120.695 154.15H122.15C122.05 154.72 121.825 155.23 121.475 155.68C121.135 156.13 120.69 156.48 120.14 156.73C119.59 156.98 118.97 157.105 118.28 157.105C117.49 157.105 116.79 156.935 116.18 156.595C115.57 156.255 115.09 155.77 114.74 155.14C114.4 154.5 114.23 153.75 114.23 152.89C114.23 152.03 114.4 151.28 114.74 150.64C115.09 150 115.57 149.51 116.18 149.17C116.79 148.83 117.49 148.66 118.28 148.66C119.08 148.66 119.775 148.83 120.365 149.17C120.965 149.51 121.42 149.965 121.73 150.535C122.05 151.105 122.21 151.735 122.21 152.425ZM120.83 152.515C120.86 151.905 120.76 151.395 120.53 150.985C120.3 150.575 119.985 150.27 119.585 150.07C119.185 149.87 118.75 149.77 118.28 149.77C117.53 149.77 116.9 150.005 116.39 150.475C115.88 150.935 115.605 151.615 115.565 152.515H120.83ZM127.37 148.66C128.17 148.66 128.845 148.86 129.395 149.26C129.955 149.66 130.345 150.195 130.565 150.865V145.9H131.93V157H130.565V154.9C130.345 155.57 129.955 156.105 129.395 156.505C128.845 156.905 128.17 157.105 127.37 157.105C126.64 157.105 125.99 156.935 125.42 156.595C124.85 156.255 124.4 155.77 124.07 155.14C123.75 154.5 123.59 153.75 123.59 152.89C123.59 152.03 123.75 151.28 124.07 150.64C124.4 150 124.85 149.51 125.42 149.17C125.99 148.83 126.64 148.66 127.37 148.66ZM127.76 149.875C126.92 149.875 126.245 150.145 125.735 150.685C125.235 151.215 124.985 151.95 124.985 152.89C124.985 153.83 125.235 154.57 125.735 155.11C126.245 155.64 126.92 155.905 127.76 155.905C128.3 155.905 128.78 155.78 129.2 155.53C129.63 155.28 129.965 154.93 130.205 154.48C130.445 154.02 130.565 153.49 130.565 152.89C130.565 152.29 130.445 151.76 130.205 151.3C129.965 150.84 129.63 150.49 129.2 150.25C128.78 150 128.3 149.875 127.76 149.875ZM135.108 155.395V157H133.458V155.395H135.108Z" fill="#344563"/>
<g clip-path="url(#clip3_39_288)">
<rect y="180" width="57" height="24" rx="8" fill="#EBEBFF"/>
<path d="M19.56 187.66V196H18.192V192.352H14.268V196H12.9V187.66H14.268V191.236H18.192V187.66H19.56ZM27.1089 187.66V188.776H24.8889V196H23.5209V188.776H21.2889V187.66H27.1089ZM37.6384 187.66V196H36.2704V190.288L33.7264 196H32.7784L30.2224 190.288V196H28.8544V187.66H30.3304L33.2584 194.2L36.1744 187.66H37.6384ZM41.1644 194.896H43.9844V196H39.7964V187.66H41.1644V194.896Z" fill="#6070FF"/>
<rect x="65" y="180" width="49" height="24" rx="8" fill="#EBEBFF"/>
<path d="M77.444 191.812C77.444 190.996 77.632 190.264 78.008 189.616C78.392 188.968 78.908 188.464 79.556 188.104C80.212 187.736 80.928 187.552 81.704 187.552C82.592 187.552 83.38 187.772 84.068 188.212C84.764 188.644 85.268 189.26 85.58 190.06H83.936C83.72 189.62 83.42 189.292 83.036 189.076C82.652 188.86 82.208 188.752 81.704 188.752C81.152 188.752 80.66 188.876 80.228 189.124C79.796 189.372 79.456 189.728 79.208 190.192C78.968 190.656 78.848 191.196 78.848 191.812C78.848 192.428 78.968 192.968 79.208 193.432C79.456 193.896 79.796 194.256 80.228 194.512C80.66 194.76 81.152 194.884 81.704 194.884C82.208 194.884 82.652 194.776 83.036 194.56C83.42 194.344 83.72 194.016 83.936 193.576H85.58C85.268 194.376 84.764 194.992 84.068 195.424C83.38 195.856 82.592 196.072 81.704 196.072C80.92 196.072 80.204 195.892 79.556 195.532C78.908 195.164 78.392 194.656 78.008 194.008C77.632 193.36 77.444 192.628 77.444 191.812ZM90.2892 196.084C89.7292 196.084 89.2252 195.988 88.7772 195.796C88.3292 195.596 87.9772 195.316 87.7212 194.956C87.4652 194.596 87.3372 194.176 87.3372 193.696H88.8012C88.8332 194.056 88.9732 194.352 89.2212 194.584C89.4772 194.816 89.8332 194.932 90.2892 194.932C90.7612 194.932 91.1292 194.82 91.3932 194.596C91.6572 194.364 91.7892 194.068 91.7892 193.708C91.7892 193.428 91.7052 193.2 91.5372 193.024C91.3772 192.848 91.1732 192.712 90.9252 192.616C90.6852 192.52 90.3492 192.416 89.9172 192.304C89.3732 192.16 88.9292 192.016 88.5852 191.872C88.2492 191.72 87.9612 191.488 87.7212 191.176C87.4812 190.864 87.3612 190.448 87.3612 189.928C87.3612 189.448 87.4812 189.028 87.7212 188.668C87.9612 188.308 88.2972 188.032 88.7292 187.84C89.1612 187.648 89.6612 187.552 90.2292 187.552C91.0372 187.552 91.6972 187.756 92.2092 188.164C92.7293 188.564 93.0173 189.116 93.0732 189.82H91.5612C91.5372 189.516 91.3932 189.256 91.1292 189.04C90.8652 188.824 90.5172 188.716 90.0852 188.716C89.6932 188.716 89.3732 188.816 89.1252 189.016C88.8772 189.216 88.7532 189.504 88.7532 189.88C88.7532 190.136 88.8292 190.348 88.9812 190.516C89.1412 190.676 89.3412 190.804 89.5812 190.9C89.8212 190.996 90.1492 191.1 90.5652 191.212C91.1172 191.364 91.5652 191.516 91.9092 191.668C92.2612 191.82 92.5572 192.056 92.7972 192.376C93.0452 192.688 93.1693 193.108 93.1693 193.636C93.1693 194.06 93.0533 194.46 92.8213 194.836C92.5972 195.212 92.2652 195.516 91.8252 195.748C91.3932 195.972 90.8812 196.084 90.2892 196.084ZM97.8914 196.084C97.3314 196.084 96.8274 195.988 96.3794 195.796C95.9314 195.596 95.5794 195.316 95.3234 194.956C95.0674 194.596 94.9394 194.176 94.9394 193.696H96.4034C96.4354 194.056 96.5754 194.352 96.8234 194.584C97.0794 194.816 97.4354 194.932 97.8914 194.932C98.3634 194.932 98.7314 194.82 98.9954 194.596C99.2594 194.364 99.3914 194.068 99.3914 193.708C99.3914 193.428 99.3074 193.2 99.1394 193.024C98.9794 192.848 98.7754 192.712 98.5274 192.616C98.2874 192.52 97.9514 192.416 97.5194 192.304C96.9754 192.16 96.5314 192.016 96.1874 191.872C95.8514 191.72 95.5634 191.488 95.3234 191.176C95.0834 190.864 94.9634 190.448 94.9634 189.928C94.9634 189.448 95.0834 189.028 95.3234 188.668C95.5634 188.308 95.8994 188.032 96.3314 187.84C96.7634 187.648 97.2634 187.552 97.8314 187.552C98.6394 187.552 99.2994 187.756 99.8114 188.164C100.331 188.564 100.619 189.116 100.675 189.82H99.1634C99.1394 189.516 98.9954 189.256 98.7314 189.04C98.4674 188.824 98.1194 188.716 97.6874 188.716C97.2954 188.716 96.9754 188.816 96.7274 189.016C96.4794 189.216 96.3554 189.504 96.3554 189.88C96.3554 190.136 96.4314 190.348 96.5834 190.516C96.7434 190.676 96.9434 190.804 97.1834 190.9C97.4234 190.996 97.7514 191.1 98.1674 191.212C98.7194 191.364 99.1674 191.516 99.5114 191.668C99.8634 191.82 100.159 192.056 100.399 192.376C100.647 192.688 100.771 193.108 100.771 193.636C100.771 194.06 100.655 194.46 100.423 194.836C100.199 195.212 99.8674 195.516 99.4274 195.748C98.9954 195.972 98.4834 196.084 97.8914 196.084Z" fill="#6070FF"/>
<rect x="122" y="180" width="92" height="24" rx="8" fill="#EBEBFF"/>
<path d="M139.448 187.66V193.672C139.448 194.416 139.22 195.004 138.764 195.436C138.316 195.868 137.724 196.084 136.988 196.084C136.252 196.084 135.656 195.868 135.2 195.436C134.752 195.004 134.528 194.416 134.528 193.672H135.908C135.916 194.04 136.008 194.332 136.184 194.548C136.368 194.764 136.636 194.872 136.988 194.872C137.34 194.872 137.608 194.764 137.792 194.548C137.976 194.324 138.068 194.032 138.068 193.672V187.66H139.448ZM141.577 192.664C141.577 192 141.713 191.412 141.985 190.9C142.265 190.388 142.641 189.992 143.113 189.712C143.593 189.424 144.121 189.28 144.697 189.28C145.217 189.28 145.669 189.384 146.053 189.592C146.445 189.792 146.757 190.044 146.989 190.348V189.388H148.369V196H146.989V195.016C146.757 195.328 146.441 195.588 146.041 195.796C145.641 196.004 145.185 196.108 144.673 196.108C144.105 196.108 143.585 195.964 143.113 195.676C142.641 195.38 142.265 194.972 141.985 194.452C141.713 193.924 141.577 193.328 141.577 192.664ZM146.989 192.688C146.989 192.232 146.893 191.836 146.701 191.5C146.517 191.164 146.273 190.908 145.969 190.732C145.665 190.556 145.337 190.468 144.985 190.468C144.633 190.468 144.305 190.556 144.001 190.732C143.697 190.9 143.449 191.152 143.257 191.488C143.073 191.816 142.981 192.208 142.981 192.664C142.981 193.12 143.073 193.52 143.257 193.864C143.449 194.208 143.697 194.472 144.001 194.656C144.313 194.832 144.641 194.92 144.985 194.92C145.337 194.92 145.665 194.832 145.969 194.656C146.273 194.48 146.517 194.224 146.701 193.888C146.893 193.544 146.989 193.144 146.989 192.688ZM153.082 194.776L154.954 189.388H156.406L153.886 196H152.254L149.746 189.388H151.21L153.082 194.776ZM157.344 192.664C157.344 192 157.48 191.412 157.752 190.9C158.032 190.388 158.408 189.992 158.88 189.712C159.36 189.424 159.888 189.28 160.464 189.28C160.984 189.28 161.436 189.384 161.82 189.592C162.212 189.792 162.524 190.044 162.756 190.348V189.388H164.136V196H162.756V195.016C162.524 195.328 162.208 195.588 161.808 195.796C161.408 196.004 160.952 196.108 160.44 196.108C159.872 196.108 159.352 195.964 158.88 195.676C158.408 195.38 158.032 194.972 157.752 194.452C157.48 193.924 157.344 193.328 157.344 192.664ZM162.756 192.688C162.756 192.232 162.66 191.836 162.468 191.5C162.284 191.164 162.04 190.908 161.736 190.732C161.432 190.556 161.104 190.468 160.752 190.468C160.4 190.468 160.072 190.556 159.768 190.732C159.464 190.9 159.216 191.152 159.024 191.488C158.84 191.816 158.748 192.208 158.748 192.664C158.748 193.12 158.84 193.52 159.024 193.864C159.216 194.208 159.464 194.472 159.768 194.656C160.08 194.832 160.408 194.92 160.752 194.92C161.104 194.92 161.432 194.832 161.736 194.656C162.04 194.48 162.284 194.224 162.468 193.888C162.66 193.544 162.756 193.144 162.756 192.688ZM169.041 196.084C168.481 196.084 167.977 195.988 167.529 195.796C167.081 195.596 166.729 195.316 166.473 194.956C166.217 194.596 166.089 194.176 166.089 193.696H167.553C167.585 194.056 167.725 194.352 167.973 194.584C168.229 194.816 168.585 194.932 169.041 194.932C169.513 194.932 169.881 194.82 170.145 194.596C170.409 194.364 170.541 194.068 170.541 193.708C170.541 193.428 170.457 193.2 170.289 193.024C170.129 192.848 169.925 192.712 169.677 192.616C169.437 192.52 169.101 192.416 168.669 192.304C168.125 192.16 167.681 192.016 167.337 191.872C167.001 191.72 166.713 191.488 166.473 191.176C166.233 190.864 166.113 190.448 166.113 189.928C166.113 189.448 166.233 189.028 166.473 188.668C166.713 188.308 167.049 188.032 167.481 187.84C167.913 187.648 168.413 187.552 168.981 187.552C169.789 187.552 170.449 187.756 170.961 188.164C171.481 188.564 171.769 189.116 171.825 189.82H170.313C170.289 189.516 170.145 189.256 169.881 189.04C169.617 188.824 169.269 188.716 168.837 188.716C168.445 188.716 168.125 188.816 167.877 189.016C167.629 189.216 167.505 189.504 167.505 189.88C167.505 190.136 167.581 190.348 167.733 190.516C167.893 190.676 168.093 190.804 168.333 190.9C168.573 190.996 168.901 191.1 169.317 191.212C169.869 191.364 170.317 191.516 170.661 191.668C171.013 191.82 171.309 192.056 171.549 192.376C171.797 192.688 171.921 193.108 171.921 193.636C171.921 194.06 171.805 194.46 171.573 194.836C171.349 195.212 171.017 195.516 170.577 195.748C170.145 195.972 169.633 196.084 169.041 196.084ZM173.439 192.688C173.439 192.008 173.575 191.412 173.847 190.9C174.127 190.38 174.511 189.98 174.999 189.7C175.487 189.42 176.047 189.28 176.679 189.28C177.479 189.28 178.139 189.472 178.659 189.856C179.187 190.232 179.543 190.772 179.727 191.476H178.251C178.131 191.148 177.939 190.892 177.675 190.708C177.411 190.524 177.079 190.432 176.679 190.432C176.119 190.432 175.671 190.632 175.335 191.032C175.007 191.424 174.843 191.976 174.843 192.688C174.843 193.4 175.007 193.956 175.335 194.356C175.671 194.756 176.119 194.956 176.679 194.956C177.471 194.956 177.995 194.608 178.251 193.912H179.727C179.535 194.584 179.175 195.12 178.647 195.52C178.119 195.912 177.463 196.108 176.679 196.108C176.047 196.108 175.487 195.968 174.999 195.688C174.511 195.4 174.127 195 173.847 194.488C173.575 193.968 173.439 193.368 173.439 192.688ZM182.819 190.348C183.019 190.012 183.283 189.752 183.611 189.568C183.947 189.376 184.343 189.28 184.799 189.28V190.696H184.451C183.915 190.696 183.507 190.832 183.227 191.104C182.955 191.376 182.819 191.848 182.819 192.52V196H181.451V189.388H182.819V190.348ZM187.112 188.512C186.864 188.512 186.656 188.428 186.488 188.26C186.32 188.092 186.236 187.884 186.236 187.636C186.236 187.388 186.32 187.18 186.488 187.012C186.656 186.844 186.864 186.76 187.112 186.76C187.352 186.76 187.556 186.844 187.724 187.012C187.892 187.18 187.976 187.388 187.976 187.636C187.976 187.884 187.892 188.092 187.724 188.26C187.556 188.428 187.352 188.512 187.112 188.512ZM187.784 189.388V196H186.416V189.388H187.784ZM191.308 190.36C191.54 190.056 191.856 189.8 192.256 189.592C192.656 189.384 193.108 189.28 193.612 189.28C194.188 189.28 194.712 189.424 195.184 189.712C195.664 189.992 196.04 190.388 196.312 190.9C196.584 191.412 196.72 192 196.72 192.664C196.72 193.328 196.584 193.924 196.312 194.452C196.04 194.972 195.664 195.38 195.184 195.676C194.712 195.964 194.188 196.108 193.612 196.108C193.108 196.108 192.66 196.008 192.268 195.808C191.876 195.6 191.556 195.344 191.308 195.04V199.144H189.94V189.388H191.308V190.36ZM195.328 192.664C195.328 192.208 195.232 191.816 195.04 191.488C194.856 191.152 194.608 190.9 194.296 190.732C193.992 190.556 193.664 190.468 193.312 190.468C192.968 190.468 192.64 190.556 192.328 190.732C192.024 190.908 191.776 191.164 191.584 191.5C191.4 191.836 191.308 192.232 191.308 192.688C191.308 193.144 191.4 193.544 191.584 193.888C191.776 194.224 192.024 194.48 192.328 194.656C192.64 194.832 192.968 194.92 193.312 194.92C193.664 194.92 193.992 194.832 194.296 194.656C194.608 194.472 194.856 194.208 195.04 193.864C195.232 193.52 195.328 193.12 195.328 192.664ZM200.029 190.504V194.164C200.029 194.412 200.085 194.592 200.197 194.704C200.317 194.808 200.517 194.86 200.797 194.86H201.637V196H200.557C199.941 196 199.469 195.856 199.141 195.568C198.813 195.28 198.649 194.812 198.649 194.164V190.504H197.869V189.388H198.649V187.744H200.029V189.388H201.637V190.504H200.029Z" fill="#6070FF"/>
</g>
<path d="M17.598 258.119C16.8046 258.119 16.0906 257.983 15.456 257.711C14.8213 257.428 14.3226 257.031 13.96 256.521C13.5973 256.011 13.416 255.416 13.416 254.736H15.49C15.5353 255.246 15.7336 255.665 16.085 255.994C16.4476 256.323 16.952 256.487 17.598 256.487C18.2666 256.487 18.788 256.328 19.162 256.011C19.536 255.682 19.723 255.263 19.723 254.753C19.723 254.356 19.604 254.033 19.366 253.784C19.1393 253.535 18.8503 253.342 18.499 253.206C18.159 253.07 17.683 252.923 17.071 252.764C16.3003 252.56 15.6713 252.356 15.184 252.152C14.708 251.937 14.3 251.608 13.96 251.166C13.62 250.724 13.45 250.135 13.45 249.398C13.45 248.718 13.62 248.123 13.96 247.613C14.3 247.103 14.776 246.712 15.388 246.44C16 246.168 16.7083 246.032 17.513 246.032C18.6576 246.032 19.5926 246.321 20.318 246.899C21.0546 247.466 21.4626 248.248 21.542 249.245H19.4C19.366 248.814 19.162 248.446 18.788 248.14C18.414 247.834 17.921 247.681 17.309 247.681C16.7536 247.681 16.3003 247.823 15.949 248.106C15.5976 248.389 15.422 248.797 15.422 249.33C15.422 249.693 15.5296 249.993 15.745 250.231C15.9716 250.458 16.255 250.639 16.595 250.775C16.935 250.911 17.3996 251.058 17.989 251.217C18.771 251.432 19.4056 251.648 19.893 251.863C20.3916 252.078 20.811 252.413 21.151 252.866C21.5023 253.308 21.678 253.903 21.678 254.651C21.678 255.252 21.5136 255.818 21.185 256.351C20.8676 256.884 20.3973 257.314 19.774 257.643C19.162 257.96 18.4366 258.119 17.598 258.119ZM33.0597 253.087C33.0597 253.438 33.0371 253.756 32.9917 254.039H25.8347C25.8914 254.787 26.1691 255.388 26.6677 255.841C27.1664 256.294 27.7784 256.521 28.5037 256.521C29.5464 256.521 30.2831 256.085 30.7137 255.212H32.8047C32.5214 256.073 32.0057 256.782 31.2577 257.337C30.5211 257.881 29.6031 258.153 28.5037 258.153C27.6084 258.153 26.8037 257.955 26.0897 257.558C25.3871 257.15 24.8317 256.583 24.4237 255.858C24.0271 255.121 23.8287 254.271 23.8287 253.308C23.8287 252.345 24.0214 251.5 24.4067 250.775C24.8034 250.038 25.3531 249.472 26.0557 249.075C26.7697 248.678 27.5857 248.48 28.5037 248.48C29.3877 248.48 30.1754 248.673 30.8667 249.058C31.5581 249.443 32.0964 249.987 32.4817 250.69C32.8671 251.381 33.0597 252.18 33.0597 253.087ZM31.0367 252.475C31.0254 251.761 30.7704 251.189 30.2717 250.758C29.7731 250.327 29.1554 250.112 28.4187 250.112C27.7501 250.112 27.1777 250.327 26.7017 250.758C26.2257 251.177 25.9424 251.75 25.8517 252.475H31.0367ZM44.0619 253.087C44.0619 253.438 44.0393 253.756 43.9939 254.039H36.8369C36.8936 254.787 37.1713 255.388 37.6699 255.841C38.1686 256.294 38.7806 256.521 39.5059 256.521C40.5486 256.521 41.2853 256.085 41.7159 255.212H43.8069C43.5236 256.073 43.0079 256.782 42.2599 257.337C41.5233 257.881 40.6053 258.153 39.5059 258.153C38.6106 258.153 37.8059 257.955 37.0919 257.558C36.3893 257.15 35.8339 256.583 35.4259 255.858C35.0293 255.121 34.8309 254.271 34.8309 253.308C34.8309 252.345 35.0236 251.5 35.4089 250.775C35.8056 250.038 36.3553 249.472 37.0579 249.075C37.7719 248.678 38.5879 248.48 39.5059 248.48C40.3899 248.48 41.1776 248.673 41.8689 249.058C42.5603 249.443 43.0986 249.987 43.4839 250.69C43.8693 251.381 44.0619 252.18 44.0619 253.087ZM42.0389 252.475C42.0276 251.761 41.7726 251.189 41.2739 250.758C40.7753 250.327 40.1576 250.112 39.4209 250.112C38.7523 250.112 38.1799 250.327 37.7039 250.758C37.2279 251.177 36.9446 251.75 36.8539 252.475H42.0389ZM53.3431 250.01C53.6718 249.579 54.1195 249.217 54.6861 248.922C55.2528 248.627 55.8931 248.48 56.6071 248.48C57.4231 248.48 58.1655 248.684 58.8341 249.092C59.5141 249.489 60.0468 250.05 60.4321 250.775C60.8175 251.5 61.0101 252.333 61.0101 253.274C61.0101 254.215 60.8175 255.059 60.4321 255.807C60.0468 256.544 59.5141 257.122 58.8341 257.541C58.1655 257.949 57.4231 258.153 56.6071 258.153C55.8931 258.153 55.2585 258.011 54.7031 257.728C54.1478 257.433 53.6945 257.071 53.3431 256.64V262.454H51.4051V248.633H53.3431V250.01ZM59.0381 253.274C59.0381 252.628 58.9021 252.073 58.6301 251.608C58.3695 251.132 58.0181 250.775 57.5761 250.537C57.1455 250.288 56.6808 250.163 56.1821 250.163C55.6948 250.163 55.2301 250.288 54.7881 250.537C54.3575 250.786 54.0061 251.149 53.7341 251.625C53.4735 252.101 53.3431 252.662 53.3431 253.308C53.3431 253.954 53.4735 254.521 53.7341 255.008C54.0061 255.484 54.3575 255.847 54.7881 256.096C55.2301 256.345 55.6948 256.47 56.1821 256.47C56.6808 256.47 57.1455 256.345 57.5761 256.096C58.0181 255.835 58.3695 255.461 58.6301 254.974C58.9021 254.487 59.0381 253.92 59.0381 253.274ZM65.3746 249.993C65.658 249.517 66.032 249.149 66.4966 248.888C66.9726 248.616 67.5336 248.48 68.1796 248.48V250.486H67.6866C66.9273 250.486 66.3493 250.679 65.9526 251.064C65.5673 251.449 65.3746 252.118 65.3746 253.07V258H63.4366V248.633H65.3746V249.993ZM74.534 258.153C73.65 258.153 72.851 257.955 72.137 257.558C71.423 257.15 70.862 256.583 70.454 255.858C70.046 255.121 69.842 254.271 69.842 253.308C69.842 252.356 70.0517 251.512 70.471 250.775C70.8904 250.038 71.4627 249.472 72.188 249.075C72.9134 248.678 73.7237 248.48 74.619 248.48C75.5144 248.48 76.3247 248.678 77.05 249.075C77.7754 249.472 78.3477 250.038 78.767 250.775C79.1864 251.512 79.396 252.356 79.396 253.308C79.396 254.26 79.1807 255.104 78.75 255.841C78.3194 256.578 77.73 257.15 76.982 257.558C76.2454 257.955 75.4294 258.153 74.534 258.153ZM74.534 256.47C75.0327 256.47 75.4974 256.351 75.928 256.113C76.37 255.875 76.727 255.518 76.999 255.042C77.271 254.566 77.407 253.988 77.407 253.308C77.407 252.628 77.2767 252.056 77.016 251.591C76.7554 251.115 76.4097 250.758 75.979 250.52C75.5484 250.282 75.0837 250.163 74.585 250.163C74.0864 250.163 73.6217 250.282 73.191 250.52C72.7717 250.758 72.4374 251.115 72.188 251.591C71.9387 252.056 71.814 252.628 71.814 253.308C71.814 254.317 72.069 255.099 72.579 255.654C73.1004 256.198 73.752 256.47 74.534 256.47ZM82.8079 247.392C82.4565 247.392 82.1619 247.273 81.9239 247.035C81.6859 246.797 81.5669 246.502 81.5669 246.151C81.5669 245.8 81.6859 245.505 81.9239 245.267C82.1619 245.029 82.4565 244.91 82.8079 244.91C83.1479 244.91 83.4369 245.029 83.6749 245.267C83.9129 245.505 84.0319 245.8 84.0319 246.151C84.0319 246.502 83.9129 246.797 83.6749 247.035C83.4369 247.273 83.1479 247.392 82.8079 247.392ZM83.7599 259.836C83.7599 260.754 83.5275 261.417 83.0629 261.825C82.6095 262.244 81.9465 262.454 81.0739 262.454H80.0709V260.822H80.7339C81.1305 260.822 81.4082 260.743 81.5669 260.584C81.7369 260.437 81.8219 260.187 81.8219 259.836V248.633H83.7599V259.836ZM95.3993 253.087C95.3993 253.438 95.3766 253.756 95.3313 254.039H88.1743C88.2309 254.787 88.5086 255.388 89.0073 255.841C89.5059 256.294 90.1179 256.521 90.8433 256.521C91.8859 256.521 92.6226 256.085 93.0533 255.212H95.1443C94.8609 256.073 94.3453 256.782 93.5973 257.337C92.8606 257.881 91.9426 258.153 90.8433 258.153C89.9479 258.153 89.1433 257.955 88.4293 257.558C87.7266 257.15 87.1713 256.583 86.7633 255.858C86.3666 255.121 86.1683 254.271 86.1683 253.308C86.1683 252.345 86.3609 251.5 86.7463 250.775C87.1429 250.038 87.6926 249.472 88.3953 249.075C89.1093 248.678 89.9253 248.48 90.8433 248.48C91.7273 248.48 92.5149 248.673 93.2063 249.058C93.8976 249.443 94.4359 249.987 94.8213 250.69C95.2066 251.381 95.3993 252.18 95.3993 253.087ZM93.3763 252.475C93.3649 251.761 93.1099 251.189 92.6113 250.758C92.1126 250.327 91.4949 250.112 90.7583 250.112C90.0896 250.112 89.5173 250.327 89.0413 250.758C88.5653 251.177 88.2819 251.75 88.1913 252.475H93.3763ZM97.1705 253.308C97.1705 252.345 97.3631 251.5 97.7485 250.775C98.1451 250.038 98.6891 249.472 99.3805 249.075C100.072 248.678 100.865 248.48 101.76 248.48C102.894 248.48 103.829 248.752 104.565 249.296C105.313 249.829 105.818 250.594 106.078 251.591H103.987C103.817 251.126 103.545 250.764 103.171 250.503C102.797 250.242 102.327 250.112 101.76 250.112C100.967 250.112 100.332 250.395 99.8565 250.962C99.3918 251.517 99.1595 252.299 99.1595 253.308C99.1595 254.317 99.3918 255.104 99.8565 255.671C100.332 256.238 100.967 256.521 101.76 256.521C102.882 256.521 103.625 256.028 103.987 255.042H106.078C105.806 255.994 105.296 256.753 104.548 257.32C103.8 257.875 102.871 258.153 101.76 258.153C100.865 258.153 100.072 257.955 99.3805 257.558C98.6891 257.15 98.1451 256.583 97.7485 255.858C97.3631 255.121 97.1705 254.271 97.1705 253.308ZM110.781 250.214V255.399C110.781 255.75 110.86 256.005 111.019 256.164C111.189 256.311 111.472 256.385 111.869 256.385H113.059V258H111.529C110.656 258 109.987 257.796 109.523 257.388C109.058 256.98 108.826 256.317 108.826 255.399V250.214H107.721V248.633H108.826V246.304H110.781V248.633H113.059V250.214H110.781Z" fill="#396DF2"/>
<rect x="0.5" y="228.5" width="125" height="47" rx="7.5" stroke="#6070FF"/>
</g>
<defs>
<clipPath id="clip0_39_288">
<rect width="295" height="288" fill="white"/>
</clipPath>
<clipPath id="clip1_39_288">
<rect width="295" height="80" fill="white"/>
</clipPath>
<clipPath id="clip2_39_288">
<rect width="236" height="32" fill="white" transform="translate(0 48)"/>
</clipPath>
<clipPath id="clip3_39_288">
<rect width="214" height="24" fill="white" transform="translate(0 180)"/>
</clipPath>
</defs>
</svg>
